{"glyphs":{"0":{"ha":806,"x_min":82,"x_max":910,"o":"m 648 607 q 651 623 651 615 q 650 639 651 631 q 638 642 644 640 q 627 643 632 643 l 510 643 q 474 635 492 643 q 441 614 456 627 q 415 584 426 602 q 400 547 404 566 l 347 304 q 345 291 345 297 q 345 278 345 284 q 359 274 352 276 q 374 272 366 272 l 490 272 q 526 279 509 272 q 558 299 544 286 q 583 328 573 311 q 597 364 593 345 l 648 607 m 170 21 q 143 50 155 34 q 110 243 82 130 l 212 729 q 328 921 235 841 q 529 1002 420 1002 l 644 1002 q 810 921 752 1002 q 821 903 816 911 q 831 885 827 895 l 848 860 l 848 861 l 851 859 q 888 668 910 780 l 783 182 q 744 78 772 125 q 669 -8 715 31 q 574 -67 623 -48 q 471 -86 526 -86 l 355 -86 q 261 -67 303 -86 q 192 -8 219 -48 l 170 21 m 714 243 l 818 729 q 786 900 837 829 q 723 954 760 936 q 637 972 686 972 l 522 972 q 345 900 427 972 q 276 822 302 864 q 240 729 251 780 l 138 243 q 167 71 114 143 q 231 18 193 35 q 315 0 269 0 l 432 0 q 525 18 481 0 q 610 71 569 35 q 714 243 693 142 m 625 364 q 606 316 619 338 q 573 278 592 294 q 531 252 554 262 q 484 243 508 243 l 368 243 q 326 252 345 243 q 294 278 307 262 q 277 317 282 295 q 278 364 273 339 l 329 607 q 349 654 335 632 q 382 693 363 677 q 424 720 401 710 q 471 729 447 729 l 587 729 q 630 720 612 729 q 661 693 649 710 q 677 654 673 677 q 675 607 681 632 l 625 364 z "},"1":{"ha":806,"x_min":225,"x_max":714,"o":"m 232 -29 l 225 -29 l 289 272 l 347 272 l 427 646 l 386 700 l 379 700 l 443 1002 l 672 1002 l 671 994 l 714 937 l 572 272 l 576 272 l 574 265 l 615 208 l 553 -86 l 273 -86 l 232 -29 m 490 0 l 542 243 l 484 243 l 637 972 l 465 972 l 414 729 l 471 729 l 368 243 l 311 243 l 258 0 l 490 0 z "},"2":{"ha":806,"x_min":52,"x_max":910,"o":"m 342 272 l 749 272 l 746 265 l 789 208 l 726 -86 l 102 -86 l 58 -29 l 52 -29 l 121 304 q 239 496 146 415 q 335 556 286 536 q 439 576 385 576 l 526 576 q 550 581 538 576 q 571 594 562 586 q 588 614 581 603 q 597 637 595 625 l 597 643 l 256 643 l 212 700 l 205 700 l 269 1002 l 644 1002 q 810 921 752 1002 q 821 903 816 911 q 831 885 827 895 l 848 860 l 848 861 l 851 859 q 888 668 910 780 l 873 607 q 833 505 862 551 q 758 418 804 458 q 561 339 666 339 l 416 339 q 392 334 404 339 q 369 320 379 329 q 352 299 359 311 q 342 273 345 287 l 342 272 m 663 0 l 714 243 l 253 243 l 271 335 q 286 370 275 353 q 311 398 296 386 q 343 418 326 410 q 378 425 360 425 l 521 425 q 614 444 570 425 q 700 497 659 462 q 767 575 741 533 q 804 668 793 618 l 818 729 q 786 900 837 829 q 723 954 760 936 q 637 972 686 972 l 292 972 l 240 729 l 558 729 q 590 722 576 729 q 614 702 604 715 q 627 673 623 690 q 627 637 630 656 q 612 602 623 618 q 586 574 601 586 q 554 554 572 562 q 519 547 537 547 l 432 547 q 254 475 337 547 q 150 304 172 405 l 85 0 l 663 0 z "},"3":{"ha":806,"x_min":52,"x_max":910,"o":"m 212 700 l 205 700 l 269 1002 l 644 1002 q 810 921 752 1002 q 821 903 816 911 q 831 885 827 895 l 848 860 l 848 861 l 851 859 q 888 668 910 780 l 885 656 q 854 573 876 612 q 802 498 833 534 l 800 498 q 761 461 781 477 q 720 431 741 444 q 724 421 723 425 q 728 412 726 416 l 743 392 l 750 385 q 788 295 779 347 q 783 182 797 243 q 668 -7 761 72 q 471 -86 576 -86 l 102 -86 l 58 -29 l 52 -29 l 115 272 l 461 272 q 485 277 473 272 q 506 290 496 281 q 523 310 516 299 q 532 335 530 321 l 533 339 l 306 339 l 264 396 l 257 396 l 296 576 l 526 576 q 550 581 538 576 q 571 594 562 586 q 588 614 581 603 q 597 637 595 625 l 597 643 l 256 643 l 212 700 m 714 243 q 720 323 723 285 q 704 394 718 362 q 666 450 690 426 q 607 486 642 473 q 679 520 645 498 q 741 575 712 543 q 788 642 770 606 q 814 717 806 678 l 818 729 q 786 900 837 829 q 723 954 760 936 q 637 972 686 972 l 292 972 l 240 729 l 558 729 q 590 722 576 729 q 614 702 604 715 q 627 673 623 690 q 627 637 630 656 q 612 602 623 618 q 586 574 601 586 q 554 554 572 562 q 519 547 537 547 l 317 547 l 290 425 l 493 425 q 524 418 510 425 q 548 398 538 410 q 560 370 557 386 q 559 335 564 353 q 546 299 556 316 q 521 270 535 283 q 490 250 507 258 q 456 243 473 243 l 138 243 l 85 0 l 432 0 q 610 72 527 0 q 714 243 692 142 z "},"4":{"ha":806,"x_min":87,"x_max":945,"o":"m 376 441 l 614 441 l 733 1002 l 903 1002 l 901 994 l 945 937 l 726 -86 l 562 -86 l 519 -29 l 514 -29 l 539 83 l 138 83 l 94 140 l 87 140 l 218 758 l 390 758 l 387 751 l 431 694 l 376 441 m 663 0 l 869 972 l 753 972 l 635 412 l 288 412 l 355 729 l 240 729 l 121 170 l 583 170 l 547 0 l 663 0 z "},"5":{"ha":806,"x_min":52,"x_max":886,"o":"m 406 576 l 554 576 q 650 556 609 576 q 720 496 690 536 q 730 477 726 486 q 741 460 735 468 l 758 435 l 757 436 l 762 432 q 800 346 792 393 q 798 243 808 298 l 783 182 q 668 -7 761 72 q 471 -86 576 -86 l 102 -86 l 58 -29 l 52 -29 l 115 272 l 461 272 q 485 277 473 272 q 506 290 496 281 q 523 310 516 299 q 532 335 530 321 l 533 339 l 191 339 l 149 396 l 140 396 l 269 1002 l 846 1002 l 844 994 l 886 937 l 822 643 l 419 643 l 406 576 m 714 243 l 726 304 q 730 397 738 355 q 694 475 722 439 q 633 529 669 511 q 549 547 597 547 l 317 547 l 355 729 l 761 729 l 811 972 l 292 972 l 175 425 l 493 425 q 524 418 510 425 q 548 398 538 410 q 560 370 557 386 q 559 335 564 353 q 546 299 556 316 q 521 270 535 283 q 490 250 507 258 q 456 243 473 243 l 138 243 l 85 0 l 432 0 q 610 72 527 0 q 714 243 692 142 z "},"6":{"ha":806,"x_min":96,"x_max":886,"o":"m 591 339 l 416 339 q 392 334 404 339 q 369 320 379 329 q 352 299 359 311 q 342 273 345 287 l 342 272 l 346 272 l 519 272 q 543 277 532 272 q 565 290 555 281 q 581 310 574 299 q 590 335 588 321 l 591 339 m 510 643 q 451 624 478 643 q 408 576 423 606 l 415 576 l 554 576 q 650 556 609 576 q 720 496 690 536 q 730 477 726 486 q 741 460 735 468 l 758 435 l 757 436 l 762 432 q 800 346 792 393 q 798 243 808 298 l 783 182 q 744 78 772 125 q 669 -8 715 31 q 574 -67 623 -48 q 471 -86 526 -86 l 355 -86 q 262 -66 303 -86 q 193 -7 222 -47 l 171 20 q 157 35 163 27 q 144 52 151 42 q 105 139 114 92 q 110 243 96 186 l 212 729 q 328 922 235 842 q 425 982 376 963 q 529 1002 474 1002 l 846 1002 l 844 994 l 886 937 l 822 643 l 510 643 m 714 243 l 726 304 q 730 397 738 355 q 694 475 722 439 q 633 529 669 511 q 549 547 597 547 l 410 547 q 372 539 390 547 q 338 518 353 532 q 311 488 322 505 q 296 450 300 470 l 329 607 q 349 655 335 633 q 381 694 362 677 q 423 720 400 710 q 471 729 446 729 l 761 729 l 811 972 l 522 972 q 345 901 426 972 q 276 823 302 866 q 240 729 251 781 l 138 243 q 170 72 115 144 q 232 18 195 35 q 315 0 269 0 l 432 0 q 525 18 481 0 q 610 71 569 35 q 714 243 693 142 m 616 335 q 603 299 613 316 q 578 270 593 283 q 547 250 564 258 q 513 243 530 243 l 340 243 q 308 250 323 243 q 284 270 294 258 q 271 299 275 283 q 271 335 267 316 q 286 370 275 353 q 311 398 296 386 q 343 418 326 410 q 378 425 360 425 l 550 425 q 582 418 568 425 q 605 398 596 410 q 617 370 614 386 q 616 335 621 353 z "},"7":{"ha":806,"x_min":29,"x_max":945,"o":"m 212 700 l 205 700 l 269 1002 l 903 1002 l 901 994 l 945 937 l 886 661 l 300 -86 l 82 -86 l 40 -29 l 29 -29 l 555 643 l 256 643 l 212 700 m 818 729 l 869 972 l 292 972 l 240 729 l 656 729 l 85 0 l 248 0 l 818 729 z "},"8":{"ha":806,"x_min":83,"x_max":899,"o":"m 591 339 l 416 339 q 392 334 404 339 q 369 320 379 329 q 352 299 359 311 q 342 273 345 287 l 342 272 l 346 272 l 519 272 q 543 277 532 272 q 565 290 555 281 q 581 310 574 299 q 590 335 588 321 l 591 339 m 656 643 l 481 643 q 456 638 468 643 q 433 624 444 633 q 415 603 422 615 q 406 578 408 591 l 406 576 l 411 576 l 583 576 q 607 581 595 576 q 629 594 619 586 q 646 614 639 603 q 656 637 653 625 l 656 643 m 170 21 q 143 50 155 34 q 110 243 83 130 l 117 279 q 250 486 144 408 q 201 578 212 526 q 204 693 191 629 l 212 729 q 328 922 235 842 q 425 982 376 963 q 529 1002 474 1002 l 644 1002 q 741 982 699 1002 q 811 922 782 963 q 822 905 817 913 q 831 889 827 897 l 852 860 q 891 772 882 820 q 888 668 899 725 l 879 632 q 746 427 850 503 l 762 404 q 791 218 814 332 l 783 182 q 744 78 772 125 q 669 -8 715 31 q 574 -67 623 -48 q 471 -86 526 -86 l 355 -86 q 261 -67 302 -86 q 192 -8 219 -48 l 170 21 m 714 243 l 722 279 q 656 486 752 415 q 810 693 780 556 l 818 729 q 787 901 837 831 q 725 955 762 937 q 637 972 688 972 l 522 972 q 345 901 426 972 q 276 823 302 866 q 240 729 251 781 l 232 693 q 234 573 217 625 q 298 486 252 522 q 144 279 174 414 l 138 243 q 167 71 115 142 q 315 0 219 0 l 432 0 q 525 18 481 0 q 610 71 569 35 q 714 243 693 142 m 684 637 q 669 602 680 618 q 644 574 659 586 q 613 554 630 562 q 578 547 595 547 l 404 547 q 372 554 387 547 q 348 574 357 562 q 336 602 339 586 q 336 637 332 618 q 350 673 340 656 q 376 702 361 690 q 408 722 391 715 q 443 729 425 729 l 616 729 q 648 722 634 729 q 671 702 663 715 q 684 673 680 690 q 684 637 687 656 m 616 335 q 603 299 613 316 q 578 270 593 283 q 547 250 564 258 q 513 243 530 243 l 340 243 q 308 250 323 243 q 284 270 294 258 q 271 299 275 283 q 271 335 267 316 q 286 370 275 353 q 311 398 296 386 q 343 418 326 410 q 378 425 360 425 l 550 425 q 582 418 568 425 q 605 398 596 410 q 617 370 614 386 q 616 335 621 353 z "},"9":{"ha":806,"x_min":110,"x_max":910,"o":"m 656 643 l 481 643 q 456 638 468 643 q 433 624 444 633 q 415 603 422 615 q 406 578 408 591 l 406 576 l 411 576 l 583 576 q 607 581 595 576 q 629 594 619 586 q 646 614 639 603 q 656 637 653 625 l 656 643 m 262 444 q 248 459 254 452 q 235 476 241 467 q 199 668 176 557 l 212 729 q 328 922 235 842 q 425 982 376 963 q 529 1002 474 1002 l 644 1002 q 810 921 752 1002 q 821 903 816 911 q 831 885 827 895 l 848 860 l 848 861 l 851 859 q 888 668 910 780 l 783 182 q 744 78 772 125 q 669 -8 715 31 q 574 -67 623 -48 q 471 -86 526 -86 l 158 -86 l 117 -29 l 110 -29 l 174 272 l 490 272 q 547 291 521 272 q 587 339 574 309 l 446 339 q 283 418 340 339 l 262 444 m 714 243 l 818 729 q 786 900 837 829 q 723 954 760 936 q 637 972 686 972 l 522 972 q 345 901 426 972 q 276 823 302 866 q 240 729 251 781 l 228 668 q 224 575 216 618 q 258 497 233 533 q 322 444 286 462 q 406 425 359 425 l 545 425 q 582 433 564 425 q 616 454 601 441 q 642 485 631 467 q 657 522 653 503 l 625 364 q 606 316 619 338 q 573 278 592 294 q 531 252 554 262 q 484 243 508 243 l 196 243 l 143 0 l 432 0 q 525 18 481 0 q 610 71 569 35 q 714 243 693 142 m 684 637 q 669 602 680 618 q 644 574 659 586 q 613 554 630 562 q 578 547 595 547 l 404 547 q 372 554 387 547 q 348 574 357 562 q 336 602 339 586 q 336 637 332 618 q 350 673 340 656 q 376 702 361 690 q 408 722 391 715 q 443 729 425 729 l 616 729 q 648 722 634 729 q 671 702 663 715 q 684 673 680 690 q 684 637 687 656 z "}," ":{"ha":519,"x_min":0,"x_max":0,"o":""},"!":{"ha":390,"x_min":52,"x_max":530,"o":"m 58 -29 l 52 -29 l 100 199 l 317 199 l 315 192 l 358 135 l 311 -86 l 102 -86 l 58 -29 m 488 994 l 530 937 l 325 205 l 210 205 l 168 262 l 160 262 l 268 1002 l 490 1002 l 488 994 m 453 972 l 292 972 l 193 292 l 262 292 l 453 972 m 248 0 l 283 170 l 121 170 l 85 0 l 248 0 z "},"\"":{"ha":644,"x_min":248,"x_max":800,"o":"m 754 1054 l 800 997 l 663 607 l 551 607 l 510 664 l 501 664 l 525 943 l 408 607 l 297 607 l 256 664 l 248 664 l 281 1063 l 504 1063 l 500 1054 l 529 1015 l 534 1063 l 758 1063 l 754 1054 m 721 1034 l 558 1034 l 532 693 l 602 693 l 721 1034 m 467 1034 l 306 1034 l 278 693 l 347 693 l 467 1034 z "},"#":{"ha":829,"x_min":154,"x_max":936,"o":"m 529 612 l 554 612 l 562 643 l 539 643 l 529 612 m 761 612 l 843 612 l 842 606 l 885 549 l 852 400 l 697 400 l 656 254 l 514 254 l 471 311 l 465 311 l 490 400 l 467 400 l 424 254 l 283 254 l 240 311 l 235 311 l 260 400 l 204 400 l 161 457 l 154 457 l 187 612 l 323 612 l 332 643 l 256 643 l 212 700 l 205 700 l 239 856 l 395 856 l 437 1002 l 586 1002 l 583 994 l 627 937 l 603 856 l 627 856 l 668 1002 l 817 1002 l 814 994 l 857 937 l 833 856 l 896 856 l 893 848 l 936 791 l 904 643 l 771 643 l 761 612 m 789 486 l 810 583 l 665 583 l 710 729 l 840 729 l 861 827 l 739 827 l 781 972 l 688 972 l 646 827 l 509 827 l 549 972 l 457 972 l 415 827 l 261 827 l 240 729 l 386 729 l 343 583 l 208 583 l 189 486 l 314 486 l 271 340 l 364 340 l 406 486 l 545 486 l 501 340 l 595 340 l 636 486 l 789 486 m 616 729 l 574 583 l 435 583 l 479 729 l 616 729 z "},"$":{"ha":806,"x_min":77,"x_max":945,"o":"m 510 643 q 490 636 497 643 l 567 636 q 662 616 620 636 q 732 557 703 597 q 744 538 739 547 q 753 519 749 529 l 772 496 l 771 497 l 774 493 q 812 407 803 454 q 810 304 821 359 q 768 201 797 248 q 694 114 739 154 q 521 36 612 44 l 496 -86 l 332 -86 l 289 -29 l 283 -29 l 296 35 l 126 35 l 83 92 l 77 92 l 140 393 l 515 393 q 534 400 523 393 l 460 400 q 296 479 355 400 l 275 505 q 248 538 261 519 q 212 729 188 617 q 329 921 235 842 q 501 999 407 988 l 528 1122 l 697 1122 l 696 1116 l 739 1059 l 726 1002 l 903 1002 l 901 994 l 945 937 l 880 643 l 510 643 m 741 364 q 742 458 750 415 q 708 536 734 500 q 646 589 682 572 q 559 607 609 607 l 444 607 q 424 612 433 607 q 408 626 414 617 q 400 645 402 634 q 401 668 398 656 q 411 691 404 680 q 428 711 418 703 q 449 724 437 720 q 471 729 460 729 l 818 729 l 869 972 l 637 972 l 664 1093 l 549 1093 l 522 972 q 345 900 429 972 q 240 729 261 829 q 272 558 220 630 q 419 486 323 486 l 534 486 q 572 468 559 486 q 579 425 585 450 q 570 402 577 413 q 554 383 564 391 q 533 369 545 374 q 510 364 522 364 l 163 364 l 111 121 l 342 121 l 315 0 l 432 0 l 457 121 q 550 139 505 121 q 636 193 594 157 q 741 364 717 263 z "},"%":{"ha":1349,"x_min":157,"x_max":1390,"o":"m 551 699 l 553 704 l 465 704 q 440 699 453 704 q 418 685 428 694 q 400 664 408 675 q 390 637 393 652 l 370 546 l 374 546 l 461 546 q 506 564 486 546 q 532 607 526 581 l 551 699 m 1169 364 l 1171 370 l 1083 370 q 1034 351 1056 370 q 1006 304 1012 332 l 986 211 l 990 211 l 1076 211 q 1123 229 1102 211 q 1150 273 1143 246 l 1169 364 m 908 583 q 920 594 915 589 q 932 606 926 600 q 1088 667 1004 667 l 1174 667 q 1303 606 1256 667 q 1312 590 1308 598 q 1320 574 1316 582 l 1346 542 q 1371 395 1390 481 l 1312 121 q 1280 40 1303 77 q 1223 -26 1258 4 q 1072 -86 1154 -86 l 986 -86 q 913 -71 944 -86 q 860 -25 882 -56 l 833 5 q 821 19 826 12 q 811 33 817 26 q 803 44 806 39 q 798 54 801 49 l 766 -86 l 603 -86 l 559 -29 l 554 -29 l 629 326 q 619 317 624 321 q 608 307 614 313 q 456 248 538 248 l 368 248 q 296 263 328 248 q 241 309 264 278 l 218 340 q 205 353 211 346 q 195 367 200 359 q 164 435 172 398 q 167 517 157 473 l 225 790 q 315 939 243 878 q 471 1002 389 1002 l 558 1002 q 686 939 642 1002 q 696 923 692 931 q 704 908 701 916 l 729 876 l 742 854 l 772 1002 l 943 1002 l 942 994 l 985 937 l 908 583 m 1244 182 l 1303 456 q 1304 525 1310 493 q 1278 585 1299 557 q 1231 624 1258 610 q 1168 637 1204 637 l 1082 637 q 1012 624 1046 637 q 947 585 978 610 q 897 525 917 557 q 869 456 877 493 l 811 182 q 833 53 797 108 q 946 0 874 0 l 1032 0 q 1165 53 1104 0 q 1244 182 1228 104 m 704 0 l 909 972 l 794 972 l 587 0 l 704 0 m 628 517 l 686 790 q 664 918 703 865 q 551 972 622 972 l 465 972 q 332 918 395 972 q 281 860 301 892 q 253 790 261 828 l 195 517 q 193 446 187 479 q 218 387 199 414 q 329 335 259 335 l 415 335 q 550 386 489 335 q 600 446 581 414 q 628 517 619 478 m 1178 273 q 1163 237 1174 254 q 1139 208 1153 220 q 1107 189 1124 196 q 1071 182 1090 182 l 985 182 q 953 189 967 182 q 929 209 939 197 q 917 238 920 222 q 918 273 914 255 l 937 364 q 951 399 941 382 q 976 428 962 416 q 1008 448 991 441 q 1043 456 1025 456 l 1129 456 q 1161 448 1147 456 q 1184 428 1175 441 q 1197 399 1194 416 q 1197 364 1201 382 l 1178 273 m 559 607 q 546 571 555 587 q 522 543 536 555 q 490 524 507 530 q 454 517 473 517 l 368 517 q 336 524 351 517 q 313 544 322 531 q 301 572 304 556 q 301 607 298 589 l 321 699 q 335 734 325 718 q 360 763 346 751 q 392 783 374 776 q 427 790 409 790 l 513 790 q 544 783 530 790 q 567 763 558 776 q 580 734 576 751 q 579 699 583 718 l 559 607 z "},"&":{"ha":806,"x_min":96,"x_max":945,"o":"m 399 272 l 403 272 l 509 272 l 521 339 l 475 339 q 449 334 462 339 q 426 320 437 329 q 409 299 416 311 q 399 273 401 287 l 399 272 m 733 272 l 749 272 l 746 265 l 789 208 l 726 -86 l 355 -86 q 262 -66 303 -86 q 193 -7 222 -47 l 171 20 q 157 35 163 27 q 144 52 151 42 q 105 139 114 92 q 110 243 96 186 q 170 380 125 317 q 279 484 214 444 l 269 497 q 233 542 248 516 q 211 597 218 567 q 204 660 204 627 q 212 729 205 694 q 329 921 235 842 q 529 1002 422 1002 l 903 1002 l 901 994 l 945 937 l 880 643 l 539 643 q 513 638 526 643 q 491 624 501 633 q 473 603 480 615 q 463 578 465 591 l 463 576 l 468 576 l 812 576 l 811 568 l 852 511 l 817 339 l 747 339 l 733 272 m 663 0 l 714 243 l 646 243 l 684 425 l 753 425 l 779 547 l 461 547 q 429 554 444 547 q 406 574 415 562 q 394 602 397 586 q 395 637 391 618 q 409 673 398 656 q 433 702 419 690 q 465 722 448 715 q 500 729 482 729 l 818 729 l 869 972 l 522 972 q 345 900 429 972 q 240 729 261 829 q 234 649 231 687 q 250 578 237 610 q 288 523 264 547 q 347 486 313 499 q 273 450 307 473 q 211 394 238 426 q 165 323 184 362 q 138 243 146 285 q 170 72 115 144 q 232 18 195 35 q 315 0 269 0 l 663 0 m 529 243 l 397 243 q 366 250 380 243 q 342 270 351 258 q 329 299 332 283 q 329 335 326 316 q 343 370 333 353 q 368 398 354 386 q 400 418 382 410 q 435 425 417 425 l 568 425 l 529 243 z "},"'":{"ha":390,"x_min":248,"x_max":546,"o":"m 500 1054 l 546 997 l 408 607 l 297 607 l 256 664 l 248 664 l 281 1063 l 504 1063 l 500 1054 m 467 1034 l 306 1034 l 278 693 l 347 693 l 467 1034 z "},"(":{"ha":518,"x_min":59,"x_max":624,"o":"m 322 182 q 320 173 321 178 q 319 164 319 168 q 345 154 331 157 q 375 150 359 150 l 374 143 l 416 86 l 359 -182 l 330 -208 q 236 -188 277 -208 q 167 -129 195 -168 l 146 -102 q 132 -87 138 -95 q 119 -71 125 -79 q 82 121 59 10 l 237 850 q 279 955 250 907 q 354 1043 308 1002 q 458 1103 402 1083 q 582 1122 514 1122 l 581 1116 l 624 1059 l 561 764 q 514 756 537 764 q 473 736 492 749 q 442 705 455 723 q 425 668 429 688 l 322 182 m 290 -122 l 342 121 q 299 131 318 121 q 268 157 280 140 q 251 196 256 174 q 253 243 247 218 l 355 729 q 375 776 361 754 q 408 814 389 798 q 450 840 427 831 q 497 850 473 850 l 549 1093 q 371 1022 452 1093 q 302 944 329 987 q 267 850 276 901 l 111 121 q 109 28 100 71 q 142 -50 117 -14 q 206 -104 169 -85 q 290 -122 243 -122 z "},")":{"ha":518,"x_min":83,"x_max":646,"o":"m 297 821 l 290 821 l 354 1122 q 547 1043 489 1122 q 558 1024 553 1034 q 568 1006 563 1015 l 587 979 q 624 790 646 902 l 469 61 q 353 -129 445 -50 q 253 -188 308 -168 q 132 -208 198 -208 l 92 -151 l 83 -151 l 147 150 q 193 157 170 150 q 234 178 216 165 q 266 208 253 191 q 283 243 279 224 l 386 729 q 387 742 387 735 q 385 755 387 749 q 364 762 375 761 q 339 764 353 764 l 297 821 m 400 121 l 555 850 q 524 1022 575 953 q 375 1093 471 1093 l 325 850 q 367 840 348 850 q 398 814 386 831 q 415 776 410 798 q 414 729 419 754 l 311 243 q 291 196 305 218 q 258 157 277 174 q 216 131 239 140 q 170 121 193 121 l 118 -122 q 209 -104 165 -122 q 296 -50 254 -85 q 400 121 378 20 z "},"*":{"ha":675,"x_min":189,"x_max":778,"o":"m 705 657 l 749 599 l 650 469 l 550 539 l 521 400 l 380 400 l 339 457 l 332 457 l 342 501 l 281 469 l 239 526 l 235 524 l 189 661 l 296 718 l 267 737 l 228 789 l 218 798 l 321 935 l 418 865 l 447 1002 l 595 1002 l 593 994 l 636 937 l 627 899 l 693 935 l 697 918 l 734 868 l 778 737 l 675 684 l 708 661 l 705 657 m 669 650 l 557 729 l 703 808 l 675 893 l 528 812 l 561 972 l 469 972 l 435 812 l 321 893 l 257 808 l 372 729 l 224 650 l 252 566 l 400 646 l 366 486 l 458 486 l 492 646 l 606 566 l 669 650 z "},"+":{"ha":690,"x_min":131,"x_max":724,"o":"m 551 503 l 682 503 l 681 496 l 724 439 l 692 290 l 507 290 l 465 96 l 325 96 l 282 153 l 275 153 l 304 290 l 180 290 l 139 347 l 131 347 l 164 503 l 349 503 l 390 697 l 539 697 l 538 690 l 579 633 l 551 503 m 627 376 l 647 473 l 463 473 l 504 668 l 412 668 l 371 473 l 186 473 l 165 376 l 350 376 l 309 182 l 401 182 l 441 376 l 627 376 z "},",":{"ha":390,"x_min":64,"x_max":363,"o":"m 318 192 l 363 135 l 225 -257 l 114 -257 l 72 -200 l 64 -200 l 97 199 l 321 199 l 318 192 m 283 170 l 121 170 l 94 -171 l 164 -171 l 283 170 z "},"-":{"ha":690,"x_min":131,"x_max":724,"o":"m 139 347 l 131 347 l 164 503 l 682 503 l 681 496 l 724 439 l 692 290 l 180 290 l 139 347 m 627 376 l 647 473 l 186 473 l 165 376 l 627 376 z "},"­":{"ha":690,"x_min":131,"x_max":724,"o":"m 139 347 l 131 347 l 164 503 l 682 503 l 681 496 l 724 439 l 692 290 l 180 290 l 139 347 m 627 376 l 647 473 l 186 473 l 165 376 l 627 376 z "},".":{"ha":390,"x_min":52,"x_max":358,"o":"m 58 -29 l 52 -29 l 100 199 l 317 199 l 315 192 l 358 135 l 311 -86 l 102 -86 l 58 -29 m 248 0 l 283 170 l 121 170 l 85 0 l 248 0 z "},"/":{"ha":675,"x_min":4,"x_max":860,"o":"m 815 1048 l 860 991 l 196 -200 l 53 -142 l 14 -86 l 4 -83 l 671 1116 l 819 1054 l 815 1048 m 781 1036 l 681 1078 l 43 -64 l 143 -106 l 781 1036 z "},":":{"ha":390,"x_min":52,"x_max":461,"o":"m 58 -29 l 52 -29 l 100 199 l 317 199 l 315 192 l 358 135 l 311 -86 l 102 -86 l 58 -29 m 161 457 l 154 457 l 203 685 l 421 685 l 419 677 l 461 621 l 414 400 l 204 400 l 161 457 m 350 486 l 386 656 l 225 656 l 189 486 l 350 486 m 248 0 l 283 170 l 121 170 l 85 0 l 248 0 z "},";":{"ha":390,"x_min":64,"x_max":461,"o":"m 161 457 l 154 457 l 203 685 l 421 685 l 419 677 l 461 621 l 414 400 l 204 400 l 161 457 m 318 192 l 363 135 l 225 -257 l 114 -257 l 72 -200 l 64 -200 l 97 199 l 321 199 l 318 192 m 350 486 l 386 656 l 225 656 l 189 486 l 350 486 m 283 170 l 121 170 l 94 -171 l 164 -171 l 283 170 z "},";":{"ha":390,"x_min":64,"x_max":461,"o":"m 161 457 l 154 457 l 203 685 l 421 685 l 419 677 l 461 621 l 414 400 l 204 400 l 161 457 m 318 192 l 363 135 l 225 -257 l 114 -257 l 72 -200 l 64 -200 l 97 199 l 321 199 l 318 192 m 350 486 l 386 656 l 225 656 l 189 486 l 350 486 m 283 170 l 121 170 l 94 -171 l 164 -171 l 283 170 z "},"<":{"ha":665,"x_min":134,"x_max":741,"o":"m 602 197 l 644 140 l 542 16 l 183 302 l 149 349 l 134 361 l 161 490 l 646 781 l 656 758 l 690 714 l 741 589 l 385 378 l 607 201 l 602 197 m 564 193 l 273 425 l 663 657 l 629 739 l 186 473 l 165 376 l 497 111 l 564 193 z "},"=":{"ha":690,"x_min":109,"x_max":746,"o":"m 115 237 l 109 237 l 140 393 l 659 393 l 657 386 l 700 329 l 668 180 l 158 180 l 115 237 m 161 457 l 154 457 l 187 612 l 704 612 l 704 606 l 746 549 l 714 400 l 204 400 l 161 457 m 650 486 l 671 583 l 208 583 l 189 486 l 650 486 m 604 267 l 625 364 l 163 364 l 142 267 l 604 267 z "},">":{"ha":665,"x_min":87,"x_max":696,"o":"m 199 636 l 183 648 l 293 781 l 656 490 l 654 484 l 696 427 l 669 302 l 189 16 l 146 72 l 142 71 l 87 201 l 449 416 l 233 589 l 199 636 m 603 376 l 624 473 l 293 739 l 225 657 l 515 425 l 126 193 l 160 111 l 603 376 z "},"?":{"ha":736,"x_min":110,"x_max":829,"o":"m 117 -29 l 110 -29 l 158 199 l 375 199 l 374 192 l 415 135 l 368 -86 l 158 -86 l 117 -29 m 212 700 l 205 700 l 269 1002 l 575 1002 q 741 921 682 1002 q 752 903 747 911 q 762 885 757 895 l 782 859 q 820 772 811 819 q 818 668 829 725 q 703 479 793 557 q 505 400 611 400 l 436 400 l 383 205 l 267 205 l 227 262 l 218 262 l 272 636 l 497 636 q 517 643 505 636 l 256 643 l 212 700 m 749 729 q 717 900 769 829 q 654 954 691 936 q 568 972 617 972 l 292 972 l 240 729 l 518 729 q 554 711 541 729 q 562 668 568 693 q 552 645 559 656 q 535 626 545 634 q 514 612 526 617 q 490 607 503 607 l 296 607 l 252 292 l 321 292 l 374 486 l 465 486 q 644 558 559 486 q 749 729 725 629 m 306 0 l 342 170 l 179 170 l 143 0 l 306 0 z "},"@":{"ha":1152,"x_min":34,"x_max":1245,"o":"m 568 301 q 550 242 555 264 q 542 211 544 220 l 625 211 q 650 216 637 211 q 673 230 662 221 q 692 251 684 239 q 704 277 701 263 q 723 338 715 315 q 733 370 730 361 l 653 370 q 626 364 640 370 q 601 350 612 359 q 580 328 589 340 q 568 301 572 315 m 119 -222 q 105 -208 112 -216 q 92 -192 99 -200 q 57 0 34 -113 l 212 729 q 328 921 235 841 q 529 1002 420 1002 l 990 1002 q 1156 921 1098 1002 q 1167 903 1162 911 q 1178 885 1173 895 l 1198 859 q 1237 772 1228 819 q 1234 668 1245 725 l 1131 182 q 1089 78 1118 125 q 1015 -8 1061 31 q 818 -86 925 -86 l 664 -86 l 657 -77 q 617 -85 638 -82 q 570 -87 595 -87 l 541 -87 q 526 -86 532 -86 q 518 -86 522 -86 q 450 -73 479 -86 q 397 -32 420 -59 l 372 4 q 361 15 366 9 q 351 26 355 20 q 325 167 309 83 q 327 174 325 168 q 332 186 328 180 l 412 458 q 514 606 439 543 q 592 651 553 636 q 673 667 631 667 l 760 667 q 885 606 838 667 l 884 606 q 891 593 888 600 q 897 582 894 587 l 922 549 l 921 549 l 924 545 q 949 484 943 517 q 947 412 955 451 q 945 404 946 409 q 940 392 943 398 l 859 117 q 913 148 889 124 q 945 207 937 172 l 1064 765 q 1064 798 1066 782 q 1052 800 1059 799 q 1040 802 1046 802 l 510 802 q 473 794 491 802 q 439 773 454 786 q 413 742 424 760 q 397 704 401 724 l 228 -97 q 225 -110 227 -104 q 225 -122 224 -116 q 239 -127 233 -125 q 254 -129 245 -129 l 893 -129 l 892 -136 l 935 -193 l 905 -329 l 304 -329 q 140 -250 197 -329 l 119 -222 m 1061 243 l 1164 729 q 1166 822 1175 780 q 1132 900 1158 864 q 985 972 1079 972 l 522 972 q 345 900 427 972 q 276 822 302 864 q 240 729 251 780 l 85 0 q 115 -171 63 -100 q 178 -225 141 -208 q 264 -243 216 -243 l 840 -243 l 860 -158 l 248 -158 q 205 -149 224 -158 q 174 -122 186 -139 q 158 -83 162 -106 q 160 -36 154 -61 l 329 765 q 349 812 335 790 q 382 851 363 835 q 424 878 401 868 q 471 888 447 888 l 1002 888 q 1044 878 1025 888 q 1075 851 1063 868 q 1092 812 1088 835 q 1092 765 1097 790 l 972 207 q 953 159 966 181 q 921 120 939 136 q 879 94 902 104 q 831 85 856 85 l 762 85 l 872 456 q 875 466 874 462 q 878 472 876 471 q 856 590 893 544 q 753 637 823 637 l 667 637 q 528 585 596 637 q 473 525 495 557 q 440 456 451 493 l 358 182 q 354 172 355 176 q 354 167 354 168 q 374 47 340 97 q 418 12 393 24 q 478 0 444 0 q 488 0 482 0 q 503 -1 495 0 l 529 -1 q 669 61 649 -1 l 652 0 l 778 0 q 957 71 873 0 q 1024 149 999 106 q 1061 243 1050 192 m 760 374 q 752 343 758 368 q 733 273 746 319 q 715 238 727 255 q 687 209 703 222 q 653 189 671 197 q 618 182 635 182 l 532 182 q 502 188 515 182 q 481 206 489 195 q 470 233 473 218 q 471 267 467 248 q 479 295 472 271 q 500 364 486 320 q 517 399 505 382 q 545 428 529 416 q 578 448 560 441 q 614 456 596 456 l 700 456 q 751 433 734 456 q 760 374 768 410 z "},"A":{"ha":806,"x_min":52,"x_max":899,"o":"m 367 393 l 604 393 l 648 607 q 652 639 654 625 q 639 642 645 640 q 627 643 633 643 l 510 643 q 474 635 492 643 q 441 614 456 627 q 415 584 426 602 q 400 547 404 566 l 367 393 m 58 -29 l 52 -29 l 212 729 q 329 921 235 842 q 529 1002 422 1002 l 644 1002 q 741 982 699 1002 q 811 922 782 963 q 822 905 817 913 q 831 889 827 897 l 852 860 q 891 772 882 820 q 888 668 899 725 l 726 -86 l 562 -86 l 519 -29 l 514 -29 l 553 157 l 315 157 l 265 -86 l 102 -86 l 58 -29 m 663 0 l 818 729 q 787 901 837 831 q 725 955 762 937 q 637 972 688 972 l 522 972 q 345 900 429 972 q 240 729 261 829 l 85 0 l 200 0 l 253 243 l 599 243 l 547 0 l 663 0 m 625 364 l 278 364 l 329 607 q 349 654 335 632 q 382 693 363 677 q 424 720 401 710 q 471 729 447 729 l 587 729 q 631 720 612 729 q 662 694 650 710 q 677 655 673 677 q 675 607 681 633 l 625 364 z "},"B":{"ha":806,"x_min":52,"x_max":910,"o":"m 533 339 l 354 339 l 342 272 l 461 272 q 485 277 473 272 q 506 290 496 281 q 523 310 516 299 q 532 335 530 321 l 533 339 m 597 643 l 419 643 l 406 576 l 526 576 q 550 581 538 576 q 571 594 562 586 q 588 614 581 603 q 597 637 595 625 l 597 643 m 58 -29 l 52 -29 l 269 1002 l 644 1002 q 810 921 752 1002 q 821 903 816 911 q 831 885 827 895 l 851 859 q 888 668 910 780 l 885 656 q 854 573 876 612 q 802 498 833 534 l 800 498 q 761 461 781 477 q 720 431 741 444 q 723 422 722 427 q 726 412 724 418 l 728 412 l 743 392 l 750 385 q 788 295 779 347 q 783 182 797 243 q 668 -7 761 72 q 471 -86 576 -86 l 102 -86 l 58 -29 m 714 243 q 720 323 723 285 q 704 394 718 362 q 666 450 690 426 q 607 486 642 473 q 679 520 645 498 q 741 575 712 543 q 788 642 770 606 q 814 717 806 678 l 818 729 q 786 900 837 829 q 723 954 760 936 q 637 972 686 972 l 292 972 l 85 0 l 432 0 q 610 72 527 0 q 714 243 692 142 m 627 637 q 612 602 623 618 q 586 574 601 586 q 554 554 572 562 q 519 547 537 547 l 317 547 l 355 729 l 558 729 q 590 722 576 729 q 614 702 604 715 q 627 673 623 690 q 627 637 630 656 m 559 335 q 546 299 556 316 q 521 270 535 283 q 490 250 507 258 q 456 243 473 243 l 253 243 l 290 425 l 493 425 q 524 418 510 425 q 548 398 538 410 q 560 370 557 386 q 559 335 564 353 z "},"C":{"ha":806,"x_min":96,"x_max":945,"o":"m 347 304 q 345 291 345 297 q 345 278 345 284 q 359 274 352 276 q 374 272 366 272 l 749 272 l 746 265 l 789 208 l 726 -86 l 355 -86 q 262 -66 303 -86 q 193 -7 222 -47 l 171 20 q 157 35 163 27 q 144 52 151 42 q 105 139 114 92 q 110 243 96 186 l 212 729 q 329 921 235 842 q 529 1002 422 1002 l 903 1002 l 901 994 l 945 937 l 880 643 l 510 643 q 474 635 492 643 q 441 614 456 627 q 415 584 426 602 q 400 547 404 566 l 347 304 m 663 0 l 714 243 l 368 243 q 326 252 345 243 q 294 278 307 262 q 277 317 282 295 q 278 364 273 339 l 329 607 q 349 654 335 632 q 382 693 363 677 q 424 720 401 710 q 471 729 447 729 l 818 729 l 869 972 l 522 972 q 345 900 429 972 q 240 729 261 829 l 138 243 q 170 72 115 144 q 232 18 195 35 q 315 0 269 0 l 663 0 z "},"D":{"ha":806,"x_min":52,"x_max":910,"o":"m 648 607 q 651 623 651 615 q 650 639 651 631 q 638 642 644 640 q 627 643 632 643 l 419 643 l 342 272 l 490 272 q 526 279 509 272 q 558 299 544 286 q 583 328 573 311 q 597 364 593 345 l 648 607 m 58 -29 l 52 -29 l 269 1002 l 644 1002 q 810 921 752 1002 q 821 903 816 911 q 831 885 827 895 l 851 859 q 888 668 910 780 l 783 182 q 744 78 772 125 q 669 -8 715 31 q 574 -67 623 -48 q 471 -86 526 -86 l 102 -86 l 58 -29 m 714 243 l 818 729 q 786 900 837 829 q 723 954 760 936 q 637 972 686 972 l 292 972 l 85 0 l 432 0 q 525 18 481 0 q 610 71 569 35 q 714 243 693 142 m 625 364 q 606 316 619 338 q 573 278 592 294 q 531 252 554 262 q 484 243 508 243 l 253 243 l 355 729 l 587 729 q 630 720 612 729 q 661 693 649 710 q 677 654 673 677 q 675 607 681 632 l 625 364 z "},"E":{"ha":690,"x_min":83,"x_max":829,"o":"m 347 304 q 345 291 345 297 q 345 277 345 284 q 374 272 358 272 l 633 272 l 631 265 l 673 208 l 611 -86 l 355 -86 q 261 -67 302 -86 q 192 -8 219 -48 l 170 21 q 143 50 155 34 q 110 243 83 130 l 269 1002 l 787 1002 l 786 994 l 829 937 l 765 643 l 419 643 l 406 576 l 582 576 l 579 568 l 623 511 l 586 339 l 354 339 l 347 304 m 547 0 l 599 243 l 368 243 q 325 252 344 243 q 293 278 305 262 q 277 316 281 294 q 278 364 273 338 l 290 425 l 521 425 l 549 547 l 317 547 l 355 729 l 703 729 l 753 972 l 292 972 l 138 243 q 167 71 115 142 q 315 0 219 0 l 547 0 z "},"F":{"ha":661,"x_min":52,"x_max":829,"o":"m 58 -29 l 52 -29 l 212 729 q 328 922 235 842 q 425 982 376 963 q 529 1002 474 1002 l 787 1002 l 786 994 l 829 937 l 765 643 l 510 643 q 451 624 478 643 q 408 576 423 606 l 582 576 l 579 568 l 623 511 l 586 339 l 354 339 l 265 -86 l 102 -86 l 58 -29 m 703 729 l 753 972 l 522 972 q 345 901 426 972 q 276 823 302 866 q 240 729 251 781 l 85 0 l 200 0 l 290 425 l 521 425 l 549 547 l 317 547 l 329 607 q 349 655 335 633 q 381 694 362 677 q 423 720 400 710 q 471 729 446 729 l 703 729 z "},"G":{"ha":806,"x_min":96,"x_max":945,"o":"m 171 20 q 157 35 163 27 q 144 52 151 42 q 105 139 114 92 q 110 243 96 186 l 212 729 q 329 921 235 842 q 529 1002 422 1002 l 903 1002 l 901 994 l 945 937 l 880 643 l 510 643 q 474 635 492 643 q 441 614 456 627 q 415 584 426 602 q 400 547 404 566 l 347 304 q 345 291 345 297 q 345 278 345 284 q 359 274 352 276 q 374 272 366 272 l 567 272 l 579 339 l 479 339 l 437 396 l 431 396 l 469 576 l 802 576 l 800 568 l 840 511 l 714 -86 l 355 -86 q 262 -66 303 -86 q 193 -7 222 -47 l 171 20 m 818 729 l 869 972 l 522 972 q 345 900 429 972 q 240 729 261 829 l 138 243 q 170 72 115 144 q 232 18 195 35 q 315 0 269 0 l 652 0 l 768 547 l 490 547 l 464 425 l 627 425 l 587 243 l 368 243 q 326 252 345 243 q 294 278 307 262 q 277 317 282 295 q 278 364 273 339 l 329 607 q 349 654 335 632 q 382 693 363 677 q 424 720 401 710 q 471 729 447 729 l 818 729 z "},"H":{"ha":806,"x_min":52,"x_max":945,"o":"m 418 636 l 656 636 l 733 1002 l 903 1002 l 901 994 l 945 937 l 726 -86 l 562 -86 l 519 -29 l 514 -29 l 579 278 l 343 278 l 265 -86 l 102 -86 l 58 -29 l 52 -29 l 269 1002 l 441 1002 l 440 994 l 482 937 l 418 636 m 663 0 l 869 972 l 753 972 l 675 607 l 329 607 l 407 972 l 292 972 l 85 0 l 200 0 l 278 364 l 625 364 l 547 0 l 663 0 z "},"I":{"ha":460,"x_min":52,"x_max":597,"o":"m 58 -29 l 52 -29 l 115 272 l 174 272 l 253 646 l 212 700 l 205 700 l 269 1002 l 557 1002 l 555 994 l 597 937 l 534 643 l 476 643 l 399 272 l 403 272 l 400 265 l 441 208 l 380 -86 l 102 -86 l 58 -29 m 315 0 l 368 243 l 311 243 l 414 729 l 471 729 l 522 972 l 292 972 l 240 729 l 298 729 l 196 243 l 138 243 l 85 0 l 315 0 z "},"J":{"ha":575,"x_min":52,"x_max":714,"o":"m 212 700 l 205 700 l 269 1002 l 672 1002 l 671 994 l 714 937 l 553 182 q 513 78 541 125 q 439 -8 485 31 q 343 -67 392 -48 q 240 -86 295 -86 l 102 -86 l 58 -29 l 52 -29 l 115 272 l 258 272 q 295 279 277 272 q 327 299 313 286 q 352 328 342 311 q 367 364 363 345 l 425 643 l 256 643 l 212 700 m 484 243 l 637 972 l 292 972 l 240 729 l 471 729 l 393 364 q 374 316 388 338 q 342 278 361 294 q 300 252 323 262 q 253 243 277 243 l 138 243 l 85 0 l 200 0 q 294 18 250 0 q 379 71 338 35 q 484 243 463 142 z "},"K":{"ha":806,"x_min":52,"x_max":945,"o":"m 418 636 l 567 636 q 603 643 585 636 q 635 663 621 650 q 660 692 650 675 q 675 729 671 709 l 733 1002 l 903 1002 l 901 994 l 945 937 l 882 644 q 828 521 867 578 q 733 427 789 464 l 754 399 q 791 311 783 361 q 789 207 800 262 l 726 -86 l 562 -86 l 519 -29 l 514 -29 l 572 243 q 574 260 574 252 q 574 275 575 268 q 562 277 568 277 q 549 278 556 278 l 343 278 l 265 -86 l 102 -86 l 58 -29 l 52 -29 l 269 1002 l 441 1002 l 440 994 l 482 937 l 418 636 m 663 0 l 720 267 q 725 335 727 302 q 712 397 723 368 q 683 448 702 425 q 637 486 664 471 q 699 524 670 501 q 750 575 727 547 q 788 636 772 604 q 811 704 804 669 l 869 972 l 753 972 l 703 729 q 683 681 696 703 q 650 642 669 659 q 608 616 631 626 q 559 607 585 607 l 329 607 l 407 972 l 292 972 l 85 0 l 200 0 l 278 364 l 510 364 q 553 355 534 364 q 584 330 572 346 q 600 291 596 313 q 599 243 604 269 l 547 0 l 663 0 z "},"L":{"ha":690,"x_min":83,"x_max":673,"o":"m 347 304 q 345 291 345 297 q 345 277 345 284 q 374 272 358 272 l 633 272 l 631 265 l 673 208 l 611 -86 l 355 -86 q 261 -67 302 -86 q 192 -8 219 -48 l 170 21 q 143 50 155 34 q 110 243 83 130 l 269 1002 l 441 1002 l 440 994 l 482 937 l 347 304 m 547 0 l 599 243 l 368 243 q 325 252 344 243 q 293 278 305 262 q 277 316 281 294 q 278 364 273 338 l 407 972 l 292 972 l 138 243 q 167 71 115 142 q 315 0 219 0 l 547 0 z "},"M":{"ha":1268,"x_min":52,"x_max":1373,"o":"m 58 -29 l 52 -29 l 212 729 q 329 921 235 842 q 529 1002 422 1002 l 597 1002 q 709 972 661 1002 q 782 889 757 942 l 793 876 q 906 968 842 935 q 1036 1002 969 1002 l 1105 1002 q 1271 921 1213 1002 q 1283 903 1277 911 q 1293 885 1289 895 l 1310 860 l 1310 861 l 1314 859 q 1349 668 1373 779 l 1189 -86 l 1025 -86 l 982 -29 l 975 -29 l 1109 607 q 1112 623 1112 615 q 1112 639 1112 631 q 1098 642 1105 640 q 1088 643 1092 643 l 972 643 q 935 635 953 643 q 901 615 916 628 q 876 585 886 603 q 861 547 865 568 l 726 -86 l 562 -86 l 519 -29 l 514 -29 l 648 607 q 652 639 654 625 q 639 642 645 640 q 627 643 633 643 l 510 643 q 474 635 492 643 q 441 614 456 627 q 415 584 426 602 q 400 547 404 566 l 265 -86 l 102 -86 l 58 -29 m 1124 0 l 1279 729 q 1282 822 1290 780 q 1249 900 1274 864 q 1185 954 1221 936 q 1100 972 1148 972 l 1031 972 q 956 961 993 972 q 886 928 919 949 q 824 876 852 906 q 777 807 796 845 q 758 876 772 845 q 718 928 743 906 q 662 961 694 949 q 591 972 629 972 l 522 972 q 345 900 429 972 q 240 729 261 829 l 85 0 l 200 0 l 329 607 q 349 654 335 632 q 382 693 363 677 q 424 720 401 710 q 471 729 447 729 l 587 729 q 631 720 612 729 q 662 694 650 710 q 677 655 673 677 q 675 607 681 633 l 547 0 l 663 0 l 791 607 q 810 655 797 633 q 843 694 824 677 q 886 720 863 710 q 933 729 909 729 l 1048 729 q 1091 720 1072 729 q 1122 693 1110 710 q 1138 654 1134 677 q 1137 607 1143 632 l 1008 0 l 1124 0 z "},"N":{"ha":806,"x_min":52,"x_max":899,"o":"m 58 -29 l 52 -29 l 212 729 q 328 921 235 841 q 529 1002 420 1002 l 644 1002 q 741 982 699 1002 q 811 922 782 963 q 822 905 817 913 q 831 889 827 897 l 852 860 q 891 772 882 820 q 888 668 899 725 l 726 -86 l 562 -86 l 519 -29 l 514 -29 l 648 607 q 652 639 654 625 q 639 642 645 640 q 627 643 633 643 l 510 643 q 474 635 492 643 q 441 614 456 627 q 415 584 426 602 q 400 547 404 566 l 265 -86 l 102 -86 l 58 -29 m 663 0 l 818 729 q 787 901 837 831 q 725 955 762 937 q 637 972 688 972 l 522 972 q 345 900 427 972 q 276 822 302 864 q 240 729 251 780 l 85 0 l 200 0 l 329 607 q 349 654 335 632 q 382 693 363 677 q 424 720 401 710 q 471 729 447 729 l 587 729 q 631 720 612 729 q 662 694 650 710 q 677 655 673 677 q 675 607 681 633 l 547 0 l 663 0 z "},"O":{"ha":806,"x_min":82,"x_max":910,"o":"m 648 607 q 651 623 651 615 q 650 639 651 631 q 638 642 644 640 q 627 643 632 643 l 510 643 q 474 635 492 643 q 441 614 456 627 q 415 584 426 602 q 400 547 404 566 l 347 304 q 345 291 345 297 q 345 278 345 284 q 359 274 352 276 q 374 272 366 272 l 490 272 q 526 279 509 272 q 558 299 544 286 q 583 328 573 311 q 597 364 593 345 l 648 607 m 170 21 q 143 50 155 34 q 110 243 82 130 l 212 729 q 328 921 235 841 q 529 1002 420 1002 l 644 1002 q 810 921 752 1002 q 821 903 816 911 q 831 885 827 895 l 848 860 l 848 861 l 851 859 q 888 668 910 780 l 783 182 q 744 78 772 125 q 669 -8 715 31 q 574 -67 623 -48 q 471 -86 526 -86 l 355 -86 q 261 -67 303 -86 q 192 -8 219 -48 l 170 21 m 714 243 l 818 729 q 786 900 837 829 q 723 954 760 936 q 637 972 686 972 l 522 972 q 345 900 427 972 q 276 822 302 864 q 240 729 251 780 l 138 243 q 167 71 114 143 q 231 18 193 35 q 315 0 269 0 l 432 0 q 525 18 481 0 q 610 71 569 35 q 714 243 693 142 m 625 364 q 606 316 619 338 q 573 278 592 294 q 531 252 554 262 q 484 243 508 243 l 368 243 q 326 252 345 243 q 294 278 307 262 q 277 317 282 295 q 278 364 273 339 l 329 607 q 349 654 335 632 q 382 693 363 677 q 424 720 401 710 q 471 729 447 729 l 587 729 q 630 720 612 729 q 661 693 649 710 q 677 654 673 677 q 675 607 681 632 l 625 364 z "},"P":{"ha":806,"x_min":52,"x_max":910,"o":"m 597 643 l 419 643 l 406 576 l 526 576 q 550 581 538 576 q 571 594 562 586 q 588 614 581 603 q 597 637 595 625 l 597 643 m 58 -29 l 52 -29 l 269 1002 l 644 1002 q 810 921 752 1002 q 821 903 816 911 q 831 885 827 895 l 848 860 l 848 861 l 851 859 q 888 668 910 780 l 873 607 q 833 505 862 551 q 758 418 804 458 q 561 339 666 339 l 354 339 l 265 -86 l 102 -86 l 58 -29 m 804 668 l 818 729 q 786 900 837 829 q 723 954 760 936 q 637 972 686 972 l 292 972 l 85 0 l 200 0 l 290 425 l 521 425 q 614 444 570 425 q 700 497 659 462 q 767 575 741 533 q 804 668 793 618 m 627 637 q 612 602 623 618 q 586 574 601 586 q 554 554 572 562 q 519 547 537 547 l 317 547 l 355 729 l 558 729 q 590 722 576 729 q 614 702 604 715 q 627 673 623 690 q 627 637 630 656 z "},"Q":{"ha":806,"x_min":96,"x_max":910,"o":"m 648 607 q 651 623 651 615 q 650 639 651 631 q 638 642 644 640 q 627 643 632 643 l 510 643 q 474 635 492 643 q 441 614 456 627 q 415 584 426 602 q 400 547 404 566 l 347 304 q 345 291 345 297 q 345 278 345 284 q 359 274 352 276 q 374 272 366 272 l 490 272 q 526 279 509 272 q 558 299 544 286 q 583 328 573 311 q 597 364 593 345 l 648 607 m 500 -86 q 528 -93 512 -93 l 671 -93 l 669 -100 l 713 -157 l 648 -452 l 510 -452 q 345 -374 403 -452 l 322 -343 q 310 -330 316 -337 q 296 -315 303 -323 q 259 -227 267 -275 q 264 -122 252 -180 l 273 -72 q 193 -8 222 -54 l 170 20 q 156 34 162 26 q 144 50 151 41 q 105 138 114 90 q 110 243 96 186 l 212 729 q 329 921 235 842 q 529 1002 422 1002 l 644 1002 q 810 921 752 1002 q 821 903 816 911 q 831 885 827 895 l 851 859 q 888 668 910 780 l 783 182 q 744 78 772 125 q 669 -8 715 31 q 586 -62 629 -43 q 498 -85 543 -81 l 500 -86 m 585 -366 l 636 -122 l 521 -122 q 477 -113 496 -122 q 446 -87 458 -103 q 430 -48 434 -71 q 432 0 426 -26 q 525 18 481 0 q 610 71 569 35 q 714 243 693 142 l 818 729 q 786 900 837 829 q 723 954 760 936 q 637 972 686 972 l 522 972 q 345 900 429 972 q 240 729 261 829 l 138 243 q 134 150 126 193 q 168 71 142 106 q 315 0 220 0 l 290 -122 q 321 -294 270 -225 q 469 -366 370 -366 l 585 -366 m 625 364 q 606 316 619 338 q 573 278 592 294 q 531 252 554 262 q 484 243 508 243 l 368 243 q 326 252 345 243 q 294 278 307 262 q 277 317 282 295 q 278 364 273 339 l 329 607 q 349 654 335 632 q 382 693 363 677 q 424 720 401 710 q 471 729 447 729 l 587 729 q 630 720 612 729 q 661 693 649 710 q 677 654 673 677 q 675 607 681 632 l 625 364 z "},"R":{"ha":806,"x_min":52,"x_max":910,"o":"m 597 643 l 419 643 l 406 576 l 526 576 q 550 581 538 576 q 571 594 562 586 q 588 614 581 603 q 597 637 595 625 l 597 643 m 58 -29 l 52 -29 l 269 1002 l 644 1002 q 810 921 752 1002 q 821 903 816 911 q 831 885 827 895 l 851 859 q 888 668 910 780 q 828 531 871 593 q 722 432 785 469 q 726 425 724 429 q 729 418 727 421 l 757 383 q 786 195 810 310 l 726 -86 l 562 -86 l 519 -29 l 514 -29 l 575 256 q 578 296 579 277 q 574 330 578 315 q 553 336 564 334 q 532 339 543 339 l 354 339 l 265 -86 l 102 -86 l 58 -29 m 663 0 l 717 256 q 723 334 726 297 q 706 400 720 370 q 667 451 692 429 q 607 486 642 473 q 682 523 647 499 q 743 578 716 547 q 789 649 770 610 q 818 729 808 687 q 786 900 837 829 q 723 954 760 936 q 637 972 686 972 l 292 972 l 85 0 l 200 0 l 290 425 l 493 425 q 587 374 559 425 q 602 256 616 325 l 547 0 l 663 0 m 627 637 q 612 602 623 618 q 586 574 601 586 q 554 554 572 562 q 519 547 537 547 l 317 547 l 355 729 l 558 729 q 590 722 576 729 q 614 702 604 715 q 627 673 623 690 q 627 637 630 656 z "},"S":{"ha":806,"x_min":52,"x_max":945,"o":"m 463 576 l 468 576 l 554 576 q 650 556 609 576 q 720 496 690 536 q 730 477 726 486 q 741 460 735 468 l 762 432 q 800 346 792 393 q 798 243 808 298 l 783 182 q 668 -7 761 72 q 471 -86 576 -86 l 102 -86 l 58 -29 l 52 -29 l 115 272 l 461 272 q 485 277 473 272 q 506 290 496 281 q 523 310 516 299 q 532 335 530 321 l 533 339 l 446 339 q 283 418 340 339 l 262 444 q 248 459 254 452 q 235 476 241 467 q 199 668 176 557 l 212 729 q 329 921 235 842 q 529 1002 422 1002 l 903 1002 l 901 994 l 945 937 l 880 643 l 539 643 q 513 638 526 643 q 491 624 501 633 q 473 603 480 615 q 463 578 465 591 l 463 576 m 714 243 l 726 304 q 730 397 738 355 q 694 475 722 439 q 633 529 669 511 q 549 547 597 547 l 461 547 q 429 554 444 547 q 406 574 415 562 q 394 602 397 586 q 395 637 391 618 q 409 673 398 656 q 433 702 419 690 q 465 722 448 715 q 500 729 482 729 l 818 729 l 869 972 l 522 972 q 345 900 429 972 q 240 729 261 829 l 228 668 q 224 575 216 618 q 258 497 233 533 q 322 444 286 462 q 406 425 359 425 l 493 425 q 524 418 510 425 q 548 398 538 410 q 560 370 557 386 q 559 335 564 353 q 546 299 556 316 q 521 270 535 283 q 490 250 507 258 q 456 243 473 243 l 138 243 l 85 0 l 432 0 q 610 72 527 0 q 714 243 692 142 z "},"T":{"ha":749,"x_min":178,"x_max":916,"o":"m 183 700 l 178 700 l 241 1002 l 873 1002 l 872 994 l 916 937 l 851 643 l 621 643 l 467 -86 l 302 -86 l 260 -29 l 254 -29 l 396 643 l 227 643 l 183 700 m 790 729 l 840 972 l 264 972 l 212 729 l 443 729 l 288 0 l 403 0 l 558 729 l 790 729 z "},"U":{"ha":806,"x_min":82,"x_max":945,"o":"m 347 304 q 345 291 345 297 q 345 278 345 284 q 359 274 352 276 q 374 272 366 272 l 490 272 q 526 279 509 272 q 558 299 544 286 q 583 328 573 311 q 597 364 593 345 l 733 1002 l 903 1002 l 901 994 l 945 937 l 783 182 q 744 78 772 125 q 669 -8 715 31 q 574 -67 623 -48 q 471 -86 526 -86 l 355 -86 q 261 -67 303 -86 q 192 -8 219 -48 l 170 21 q 143 50 155 34 q 110 243 82 130 l 269 1002 l 441 1002 l 440 994 l 482 937 l 347 304 m 714 243 l 869 972 l 753 972 l 625 364 q 606 316 619 338 q 573 278 592 294 q 531 252 554 262 q 484 243 508 243 l 368 243 q 326 252 345 243 q 294 278 307 262 q 277 317 282 295 q 278 364 273 339 l 407 972 l 292 972 l 138 243 q 167 71 114 143 q 231 18 193 35 q 315 0 269 0 l 432 0 q 525 18 481 0 q 610 71 569 35 q 714 243 693 142 z "},"V":{"ha":806,"x_min":52,"x_max":945,"o":"m 342 272 l 490 272 q 526 279 509 272 q 558 299 544 286 q 583 328 573 311 q 597 364 593 345 l 733 1002 l 903 1002 l 901 994 l 945 937 l 783 182 q 744 78 772 125 q 669 -8 715 31 q 574 -67 623 -48 q 471 -86 526 -86 l 102 -86 l 58 -29 l 52 -29 l 269 1002 l 441 1002 l 440 994 l 482 937 l 342 272 m 714 243 l 869 972 l 753 972 l 625 364 q 606 316 619 338 q 573 278 592 294 q 531 252 554 262 q 484 243 508 243 l 253 243 l 407 972 l 292 972 l 85 0 l 432 0 q 525 18 481 0 q 610 71 569 35 q 714 243 693 142 z "},"W":{"ha":1268,"x_min":96,"x_max":1406,"o":"m 810 304 q 807 291 808 297 q 806 277 806 284 q 836 272 819 272 l 951 272 q 986 279 969 272 q 1018 300 1004 287 q 1044 329 1033 313 q 1059 364 1055 346 l 1193 1002 l 1365 1002 l 1364 994 l 1406 937 l 1246 182 q 1131 -7 1220 71 q 933 -86 1039 -86 l 864 -86 q 768 -66 810 -86 q 700 -8 726 -46 l 669 28 q 666 32 667 30 q 665 33 665 33 q 614 -17 642 5 q 555 -54 586 -39 q 491 -78 524 -69 q 425 -86 458 -86 l 355 -86 q 262 -66 303 -86 q 193 -7 222 -47 l 171 20 q 157 35 163 27 q 144 52 151 42 q 105 139 114 92 q 110 243 96 186 l 269 1002 l 441 1002 l 440 994 l 482 937 l 347 304 q 345 291 345 297 q 345 278 345 284 q 359 274 352 276 q 374 272 366 272 l 490 272 q 526 279 509 272 q 558 299 544 286 q 583 328 573 311 q 597 364 593 345 l 733 1002 l 903 1002 l 901 994 l 945 937 l 810 304 m 1177 243 l 1331 972 l 1215 972 l 1086 364 q 1067 317 1081 339 q 1035 278 1054 295 q 993 252 1016 262 q 946 243 970 243 l 831 243 q 786 252 806 243 q 755 278 767 262 q 739 316 743 294 q 741 364 734 338 l 869 972 l 753 972 l 625 364 q 606 316 619 338 q 573 278 592 294 q 531 252 554 262 q 484 243 508 243 l 368 243 q 326 252 345 243 q 294 278 307 262 q 277 317 282 295 q 278 364 273 339 l 407 972 l 292 972 l 138 243 q 170 72 115 144 q 232 18 195 35 q 315 0 269 0 l 385 0 q 460 12 422 0 q 531 44 497 23 q 592 97 564 66 q 640 165 621 127 q 658 97 643 127 q 697 44 673 66 q 754 12 722 23 q 823 0 786 0 l 893 0 q 1072 72 987 0 q 1177 243 1153 142 z "},"X":{"ha":806,"x_min":52,"x_max":945,"o":"m 578 304 q 576 291 576 297 q 576 278 575 284 q 590 274 583 276 q 606 272 598 272 l 749 272 l 746 265 l 789 208 l 726 -86 l 633 -86 q 493 -35 549 -86 q 479 -21 486 -28 q 469 -7 473 -14 l 446 24 q 438 28 442 26 q 432 35 434 31 q 395 -3 414 15 q 354 -35 376 -20 q 195 -86 275 -86 l 102 -86 l 58 -29 l 52 -29 l 115 272 l 258 272 q 294 279 276 272 q 326 300 311 287 q 352 329 341 313 q 367 364 363 346 l 418 607 q 420 623 420 615 q 419 639 420 631 q 407 642 413 640 q 395 643 401 643 l 256 643 l 212 700 l 205 700 l 269 1002 l 367 1002 q 446 986 409 1002 q 515 942 484 971 l 514 942 q 537 914 526 928 q 555 884 547 900 l 561 875 q 595 910 576 894 q 635 942 613 926 l 633 942 q 721 986 677 971 q 806 1002 764 1002 l 903 1002 l 901 994 l 945 937 l 880 643 l 742 643 q 705 635 723 643 q 672 614 687 627 q 646 584 656 602 q 631 547 635 566 l 578 304 m 663 0 l 714 243 l 599 243 q 556 252 575 243 q 525 278 537 262 q 508 317 513 295 q 510 364 504 339 l 559 607 q 579 654 566 632 q 613 693 593 677 q 655 720 632 710 q 703 729 679 729 l 818 729 l 869 972 l 800 972 q 656 925 724 972 q 546 804 581 878 q 486 925 536 880 q 361 972 435 972 l 292 972 l 240 729 l 355 729 q 399 720 380 729 q 430 693 418 710 q 446 654 442 677 q 444 607 450 632 l 393 364 q 374 317 388 339 q 342 278 361 295 q 300 252 323 262 q 253 243 277 243 l 138 243 l 85 0 l 154 0 q 298 46 230 0 q 362 100 335 70 q 410 168 390 130 q 428 100 413 130 q 468 46 443 70 q 593 0 518 0 l 663 0 z "},"Y":{"ha":806,"x_min":146,"x_max":945,"o":"m 410 596 q 407 582 408 589 q 407 570 406 576 q 421 566 413 568 q 436 564 429 564 l 551 564 q 588 571 570 564 q 620 590 606 578 q 645 620 635 603 q 660 656 656 636 l 733 1002 l 903 1002 l 901 994 l 945 937 l 846 473 q 805 370 834 417 q 732 283 777 322 q 647 230 690 249 q 558 207 604 210 l 496 -86 l 332 -86 l 289 -29 l 283 -29 l 335 218 q 291 244 311 229 q 256 283 271 260 l 233 311 q 219 325 226 317 q 207 342 213 332 q 171 534 146 422 l 269 1002 l 441 1002 l 440 994 l 482 937 l 410 596 m 777 534 l 869 972 l 753 972 l 686 656 q 667 608 681 630 q 635 570 654 586 q 593 544 616 553 q 546 534 570 534 l 431 534 q 388 544 407 534 q 356 570 368 553 q 339 609 343 587 q 340 656 334 631 l 407 972 l 292 972 l 199 534 q 196 441 188 484 q 229 363 204 398 q 378 292 283 292 l 315 0 l 432 0 l 493 292 q 586 309 542 292 q 672 363 630 327 q 777 534 755 433 z "},"Z":{"ha":806,"x_min":52,"x_max":945,"o":"m 481 272 l 749 272 l 746 265 l 789 208 l 726 -86 l 102 -86 l 58 -29 l 52 -29 l 111 254 l 517 643 l 256 643 l 212 700 l 205 700 l 269 1002 l 903 1002 l 901 994 l 945 937 l 885 659 l 481 272 m 663 0 l 714 243 l 311 243 l 818 729 l 869 972 l 292 972 l 240 729 l 646 729 l 138 243 l 85 0 l 663 0 z "},"[":{"ha":518,"x_min":25,"x_max":624,"o":"m 315 150 l 375 150 l 374 143 l 416 86 l 354 -208 l 75 -208 l 33 -151 l 25 -151 l 296 1122 l 582 1122 l 581 1116 l 624 1059 l 561 764 l 446 764 l 315 150 m 290 -122 l 342 121 l 227 121 l 382 850 l 497 850 l 549 1093 l 317 1093 l 60 -122 l 290 -122 z "},"\\":{"ha":675,"x_min":244,"x_max":618,"o":"m 408 -142 l 403 -143 l 244 1054 l 419 1116 l 421 1103 l 461 1050 l 618 -142 l 452 -200 l 408 -142 m 547 -64 l 395 1078 l 277 1036 l 429 -106 l 547 -64 z "},"]":{"ha":518,"x_min":83,"x_max":681,"o":"m 297 821 l 290 821 l 354 1122 l 640 1122 l 639 1116 l 681 1059 l 412 -208 l 132 -208 l 92 -151 l 83 -151 l 147 150 l 262 150 l 393 764 l 339 764 l 297 821 m 349 -122 l 607 1093 l 375 1093 l 325 850 l 440 850 l 285 121 l 170 121 l 118 -122 l 349 -122 z "},"^":{"ha":697,"x_min":158,"x_max":741,"o":"m 168 507 l 158 513 l 468 1002 l 597 1002 l 599 990 l 639 937 l 741 454 l 599 393 l 555 452 l 550 450 l 501 675 l 325 393 l 207 454 l 168 507 m 665 529 l 572 972 l 481 972 l 197 529 l 273 489 l 498 842 l 574 489 l 665 529 z "},"_":{"ha":547,"x_min":0,"x_max":547,"o":"m 0 0 l 0 121 l 547 121 l 547 0 l 0 0 z "},"`":{"ha":390,"x_min":250,"x_max":492,"o":"m 332 772 l 325 772 l 250 1002 l 408 1002 l 410 990 l 450 937 l 492 715 l 374 715 l 332 772 m 416 802 l 383 972 l 292 972 l 347 802 l 416 802 z "},"a":{"ha":806,"x_min":96,"x_max":886,"o":"m 624 486 q 626 503 626 494 q 627 518 627 511 q 613 520 619 519 q 600 521 606 521 l 485 521 q 448 513 466 521 q 415 493 430 506 q 389 463 399 480 q 374 425 378 445 l 347 304 q 345 291 345 297 q 345 278 345 284 q 359 274 352 276 q 374 272 366 272 l 490 272 q 526 279 508 272 q 558 300 543 287 q 583 329 572 313 q 597 364 593 346 l 624 486 m 171 20 q 157 35 163 27 q 144 52 151 42 q 105 139 114 92 q 110 243 96 186 l 186 607 q 227 712 197 665 q 304 800 257 760 q 503 879 397 879 l 618 879 q 714 860 673 879 q 785 802 755 842 q 796 784 791 793 q 804 766 801 776 l 828 737 q 861 547 886 659 l 726 -86 l 562 -86 l 550 -69 q 511 -82 531 -79 q 471 -86 492 -86 l 355 -86 q 262 -66 303 -86 q 193 -7 222 -47 l 171 20 m 663 0 l 791 607 q 761 781 813 710 q 698 833 735 817 q 612 850 661 850 l 497 850 q 318 779 401 850 q 251 701 277 743 q 214 607 224 658 l 138 243 q 170 72 115 144 q 232 18 195 35 q 315 0 269 0 l 432 0 q 471 4 452 0 q 510 20 491 9 q 564 82 555 43 l 547 0 l 663 0 m 625 364 q 606 317 619 339 q 573 278 592 295 q 531 252 554 262 q 484 243 508 243 l 368 243 q 326 252 345 243 q 294 278 307 262 q 277 317 282 295 q 278 364 273 339 l 304 486 q 323 533 309 511 q 356 572 337 555 q 398 597 375 588 q 444 607 420 607 l 559 607 q 604 598 585 607 q 635 572 623 589 q 652 534 648 556 q 650 486 656 512 l 625 364 z "},"b":{"ha":806,"x_min":83,"x_max":873,"o":"m 624 486 q 626 503 626 494 q 625 518 627 511 q 612 520 618 519 q 600 521 606 521 l 485 521 q 448 513 466 521 q 415 493 430 506 q 389 463 399 480 q 374 425 378 445 l 347 304 q 345 291 345 297 q 345 277 345 284 q 374 272 358 272 l 490 272 q 526 279 508 272 q 558 300 543 287 q 583 329 572 313 q 597 364 593 346 l 624 486 m 469 876 q 486 879 478 878 q 503 879 494 879 l 618 879 q 783 800 725 879 q 795 781 789 791 q 804 762 801 772 l 827 736 q 865 650 856 697 q 861 547 873 602 l 783 182 q 668 -7 761 72 q 471 -86 576 -86 l 355 -86 q 261 -67 302 -86 q 192 -8 219 -48 l 170 21 q 143 50 155 34 q 110 243 83 130 l 283 1063 l 454 1063 l 452 1054 l 496 997 l 469 876 m 714 243 l 791 607 q 794 701 802 658 q 760 779 785 743 q 612 850 708 850 l 497 850 q 457 845 477 850 q 418 831 437 841 q 383 804 397 819 q 364 770 370 788 l 421 1034 l 306 1034 l 138 243 q 167 71 115 142 q 315 0 219 0 l 432 0 q 610 72 527 0 q 714 243 692 142 m 625 364 q 606 317 619 339 q 573 278 592 295 q 531 252 554 262 q 484 243 508 243 l 368 243 q 325 252 344 243 q 293 278 305 262 q 277 316 281 294 q 278 364 273 338 l 304 486 q 323 533 309 511 q 356 572 337 555 q 398 597 375 588 q 444 607 420 607 l 559 607 q 603 597 584 607 q 635 572 623 588 q 651 533 647 555 q 650 486 656 511 l 625 364 z "},"c":{"ha":806,"x_min":96,"x_max":918,"o":"m 347 304 q 345 291 345 297 q 345 278 345 284 q 359 274 352 276 q 374 272 366 272 l 749 272 l 746 265 l 789 208 l 726 -86 l 355 -86 q 262 -66 303 -86 q 193 -7 222 -47 l 171 20 q 157 35 163 27 q 144 52 151 42 q 105 139 114 92 q 110 243 96 186 l 186 607 q 227 712 197 665 q 304 800 257 760 q 503 879 397 879 l 878 879 l 876 872 l 918 815 l 856 521 l 485 521 q 448 513 466 521 q 415 493 430 506 q 389 463 399 480 q 374 425 378 445 l 347 304 m 663 0 l 714 243 l 368 243 q 326 252 345 243 q 294 278 307 262 q 277 317 282 295 q 278 364 273 339 l 304 486 q 323 533 309 511 q 356 572 337 555 q 398 597 375 588 q 444 607 420 607 l 791 607 l 843 850 l 497 850 q 318 779 401 850 q 251 701 277 743 q 214 607 224 658 l 138 243 q 170 72 115 144 q 232 18 195 35 q 315 0 269 0 l 663 0 z "},"d":{"ha":806,"x_min":96,"x_max":957,"o":"m 624 486 q 626 503 626 494 q 625 518 627 511 q 612 520 618 519 q 600 521 606 521 l 485 521 q 448 513 466 521 q 415 493 430 506 q 389 463 399 480 q 374 425 378 445 l 347 304 q 345 291 345 297 q 345 278 345 284 q 359 274 352 276 q 374 272 366 272 l 490 272 q 526 279 509 272 q 558 299 544 286 q 583 328 573 311 q 597 364 593 345 l 624 486 m 171 20 q 157 35 163 27 q 144 52 151 42 q 105 139 114 92 q 110 243 96 186 l 186 607 q 227 712 197 665 q 304 800 257 760 q 503 879 397 879 l 618 879 q 660 874 639 879 q 703 857 682 869 l 746 1063 l 917 1063 l 914 1054 l 957 997 l 783 182 q 744 78 772 125 q 669 -8 715 31 q 574 -67 623 -48 q 471 -86 526 -86 l 355 -86 q 262 -66 303 -86 q 193 -7 222 -47 l 171 20 m 714 243 l 882 1034 l 766 1034 l 711 770 q 707 804 713 788 q 682 831 700 819 q 650 845 669 841 q 612 850 632 850 l 497 850 q 318 779 401 850 q 251 701 277 743 q 214 607 224 658 l 138 243 q 170 72 115 144 q 232 18 195 35 q 315 0 269 0 l 432 0 q 525 18 481 0 q 610 71 569 35 q 714 243 693 142 m 625 364 q 606 316 619 338 q 573 278 592 294 q 531 252 554 262 q 484 243 508 243 l 368 243 q 326 252 345 243 q 294 278 307 262 q 277 317 282 295 q 278 364 273 339 l 304 486 q 323 533 309 511 q 356 572 337 555 q 398 597 375 588 q 444 607 420 607 l 559 607 q 603 597 584 607 q 635 572 623 588 q 651 533 647 555 q 650 486 656 511 l 625 364 z "},"e":{"ha":806,"x_min":96,"x_max":918,"o":"m 346 278 q 359 273 352 275 q 374 272 366 272 l 749 272 l 746 265 l 789 208 l 726 -86 l 355 -86 q 262 -66 303 -86 q 193 -7 222 -47 l 171 20 q 157 35 163 27 q 144 52 151 42 q 105 139 114 92 q 110 243 96 186 l 186 607 q 227 712 197 665 q 304 800 257 760 q 503 879 397 879 l 878 879 l 876 872 l 918 815 l 856 521 l 485 521 q 468 520 475 521 q 452 515 460 519 l 685 515 l 684 509 l 725 452 l 689 278 l 346 278 m 663 0 l 714 243 l 368 243 q 326 252 345 243 q 294 278 307 262 q 277 317 282 295 q 278 364 273 339 l 625 364 l 650 486 l 304 486 q 323 533 309 511 q 356 572 337 555 q 398 597 375 588 q 444 607 420 607 l 791 607 l 843 850 l 497 850 q 318 779 401 850 q 251 701 277 743 q 214 607 224 658 l 138 243 q 170 72 115 144 q 232 18 195 35 q 315 0 269 0 l 663 0 z "},"f":{"ha":661,"x_min":52,"x_max":842,"o":"m 58 -29 l 52 -29 l 225 790 q 266 895 237 848 q 342 983 295 943 q 542 1063 433 1063 l 802 1063 l 799 1054 l 842 997 l 779 704 l 524 704 q 486 696 504 704 q 452 676 467 689 q 427 646 437 663 q 412 607 416 628 l 406 576 l 582 576 l 579 568 l 623 511 l 586 339 l 354 339 l 265 -86 l 102 -86 l 58 -29 m 714 790 l 766 1034 l 536 1034 q 443 1016 487 1034 q 355 962 398 998 q 253 790 273 891 l 85 0 l 200 0 l 290 425 l 521 425 l 549 547 l 317 547 l 343 668 q 361 716 348 694 q 394 755 375 739 q 436 781 412 771 q 484 790 459 790 l 714 790 z "},"g":{"ha":806,"x_min":96,"x_max":886,"o":"m 624 486 q 626 503 626 494 q 625 518 627 511 q 612 520 618 519 q 600 521 606 521 l 485 521 q 448 513 466 521 q 415 493 430 506 q 389 463 399 480 q 374 425 378 445 l 347 304 q 345 291 345 297 q 345 278 345 284 q 359 274 352 276 q 374 272 366 272 l 490 272 q 526 279 509 272 q 558 299 544 286 q 583 328 573 311 q 597 364 593 345 l 624 486 m 171 20 q 157 35 163 27 q 144 52 151 42 q 105 139 114 92 q 110 243 96 186 l 186 607 q 227 712 197 665 q 304 800 257 760 q 503 879 397 879 l 618 879 q 714 860 673 879 q 785 802 755 842 q 796 784 791 793 q 804 766 801 776 l 828 737 q 861 547 886 659 l 705 -182 q 591 -374 684 -295 q 496 -432 545 -412 q 393 -452 448 -452 l 254 -452 l 211 -395 l 205 -395 l 269 -93 l 412 -93 q 428 -91 420 -93 q 444 -86 436 -90 l 355 -86 q 262 -66 303 -86 q 193 -7 222 -47 l 171 20 m 636 -122 l 791 607 q 761 781 813 710 q 698 833 735 817 q 612 850 661 850 l 497 850 q 318 779 401 850 q 251 701 277 743 q 214 607 224 658 l 138 243 q 170 72 115 144 q 232 18 195 35 q 315 0 269 0 l 432 0 q 471 4 452 0 q 510 20 491 9 q 564 82 555 43 l 547 0 q 528 -48 541 -26 q 495 -87 514 -71 q 453 -113 476 -103 q 406 -122 430 -122 l 290 -122 l 237 -366 l 354 -366 q 533 -294 450 -366 q 600 -216 574 -259 q 636 -122 626 -174 m 625 364 q 606 316 619 338 q 573 278 592 294 q 531 252 554 262 q 484 243 508 243 l 368 243 q 326 252 345 243 q 294 278 307 262 q 277 317 282 295 q 278 364 273 339 l 304 486 q 323 533 309 511 q 356 572 337 555 q 398 597 375 588 q 444 607 420 607 l 559 607 q 603 597 584 607 q 635 572 623 588 q 651 533 647 555 q 650 486 656 511 l 625 364 z "},"h":{"ha":806,"x_min":52,"x_max":873,"o":"m 469 876 q 486 879 478 878 q 503 879 494 879 l 618 879 q 783 800 725 879 q 795 781 789 791 q 804 762 801 772 l 827 736 q 865 650 856 697 q 861 547 873 602 l 726 -86 l 562 -86 l 519 -29 l 514 -29 l 624 486 q 626 503 626 494 q 625 518 627 511 q 612 520 618 519 q 600 521 606 521 l 485 521 q 448 513 466 521 q 415 493 430 506 q 389 463 399 480 q 374 425 378 445 l 265 -86 l 102 -86 l 58 -29 l 52 -29 l 283 1063 l 454 1063 l 452 1054 l 496 997 l 469 876 m 663 0 l 791 607 q 794 701 802 658 q 760 779 785 743 q 612 850 708 850 l 497 850 q 457 845 477 850 q 418 831 437 841 q 382 804 396 819 q 364 770 368 788 l 421 1034 l 306 1034 l 85 0 l 200 0 l 304 486 q 323 533 309 511 q 356 572 337 555 q 398 597 375 588 q 444 607 420 607 l 559 607 q 603 597 584 607 q 635 572 623 588 q 651 533 647 555 q 650 486 656 511 l 547 0 l 663 0 z "},"i":{"ha":345,"x_min":52,"x_max":457,"o":"m 58 -29 l 52 -29 l 244 879 l 415 879 l 414 872 l 457 815 l 265 -86 l 102 -86 l 58 -29 m 200 0 l 382 850 l 267 850 l 85 0 l 200 0 z "},"j":{"ha":575,"x_min":-26,"x_max":688,"o":"m 187 578 l 179 578 l 244 879 l 646 879 l 646 872 l 688 815 l 475 -182 q 361 -374 453 -295 q 266 -432 315 -412 q 163 -452 217 -452 l 24 -452 l -20 -395 l -26 -395 l 37 -93 l 180 -93 q 217 -86 199 -93 q 249 -66 235 -79 q 274 -37 264 -54 q 289 0 285 -20 l 400 521 l 229 521 l 187 578 m 406 -122 l 612 850 l 267 850 l 214 607 l 444 607 l 315 0 q 296 -48 310 -26 q 264 -87 283 -71 q 222 -113 245 -103 q 175 -122 199 -122 l 60 -122 l 7 -366 l 122 -366 q 217 -348 173 -366 q 302 -294 261 -330 q 369 -216 343 -259 q 406 -122 395 -174 z "},"k":{"ha":806,"x_min":52,"x_max":918,"o":"m 406 576 l 554 576 q 591 584 573 576 q 623 603 608 591 q 648 632 637 615 q 663 668 659 648 l 707 879 l 878 879 l 876 872 l 918 815 l 869 583 q 815 460 854 517 q 720 366 776 403 l 742 338 q 779 250 769 300 q 777 146 788 201 l 726 -86 l 562 -86 l 519 -29 l 514 -29 l 558 182 q 561 198 560 191 q 559 214 562 206 q 548 217 554 215 q 536 218 543 218 l 329 218 l 265 -86 l 102 -86 l 58 -29 l 52 -29 l 283 1063 l 454 1063 l 452 1054 l 496 997 l 406 576 m 663 0 l 705 207 q 711 274 713 241 q 699 336 709 307 q 670 387 688 364 q 625 425 651 410 q 686 463 658 440 q 738 514 715 486 q 776 576 760 543 q 800 644 792 609 l 843 850 l 728 850 l 689 668 q 670 620 684 642 q 638 582 656 598 q 596 556 619 566 q 549 547 573 547 l 317 547 l 421 1034 l 306 1034 l 85 0 l 200 0 l 265 304 l 496 304 q 539 295 520 304 q 570 269 558 286 q 587 231 583 253 q 586 182 591 208 l 547 0 l 663 0 z "},"l":{"ha":431,"x_min":83,"x_max":496,"o":"m 347 304 q 345 293 346 298 q 345 285 345 289 q 403 272 368 272 l 400 265 l 441 208 l 385 -61 l 355 -86 q 261 -67 302 -86 q 192 -8 219 -48 l 170 21 q 143 50 155 34 q 110 243 83 130 l 283 1063 l 454 1063 l 452 1054 l 496 997 l 347 304 m 315 0 l 368 243 q 325 252 344 243 q 293 278 305 262 q 277 316 281 294 q 278 364 273 338 l 421 1034 l 306 1034 l 138 243 q 167 71 115 142 q 315 0 219 0 z "},"m":{"ha":1268,"x_min":52,"x_max":1335,"o":"m 58 -29 l 52 -29 l 186 607 q 227 712 197 665 q 304 800 257 760 q 503 879 397 879 l 572 879 q 684 850 635 879 q 755 768 732 821 l 768 754 q 880 846 817 813 q 1011 879 944 879 l 1080 879 q 1246 800 1187 879 q 1258 781 1252 791 q 1267 762 1263 772 l 1284 739 l 1283 741 l 1287 736 q 1326 650 1317 697 q 1324 547 1335 602 l 1189 -86 l 1025 -86 l 982 -29 l 975 -29 l 1083 486 q 1086 518 1088 504 q 1073 520 1080 519 q 1063 521 1067 521 l 947 521 q 909 514 928 521 q 876 494 891 507 q 850 464 861 481 q 835 425 840 446 l 726 -86 l 562 -86 l 519 -29 l 514 -29 l 624 486 q 626 503 626 494 q 627 518 627 511 q 613 520 619 519 q 600 521 606 521 l 485 521 q 448 513 466 521 q 415 493 430 506 q 389 463 399 480 q 374 425 378 445 l 265 -86 l 102 -86 l 58 -29 m 1124 0 l 1253 607 q 1256 701 1264 658 q 1221 779 1248 743 q 1074 850 1171 850 l 1006 850 q 931 838 968 850 q 860 805 894 827 q 799 753 827 784 q 751 685 770 723 q 733 753 748 723 q 693 805 718 784 q 636 838 669 827 q 567 850 604 850 l 497 850 q 318 779 401 850 q 251 701 277 743 q 214 607 224 658 l 85 0 l 200 0 l 304 486 q 323 533 309 511 q 356 572 337 555 q 398 597 375 588 q 444 607 420 607 l 559 607 q 604 598 585 607 q 635 572 623 589 q 652 534 648 556 q 650 486 656 512 l 547 0 l 663 0 l 765 486 q 785 534 771 512 q 817 572 798 556 q 859 598 836 589 q 907 607 882 607 l 1022 607 q 1065 597 1046 607 q 1097 572 1084 588 q 1113 533 1109 555 q 1112 486 1118 511 l 1008 0 l 1124 0 z "},"n":{"ha":806,"x_min":52,"x_max":886,"o":"m 58 -29 l 52 -29 l 186 607 q 227 712 197 665 q 302 800 256 760 q 503 879 395 879 l 618 879 q 714 860 673 879 q 785 802 755 842 q 796 784 791 793 q 804 766 801 776 l 828 737 q 861 547 886 659 l 726 -86 l 562 -86 l 519 -29 l 514 -29 l 624 486 q 626 503 626 494 q 627 518 627 511 q 613 520 619 519 q 600 521 606 521 l 485 521 q 448 513 466 521 q 415 493 430 506 q 389 463 399 480 q 374 425 378 445 l 265 -86 l 102 -86 l 58 -29 m 663 0 l 791 607 q 761 781 813 710 q 698 833 735 817 q 612 850 661 850 l 497 850 q 317 779 401 850 q 214 607 235 707 l 85 0 l 200 0 l 304 486 q 323 533 309 511 q 356 572 337 555 q 398 597 375 588 q 444 607 420 607 l 559 607 q 604 598 585 607 q 635 572 623 589 q 652 534 648 556 q 650 486 656 512 l 547 0 l 663 0 z "},"o":{"ha":806,"x_min":82,"x_max":873,"o":"m 624 486 q 626 503 626 494 q 625 518 627 511 q 612 520 618 519 q 600 521 606 521 l 485 521 q 448 513 466 521 q 415 493 430 506 q 389 463 399 480 q 374 425 378 445 l 347 304 q 345 291 345 297 q 345 278 345 284 q 359 274 352 276 q 374 272 366 272 l 490 272 q 526 279 509 272 q 558 299 544 286 q 583 328 573 311 q 597 364 593 345 l 624 486 m 170 21 q 143 50 155 34 q 110 243 82 130 l 186 607 q 227 712 197 665 q 302 800 256 760 q 503 879 395 879 l 618 879 q 783 800 725 879 q 795 781 789 791 q 804 762 801 772 l 822 739 l 821 741 l 827 736 q 865 650 856 697 q 861 547 873 602 l 783 182 q 744 78 772 125 q 669 -8 715 31 q 574 -67 623 -48 q 471 -86 526 -86 l 355 -86 q 261 -67 303 -86 q 192 -8 219 -48 l 170 21 m 714 243 l 791 607 q 794 701 802 658 q 760 779 785 743 q 612 850 708 850 l 497 850 q 317 779 401 850 q 214 607 235 707 l 138 243 q 167 71 114 143 q 231 18 193 35 q 315 0 269 0 l 432 0 q 525 18 481 0 q 610 71 569 35 q 714 243 693 142 m 625 364 q 606 316 619 338 q 573 278 592 294 q 531 252 554 262 q 484 243 508 243 l 368 243 q 326 252 345 243 q 294 278 307 262 q 277 317 282 295 q 278 364 273 339 l 304 486 q 323 533 309 511 q 356 572 337 555 q 398 597 375 588 q 444 607 420 607 l 559 607 q 603 597 584 607 q 635 572 623 588 q 651 533 647 555 q 650 486 656 511 l 625 364 z "},"p":{"ha":806,"x_min":-1,"x_max":873,"o":"m 624 486 q 626 503 626 494 q 625 518 627 511 q 612 520 618 519 q 600 521 606 521 l 485 521 q 447 514 465 521 q 414 494 429 507 q 388 464 399 481 q 374 425 378 446 l 347 304 q 345 291 345 297 q 345 278 345 284 q 359 274 352 276 q 374 272 366 272 l 490 272 q 526 279 508 272 q 558 300 543 287 q 583 329 572 313 q 597 364 593 346 l 624 486 m 5 -272 l -1 -272 l 186 607 q 227 713 199 666 q 302 802 256 761 q 399 860 349 842 q 503 879 448 879 l 618 879 q 783 800 725 879 q 795 781 789 791 q 804 762 801 772 l 827 736 q 865 650 856 697 q 861 547 873 602 l 783 182 q 668 -7 761 72 q 471 -86 576 -86 l 355 -86 q 312 -81 332 -86 q 275 -64 291 -75 l 273 -62 q 271 -60 271 -62 l 212 -329 l 49 -329 l 5 -272 m 714 243 l 791 607 q 794 701 802 658 q 760 779 785 743 q 612 850 708 850 l 497 850 q 404 833 448 850 q 317 781 359 817 q 214 607 235 709 l 33 -243 l 149 -243 l 218 82 q 222 47 215 62 q 245 20 229 31 q 278 4 261 9 q 315 0 296 0 l 432 0 q 610 72 527 0 q 714 243 692 142 m 625 364 q 606 317 619 339 q 573 278 592 295 q 531 252 554 262 q 484 243 508 243 l 368 243 q 326 252 345 243 q 294 278 307 262 q 277 317 282 295 q 278 364 273 339 l 304 486 q 323 534 309 512 q 355 572 336 556 q 397 598 374 589 q 444 607 420 607 l 559 607 q 603 597 584 607 q 635 572 623 588 q 651 533 647 555 q 650 486 656 511 l 625 364 z "},"q":{"ha":806,"x_min":96,"x_max":886,"o":"m 624 486 q 626 503 626 494 q 627 518 627 511 q 613 520 619 519 q 600 521 606 521 l 485 521 q 448 513 466 521 q 415 493 430 506 q 389 463 399 480 q 374 425 378 445 l 347 304 q 345 291 345 297 q 345 278 345 284 q 359 274 352 276 q 374 272 366 272 l 490 272 q 526 279 508 272 q 558 300 543 287 q 583 329 572 313 q 597 364 593 346 l 624 486 m 171 20 q 157 35 163 27 q 144 52 151 42 q 105 139 114 92 q 110 243 96 186 l 186 607 q 227 712 197 665 q 304 800 257 760 q 503 879 397 879 l 618 879 q 714 860 673 879 q 785 802 755 842 q 796 784 791 793 q 804 766 801 776 l 823 741 l 823 742 l 828 737 q 861 547 886 659 l 675 -329 l 510 -329 l 468 -272 l 461 -272 l 501 -83 q 486 -85 493 -85 q 471 -86 478 -86 l 355 -86 q 262 -66 303 -86 q 193 -7 222 -47 l 171 20 m 610 -243 l 791 607 q 761 781 813 710 q 698 833 735 817 q 612 850 661 850 l 497 850 q 318 779 401 850 q 251 701 277 743 q 214 607 224 658 l 138 243 q 170 72 115 144 q 232 18 195 35 q 315 0 269 0 l 432 0 q 471 4 452 0 q 510 20 491 9 q 564 82 555 43 l 494 -243 l 610 -243 m 625 364 q 606 317 619 339 q 573 278 592 295 q 531 252 554 262 q 484 243 508 243 l 368 243 q 326 252 345 243 q 294 278 307 262 q 277 317 282 295 q 278 364 273 339 l 304 486 q 323 533 309 511 q 356 572 337 555 q 398 597 375 588 q 444 607 420 607 l 559 607 q 604 598 585 607 q 635 572 623 589 q 652 534 648 556 q 650 486 656 512 l 625 364 z "},"r":{"ha":661,"x_min":52,"x_max":803,"o":"m 58 -29 l 52 -29 l 244 879 l 415 879 l 414 872 l 422 861 q 503 879 463 879 l 762 879 l 761 872 l 803 815 l 741 521 l 485 521 q 448 513 466 521 q 415 493 430 506 q 389 463 399 480 q 374 425 378 445 l 265 -86 l 102 -86 l 58 -29 m 675 607 l 728 850 l 497 850 q 457 845 477 850 q 418 831 437 841 q 383 804 397 819 q 364 770 370 788 l 382 850 l 267 850 l 85 0 l 200 0 l 304 486 q 323 533 309 511 q 356 572 337 555 q 398 597 375 588 q 444 607 420 607 l 675 607 z "},"s":{"ha":806,"x_min":52,"x_max":918,"o":"m 485 521 q 464 515 471 521 l 541 515 q 705 435 648 515 q 718 417 712 425 q 728 399 724 408 l 745 374 l 745 375 l 749 372 q 787 286 778 332 q 783 182 796 239 q 668 -7 761 72 q 471 -86 576 -86 l 102 -86 l 58 -29 l 52 -29 l 115 272 l 490 272 q 499 274 494 272 q 510 278 503 276 l 433 278 q 339 298 381 278 q 269 357 298 318 l 249 383 q 235 398 241 391 q 222 415 229 406 q 186 607 162 496 q 227 712 197 665 q 304 800 257 760 q 503 879 397 879 l 878 879 l 876 872 l 918 815 l 856 521 l 485 521 m 714 243 q 682 414 734 343 q 620 468 656 450 q 534 486 583 486 l 419 486 q 398 491 408 486 q 383 504 389 496 q 375 524 377 513 q 375 547 372 535 q 385 570 378 559 q 400 589 391 581 q 421 602 410 597 q 444 607 432 607 l 791 607 l 843 850 l 497 850 q 318 779 401 850 q 251 701 277 743 q 214 607 224 658 q 245 436 193 508 q 393 364 299 364 l 510 364 q 546 346 533 364 q 554 304 559 328 q 529 260 549 278 q 484 243 509 243 l 138 243 l 85 0 l 432 0 q 610 72 527 0 q 714 243 692 142 z "},"t":{"ha":661,"x_min":83,"x_max":688,"o":"m 347 304 q 345 291 345 297 q 345 277 345 284 q 374 272 358 272 l 633 272 l 631 265 l 673 208 l 611 -86 l 355 -86 q 261 -67 302 -86 q 192 -8 219 -48 l 170 21 q 143 50 155 34 q 110 243 83 130 l 269 1002 l 441 1002 l 440 994 l 482 937 l 471 879 l 646 879 l 646 872 l 688 815 l 650 643 l 419 643 l 347 304 m 547 0 l 599 243 l 368 243 q 325 252 344 243 q 293 278 305 262 q 277 316 281 294 q 278 364 273 338 l 355 729 l 587 729 l 612 850 l 382 850 l 407 972 l 292 972 l 138 243 q 167 71 115 142 q 315 0 219 0 l 547 0 z "},"u":{"ha":806,"x_min":82,"x_max":918,"o":"m 347 304 q 345 291 345 297 q 345 278 345 284 q 359 274 352 276 q 374 272 366 272 l 490 272 q 526 279 509 272 q 558 299 544 286 q 583 328 573 311 q 597 364 593 345 l 707 879 l 878 879 l 876 872 l 918 815 l 783 182 q 744 78 772 125 q 669 -8 715 31 q 574 -67 623 -48 q 471 -86 526 -86 l 355 -86 q 261 -67 303 -86 q 192 -8 219 -48 l 170 21 q 143 50 155 34 q 110 243 82 130 l 244 879 l 415 879 l 414 872 l 457 815 l 347 304 m 714 243 l 843 850 l 728 850 l 625 364 q 606 316 619 338 q 573 278 592 294 q 531 252 554 262 q 484 243 508 243 l 368 243 q 326 252 345 243 q 294 278 307 262 q 277 317 282 295 q 278 364 273 339 l 382 850 l 267 850 l 138 243 q 167 71 114 143 q 231 18 193 35 q 315 0 269 0 l 432 0 q 525 18 481 0 q 610 71 569 35 q 714 243 693 142 z "},"v":{"ha":806,"x_min":52,"x_max":918,"o":"m 342 272 l 490 272 q 526 279 509 272 q 558 299 544 286 q 583 328 573 311 q 597 364 593 345 l 707 879 l 878 879 l 876 872 l 918 815 l 783 182 q 744 78 772 125 q 669 -8 715 31 q 574 -67 623 -48 q 471 -86 526 -86 l 102 -86 l 58 -29 l 52 -29 l 244 879 l 415 879 l 414 872 l 457 815 l 342 272 m 714 243 l 843 850 l 728 850 l 625 364 q 606 316 619 338 q 573 278 592 294 q 531 252 554 262 q 484 243 508 243 l 253 243 l 382 850 l 267 850 l 85 0 l 432 0 q 525 18 481 0 q 610 71 569 35 q 714 243 693 142 z "},"w":{"ha":1268,"x_min":96,"x_max":1381,"o":"m 810 304 q 807 291 808 297 q 806 277 806 284 q 836 272 819 272 l 951 272 q 986 279 969 272 q 1018 300 1004 287 q 1044 329 1033 313 q 1059 364 1055 346 l 1168 879 l 1339 879 l 1337 872 l 1381 815 l 1246 182 q 1131 -7 1220 71 q 933 -86 1039 -86 l 864 -86 q 768 -66 810 -86 q 700 -8 726 -46 l 669 28 q 666 32 667 30 q 665 33 665 33 q 614 -17 642 5 q 555 -54 586 -39 q 491 -78 524 -69 q 425 -86 458 -86 l 355 -86 q 262 -66 303 -86 q 193 -7 222 -47 l 171 20 q 157 35 163 27 q 144 52 151 42 q 105 139 114 92 q 110 243 96 186 l 244 879 l 415 879 l 414 872 l 457 815 l 347 304 q 345 291 345 297 q 345 278 345 284 q 359 274 352 276 q 374 272 366 272 l 490 272 q 526 279 509 272 q 558 299 544 286 q 583 328 573 311 q 597 364 593 345 l 707 879 l 878 879 l 876 872 l 918 815 l 810 304 m 1177 243 l 1305 850 l 1190 850 l 1086 364 q 1067 317 1081 339 q 1035 278 1054 295 q 993 252 1016 262 q 946 243 970 243 l 831 243 q 786 252 806 243 q 755 278 767 262 q 739 316 743 294 q 741 364 734 338 l 843 850 l 728 850 l 625 364 q 606 316 619 338 q 573 278 592 294 q 531 252 554 262 q 484 243 508 243 l 368 243 q 326 252 345 243 q 294 278 307 262 q 277 317 282 295 q 278 364 273 339 l 382 850 l 267 850 l 138 243 q 170 72 115 144 q 232 18 195 35 q 315 0 269 0 l 385 0 q 460 12 422 0 q 531 44 497 23 q 592 97 564 66 q 640 165 621 127 q 658 97 643 127 q 697 44 673 66 q 754 12 722 23 q 823 0 786 0 l 893 0 q 1072 72 987 0 q 1177 243 1153 142 z "},"x":{"ha":806,"x_min":52,"x_max":918,"o":"m 578 304 q 576 291 576 297 q 576 278 575 284 q 590 274 583 276 q 606 272 598 272 l 749 272 l 746 265 l 789 208 l 726 -86 l 633 -86 q 493 -35 549 -86 q 479 -21 486 -28 q 469 -7 473 -14 l 446 24 q 438 28 442 26 q 432 35 434 31 q 395 -3 414 15 q 354 -35 376 -20 q 195 -86 275 -86 l 102 -86 l 58 -29 l 52 -29 l 115 272 l 258 272 q 294 279 276 272 q 326 300 311 287 q 352 329 341 313 q 367 364 363 346 l 393 486 q 393 518 395 503 q 381 520 387 519 q 370 521 375 521 l 229 521 l 187 578 l 179 578 l 244 879 l 342 879 q 489 821 427 879 l 488 821 q 511 792 500 806 q 529 762 522 778 l 536 753 q 568 789 551 772 q 607 821 586 805 q 781 879 694 879 l 878 879 l 876 872 l 918 815 l 856 521 l 715 521 q 679 513 696 521 q 646 493 661 506 q 620 463 631 480 q 604 425 609 445 l 578 304 m 663 0 l 714 243 l 599 243 q 556 252 575 243 q 525 278 537 262 q 508 317 513 295 q 510 364 504 339 l 534 486 q 554 533 540 511 q 587 572 568 555 q 628 597 606 588 q 675 607 651 607 l 791 607 l 843 850 l 774 850 q 700 838 736 850 q 628 803 663 827 q 566 750 593 780 q 519 684 538 721 q 460 803 511 758 q 335 850 411 850 l 267 850 l 214 607 l 329 607 q 372 597 353 607 q 404 572 391 588 q 420 533 416 555 q 419 486 425 511 l 393 364 q 374 317 388 339 q 342 278 361 295 q 300 252 323 262 q 253 243 277 243 l 138 243 l 85 0 l 154 0 q 298 46 230 0 q 362 100 335 70 q 410 168 390 130 q 428 100 413 130 q 468 46 443 70 q 593 0 518 0 l 663 0 z "},"y":{"ha":806,"x_min":96,"x_max":918,"o":"m 347 304 q 345 291 345 297 q 345 278 345 284 q 359 274 352 276 q 374 272 366 272 l 490 272 q 526 279 509 272 q 558 299 544 286 q 583 328 573 311 q 597 364 593 345 l 707 879 l 878 879 l 876 872 l 918 815 l 705 -182 q 591 -374 684 -295 q 496 -432 545 -412 q 393 -452 448 -452 l 254 -452 l 211 -395 l 205 -395 l 269 -93 l 412 -93 q 428 -91 420 -93 q 444 -86 436 -90 l 355 -86 q 262 -66 303 -86 q 193 -7 222 -47 l 171 20 q 157 35 163 27 q 144 52 151 42 q 105 139 114 92 q 110 243 96 186 l 244 879 l 415 879 l 414 872 l 457 815 l 347 304 m 636 -122 l 843 850 l 728 850 l 625 364 q 606 316 619 338 q 573 278 592 294 q 531 252 554 262 q 484 243 508 243 l 368 243 q 326 252 345 243 q 294 278 307 262 q 277 317 282 295 q 278 364 273 339 l 382 850 l 267 850 l 138 243 q 170 72 115 144 q 232 18 195 35 q 315 0 269 0 l 432 0 q 471 4 452 0 q 510 20 491 9 q 564 82 555 43 l 547 0 q 528 -48 541 -26 q 495 -87 514 -71 q 453 -113 476 -103 q 406 -122 430 -122 l 290 -122 l 237 -366 l 354 -366 q 533 -294 450 -366 q 600 -216 574 -259 q 636 -122 626 -174 z "},"z":{"ha":806,"x_min":52,"x_max":918,"o":"m 533 272 l 749 272 l 746 265 l 789 208 l 726 -86 l 102 -86 l 58 -29 l 52 -29 l 111 254 l 439 521 l 229 521 l 187 578 l 179 578 l 244 879 l 878 879 l 876 872 l 918 815 l 860 538 l 533 272 m 663 0 l 714 243 l 345 243 l 791 607 l 843 850 l 267 850 l 214 607 l 583 607 l 138 243 l 85 0 l 663 0 z "},"{":{"ha":633,"x_min":140,"x_max":739,"o":"m 437 182 q 435 173 436 178 q 435 164 435 168 q 460 154 446 157 q 490 150 475 150 l 490 143 l 532 86 l 475 -182 l 446 -208 q 352 -188 393 -208 q 282 -129 311 -168 l 261 -102 q 247 -87 254 -95 q 235 -71 241 -79 q 195 17 204 -30 q 199 121 186 64 l 244 339 l 191 339 l 149 396 l 140 396 l 179 576 l 296 576 l 354 850 q 395 955 366 907 q 471 1043 424 1002 q 573 1103 517 1083 q 697 1122 629 1122 l 696 1116 l 739 1059 l 676 764 q 630 756 652 764 q 589 736 607 749 q 557 705 570 723 q 541 668 545 688 l 437 182 m 406 -122 l 457 121 q 414 131 433 121 q 384 157 395 140 q 367 196 372 174 q 368 243 363 218 l 471 729 q 490 776 476 754 q 523 814 504 798 q 566 840 543 831 q 612 850 589 850 l 664 1093 q 486 1022 568 1093 q 418 944 444 987 q 382 850 391 901 l 317 547 l 201 547 l 175 425 l 290 425 l 227 121 q 224 28 216 71 q 257 -50 232 -14 q 321 -104 284 -85 q 406 -122 359 -122 z "},"|":{"ha":345,"x_min":25,"x_max":509,"o":"m 33 -151 l 25 -151 l 296 1122 l 467 1122 l 465 1116 l 509 1059 l 239 -208 l 75 -208 l 33 -151 m 175 -122 l 432 1093 l 317 1093 l 60 -122 l 175 -122 z "},"}":{"ha":633,"x_min":83,"x_max":679,"o":"m 578 576 l 640 576 l 637 568 l 679 511 l 643 339 l 528 339 l 469 61 q 353 -129 445 -50 q 253 -188 308 -168 q 132 -208 198 -208 l 92 -151 l 83 -151 l 147 150 q 193 157 170 150 q 234 178 216 165 q 266 208 253 191 q 283 243 279 224 l 386 729 q 387 742 387 735 q 385 755 387 749 q 364 762 375 761 q 339 764 353 764 l 297 821 l 290 821 l 354 1122 q 547 1043 489 1122 q 558 1024 553 1034 q 568 1006 563 1015 l 587 979 q 624 790 646 902 l 578 576 m 579 425 l 607 547 l 490 547 l 555 850 q 524 1022 575 953 q 375 1093 471 1093 l 325 850 q 367 840 348 850 q 398 814 386 831 q 415 776 410 798 q 414 729 419 754 l 311 243 q 291 196 305 218 q 258 157 277 174 q 216 131 239 140 q 170 121 193 121 l 118 -122 q 209 -104 165 -122 q 296 -50 254 -85 q 400 121 378 20 l 464 425 l 579 425 z "},"~":{"ha":714,"x_min":126,"x_max":761,"o":"m 132 326 q 130 325 131 325 q 126 323 128 325 l 161 490 q 264 536 214 522 q 364 551 315 551 q 403 545 382 551 q 450 525 424 538 q 515 503 492 503 q 606 521 555 503 q 721 576 657 540 l 718 566 l 761 509 l 730 364 l 714 343 q 529 290 626 290 q 492 297 513 290 q 443 317 471 304 q 376 339 401 339 q 287 321 336 339 q 176 269 237 304 l 132 326 m 660 425 l 681 522 q 596 486 639 498 q 510 473 554 473 q 433 498 480 473 q 357 522 387 522 q 271 511 313 522 q 186 473 229 499 l 165 376 q 250 413 208 401 q 336 425 292 425 q 370 419 351 425 q 412 401 389 413 q 489 376 458 376 q 576 389 534 376 q 660 425 618 401 z "},"€":{"ha":806,"x_min":96,"x_max":945,"o":"m 346 278 q 359 273 352 275 q 374 272 366 272 l 749 272 l 746 265 l 789 208 l 726 -86 l 355 -86 q 262 -66 303 -86 q 193 -7 222 -47 l 171 20 q 157 35 163 27 q 144 52 151 42 q 105 139 114 92 q 110 243 96 186 l 212 729 q 329 921 235 842 q 529 1002 422 1002 l 903 1002 l 901 994 l 945 937 l 880 643 l 510 643 q 493 641 501 643 q 476 636 486 640 l 710 636 l 708 629 l 751 572 l 722 436 l 701 436 l 717 414 l 689 278 l 346 278 m 663 0 l 714 243 l 368 243 q 326 252 345 243 q 294 278 307 262 q 277 317 282 295 q 278 364 273 339 l 625 364 l 643 450 l 296 450 l 311 522 l 657 522 l 675 607 l 329 607 q 349 654 335 632 q 382 693 363 677 q 424 720 401 710 q 471 729 447 729 l 818 729 l 869 972 l 522 972 q 345 900 429 972 q 240 729 261 829 l 138 243 q 170 72 115 144 q 232 18 195 35 q 315 0 269 0 l 663 0 z "},"‚":{"ha":390,"x_min":52,"x_max":358,"o":"m 79 -151 l 72 -151 l 89 -71 l 58 -29 l 52 -29 l 100 199 l 317 199 l 315 192 l 358 135 l 286 -208 l 121 -208 l 79 -151 m 221 -122 l 283 170 l 121 170 l 85 0 l 200 0 l 184 -74 l 115 -74 l 106 -122 l 221 -122 z "},"ƒ":{"ha":777,"x_min":-258,"x_max":960,"o":"m 916 1054 l 960 997 l 872 704 l 619 704 q 547 678 578 704 q 500 610 515 652 q 494 598 498 606 q 488 576 491 590 l 660 576 l 656 568 l 699 511 l 648 339 l 418 339 l 298 -64 q 284 -114 293 -83 q 262 -186 275 -145 q 213 -289 245 -241 q 134 -375 182 -336 q 37 -432 87 -413 q -68 -452 -14 -452 l -210 -452 l -253 -395 l -258 -395 l -171 -93 l -31 -93 q 7 -85 -12 -93 q 42 -65 26 -78 q 70 -35 58 -53 q 87 3 81 -18 l 322 791 q 371 896 339 849 q 452 983 403 943 q 553 1043 503 1023 q 657 1063 604 1063 l 918 1063 l 916 1054 m 882 1034 l 652 1034 q 467 962 556 1034 q 349 790 380 893 l 115 0 q 92 -48 107 -26 q 57 -87 77 -71 q 13 -113 37 -103 q -36 -122 -11 -122 l -151 -122 l -224 -366 l -109 -366 q 75 -296 -9 -366 q 195 -122 161 -225 q 215 -50 206 -80 q 231 0 224 -20 l 355 425 l 587 425 l 624 547 l 393 547 q 418 635 409 605 q 429 668 427 665 q 453 718 438 695 q 488 756 468 740 q 530 781 507 772 q 579 790 553 790 l 811 790 l 882 1034 z "},"„":{"ha":644,"x_min":52,"x_max":612,"o":"m 79 -151 l 72 -151 l 89 -71 l 58 -29 l 52 -29 l 100 199 l 317 199 l 315 192 l 345 153 l 354 199 l 571 199 l 570 192 l 612 135 l 539 -208 l 375 -208 l 334 -151 l 325 -151 l 343 -71 l 321 -40 l 286 -208 l 121 -208 l 79 -151 m 475 -122 l 538 170 l 375 170 l 339 0 l 454 0 l 439 -74 l 370 -74 l 359 -122 l 475 -122 m 221 -122 l 283 170 l 121 170 l 85 0 l 200 0 l 184 -74 l 115 -74 l 106 -122 l 221 -122 z "},"…":{"ha":945,"x_min":52,"x_max":913,"o":"m 335 -29 l 328 -29 l 376 199 l 595 199 l 593 192 l 636 135 l 587 -86 l 378 -86 l 335 -29 m 58 -29 l 52 -29 l 100 199 l 317 199 l 315 192 l 358 135 l 311 -86 l 102 -86 l 58 -29 m 612 -29 l 607 -29 l 656 199 l 871 199 l 869 192 l 913 135 l 865 -86 l 656 -86 l 612 -29 m 802 0 l 838 170 l 675 170 l 639 0 l 802 0 m 524 0 l 559 170 l 399 170 l 363 0 l 524 0 m 248 0 l 283 170 l 121 170 l 85 0 l 248 0 z "},"†":{"ha":690,"x_min":172,"x_max":777,"o":"m 616 758 l 736 758 l 733 751 l 777 694 l 741 521 l 567 521 l 385 -329 l 221 -329 l 179 -272 l 172 -272 l 342 521 l 229 521 l 187 578 l 179 578 l 218 758 l 393 758 l 443 1002 l 615 1002 l 614 994 l 656 937 l 616 758 m 675 607 l 703 729 l 529 729 l 581 972 l 465 972 l 414 729 l 240 729 l 214 607 l 387 607 l 207 -243 l 322 -243 l 503 607 l 675 607 z "},"‡":{"ha":690,"x_min":102,"x_max":777,"o":"m 539 393 l 659 393 l 657 386 l 700 329 l 663 157 l 489 157 l 385 -329 l 221 -329 l 179 -272 l 172 -272 l 264 157 l 151 157 l 110 214 l 102 214 l 140 393 l 315 393 l 342 521 l 229 521 l 187 578 l 179 578 l 218 758 l 393 758 l 443 1002 l 615 1002 l 614 994 l 656 937 l 616 758 l 736 758 l 733 751 l 777 694 l 741 521 l 567 521 l 539 393 m 599 243 l 625 364 l 452 364 l 503 607 l 675 607 l 703 729 l 529 729 l 581 972 l 465 972 l 414 729 l 240 729 l 214 607 l 387 607 l 336 364 l 163 364 l 138 243 l 311 243 l 207 -243 l 322 -243 l 427 243 l 599 243 z "},"ˆ":{"ha":505,"x_min":201,"x_max":614,"o":"m 211 772 l 201 772 l 374 1002 l 500 1002 l 503 986 l 541 937 l 614 715 l 490 715 l 449 772 l 443 772 l 436 785 l 376 715 l 254 715 l 211 772 m 532 802 l 476 972 l 383 972 l 256 802 l 325 802 l 415 904 l 463 802 l 532 802 z "},"‰":{"ha":1696,"x_min":157,"x_max":1735,"o":"m 1515 364 l 1516 370 l 1429 370 q 1403 365 1416 370 q 1380 351 1391 359 q 1362 330 1370 342 q 1352 304 1354 318 l 1332 211 l 1336 211 l 1423 211 q 1447 216 1436 211 q 1469 229 1459 220 q 1486 249 1479 237 q 1496 273 1493 260 l 1515 364 m 551 699 l 553 704 l 465 704 q 440 699 453 704 q 418 685 428 694 q 400 664 408 675 q 390 637 393 652 l 370 546 l 374 546 l 461 546 q 506 564 486 546 q 532 607 526 581 l 551 699 m 1169 364 l 1171 370 l 1083 370 q 1034 351 1056 370 q 1006 304 1012 332 l 986 211 l 990 211 l 1076 211 q 1123 229 1102 211 q 1150 273 1143 246 l 1169 364 m 908 583 q 920 594 915 589 q 932 606 926 600 q 1088 667 1004 667 l 1128 667 q 1221 641 1179 667 q 1284 570 1263 614 q 1327 610 1303 592 q 1376 641 1350 628 q 1428 660 1401 653 q 1480 667 1455 667 l 1521 667 q 1649 606 1602 667 q 1658 590 1655 598 q 1667 574 1662 582 l 1691 542 q 1716 395 1735 480 l 1658 121 q 1628 41 1650 78 q 1571 -25 1607 4 q 1418 -86 1499 -86 l 1378 -86 q 1297 -69 1334 -86 q 1239 -21 1261 -52 l 1219 5 q 1177 -33 1200 -16 q 1128 -61 1154 -50 q 1077 -80 1103 -73 q 1025 -86 1050 -86 l 986 -86 q 913 -71 944 -86 q 860 -25 882 -56 l 833 5 q 821 19 826 12 q 811 33 817 26 q 803 44 806 39 q 798 54 801 49 l 766 -86 l 603 -86 l 559 -29 l 554 -29 l 629 326 q 619 317 624 321 q 608 307 614 313 q 456 248 538 248 l 368 248 q 296 263 328 248 q 241 309 264 278 l 218 340 q 205 353 211 346 q 195 367 200 359 q 164 435 172 398 q 167 517 157 473 l 225 790 q 315 939 243 878 q 471 1002 389 1002 l 558 1002 q 686 939 642 1002 q 696 923 692 931 q 704 908 701 916 l 729 876 l 742 854 l 772 1002 l 943 1002 l 942 994 l 985 937 l 908 583 m 1590 182 l 1649 456 q 1650 525 1656 493 q 1625 585 1645 557 q 1514 637 1584 637 l 1474 637 q 1415 628 1444 637 q 1358 602 1385 619 q 1309 562 1331 585 q 1271 510 1286 538 q 1255 562 1267 538 q 1222 602 1242 585 q 1177 628 1202 619 q 1122 637 1152 637 l 1082 637 q 1012 624 1046 637 q 947 585 978 610 q 897 525 917 557 q 869 456 877 493 l 811 182 q 833 53 797 108 q 946 0 874 0 l 986 0 q 1045 9 1015 0 q 1102 35 1075 18 q 1153 76 1130 52 q 1190 127 1175 99 q 1205 76 1193 99 q 1238 35 1218 52 q 1283 9 1257 18 q 1337 0 1308 0 l 1378 0 q 1511 53 1450 0 q 1563 112 1544 80 q 1590 182 1582 144 m 704 0 l 909 972 l 794 972 l 587 0 l 704 0 m 628 517 l 686 790 q 664 918 703 865 q 551 972 622 972 l 465 972 q 332 918 395 972 q 281 860 301 892 q 253 790 261 828 l 195 517 q 193 446 187 479 q 218 387 199 414 q 329 335 259 335 l 415 335 q 550 386 489 335 q 600 446 581 414 q 628 517 619 478 m 1524 273 q 1509 238 1520 255 q 1483 209 1498 222 q 1452 189 1469 197 q 1417 182 1434 182 l 1331 182 q 1297 189 1312 182 q 1274 208 1283 196 q 1263 237 1265 220 q 1264 273 1260 254 l 1283 364 q 1297 399 1287 382 q 1322 428 1308 416 q 1354 448 1337 441 q 1389 456 1371 456 l 1475 456 q 1507 448 1493 456 q 1530 428 1521 441 q 1543 399 1539 416 q 1543 364 1547 382 l 1524 273 m 1178 273 q 1163 237 1174 254 q 1139 208 1153 220 q 1107 189 1124 196 q 1071 182 1090 182 l 985 182 q 953 189 967 182 q 929 209 939 197 q 917 238 920 222 q 918 273 914 255 l 937 364 q 951 399 941 382 q 976 428 962 416 q 1008 448 991 441 q 1043 456 1025 456 l 1129 456 q 1161 448 1147 456 q 1184 428 1175 441 q 1197 399 1194 416 q 1197 364 1201 382 l 1178 273 m 559 607 q 546 571 555 587 q 522 543 536 555 q 490 524 507 530 q 454 517 473 517 l 368 517 q 336 524 351 517 q 313 544 322 531 q 301 572 304 556 q 301 607 298 589 l 321 699 q 335 734 325 718 q 360 763 346 751 q 392 783 374 776 q 427 790 409 790 l 513 790 q 544 783 530 790 q 567 763 558 776 q 580 734 576 751 q 579 699 583 718 l 559 607 z "},"Š":{"ha":806,"x_min":52,"x_max":945,"o":"m 821 1239 l 863 1181 l 726 1002 l 903 1002 l 901 994 l 945 937 l 880 643 l 539 643 q 513 638 526 643 q 491 624 501 633 q 473 603 480 615 q 463 578 465 591 l 463 576 l 468 576 l 554 576 q 650 556 609 576 q 720 496 690 536 q 730 477 726 486 q 741 460 735 468 l 762 432 q 800 346 792 393 q 798 243 808 298 l 783 182 q 668 -7 761 72 q 471 -86 576 -86 l 102 -86 l 58 -29 l 52 -29 l 115 272 l 461 272 q 485 277 473 272 q 506 290 496 281 q 523 310 516 299 q 532 335 530 321 l 533 339 l 446 339 q 283 418 340 339 l 262 444 q 248 459 254 452 q 235 476 241 467 q 199 668 176 557 l 212 729 q 329 921 235 842 q 529 1002 422 1002 l 545 1002 l 533 1015 l 528 1015 l 453 1244 l 583 1244 l 591 1227 l 627 1181 l 629 1171 l 694 1244 l 825 1244 l 821 1239 m 772 1215 l 703 1215 l 611 1112 l 564 1215 l 494 1215 l 550 1044 l 643 1044 l 772 1215 m 714 243 l 726 304 q 730 397 738 355 q 694 475 722 439 q 633 529 669 511 q 549 547 597 547 l 461 547 q 429 554 444 547 q 406 574 415 562 q 394 602 397 586 q 395 637 391 618 q 409 673 398 656 q 433 702 419 690 q 465 722 448 715 q 500 729 482 729 l 818 729 l 869 972 l 522 972 q 345 900 429 972 q 240 729 261 829 l 228 668 q 224 575 216 618 q 258 497 233 533 q 322 444 286 462 q 406 425 359 425 l 493 425 q 524 418 510 425 q 548 398 538 410 q 560 370 557 386 q 559 335 564 353 q 546 299 556 316 q 521 270 535 283 q 490 250 507 258 q 456 243 473 243 l 138 243 l 85 0 l 432 0 q 610 72 527 0 q 714 243 692 142 z "},"‹":{"ha":568,"x_min":147,"x_max":643,"o":"m 532 325 l 576 267 l 471 143 l 196 363 l 161 410 l 147 421 l 175 551 l 549 774 l 558 753 l 591 707 l 643 583 l 399 439 l 538 329 l 532 325 m 494 321 l 286 486 l 566 652 l 530 733 l 199 534 l 179 437 l 427 239 l 494 321 z "},"Œ":{"ha":1095,"x_min":82,"x_max":1232,"o":"m 648 607 q 651 623 651 615 q 650 639 651 631 q 638 642 644 640 q 627 643 632 643 l 510 643 q 474 635 492 643 q 441 614 456 627 q 415 584 426 602 q 400 547 404 566 l 347 304 q 345 291 345 297 q 345 278 345 284 q 359 274 352 276 q 374 272 366 272 l 490 272 q 526 279 509 272 q 558 299 544 286 q 583 328 573 311 q 597 364 593 345 l 648 607 m 810 304 q 807 291 808 297 q 806 277 806 284 q 836 272 819 272 l 1038 272 l 1035 265 l 1076 208 l 1015 -86 l 864 -86 q 772 -67 811 -86 q 705 -12 733 -48 l 684 21 q 673 28 677 24 q 665 36 669 32 q 615 -15 643 7 q 557 -54 588 -38 q 492 -78 526 -69 q 425 -86 459 -86 l 355 -86 q 261 -67 303 -86 q 192 -8 219 -48 l 170 21 q 143 50 155 34 q 110 243 82 130 l 212 729 q 328 921 235 841 q 529 1002 420 1002 l 597 1002 q 665 991 634 1002 q 724 961 696 981 l 733 1002 l 1192 1002 l 1190 994 l 1232 937 l 1169 643 l 880 643 l 868 576 l 986 576 l 985 568 l 1025 511 l 989 339 l 817 339 l 810 304 m 951 0 l 1004 243 l 831 243 q 786 252 806 243 q 755 278 767 262 q 739 316 743 294 q 741 364 734 338 l 753 425 l 926 425 l 953 547 l 779 547 l 818 729 l 1107 729 l 1158 972 l 753 972 l 739 903 q 676 955 713 937 q 591 972 640 972 l 522 972 q 345 900 427 972 q 276 822 302 864 q 240 729 251 780 l 138 243 q 167 71 114 143 q 231 18 193 35 q 315 0 269 0 l 385 0 q 463 12 424 0 q 535 47 501 24 q 598 102 570 70 q 644 174 626 134 q 663 102 648 134 q 700 47 677 70 q 754 12 723 24 q 823 0 785 0 l 951 0 m 625 364 q 606 316 619 338 q 573 278 592 294 q 531 252 554 262 q 484 243 508 243 l 368 243 q 326 252 345 243 q 294 278 307 262 q 277 317 282 295 q 278 364 273 339 l 329 607 q 349 654 335 632 q 382 693 363 677 q 424 720 401 710 q 471 729 447 729 l 587 729 q 630 720 612 729 q 661 693 649 710 q 677 654 673 677 q 675 607 681 632 l 625 364 z "},"Ž":{"ha":806,"x_min":52,"x_max":945,"o":"m 821 1239 l 863 1181 l 726 1002 l 903 1002 l 901 994 l 945 937 l 885 659 l 481 272 l 749 272 l 746 265 l 789 208 l 726 -86 l 102 -86 l 58 -29 l 52 -29 l 111 254 l 517 643 l 256 643 l 212 700 l 205 700 l 269 1002 l 545 1002 l 533 1015 l 528 1015 l 453 1244 l 583 1244 l 591 1227 l 627 1181 l 629 1171 l 694 1244 l 825 1244 l 821 1239 m 772 1215 l 703 1215 l 611 1112 l 564 1215 l 494 1215 l 550 1044 l 643 1044 l 772 1215 m 663 0 l 714 243 l 311 243 l 818 729 l 869 972 l 292 972 l 240 729 l 646 729 l 138 243 l 85 0 l 663 0 z "},"‘":{"ha":390,"x_min":208,"x_max":515,"o":"m 216 713 l 208 713 l 283 1063 l 454 1063 l 452 1054 l 496 997 l 481 925 l 515 876 l 469 656 l 258 656 l 216 713 m 404 742 l 440 911 l 325 911 l 340 985 l 410 985 l 421 1034 l 306 1034 l 243 742 l 404 742 z "},"’":{"ha":390,"x_min":235,"x_max":542,"o":"m 262 713 l 256 713 l 272 791 l 241 833 l 235 833 l 283 1063 l 500 1063 l 498 1054 l 542 997 l 469 656 l 306 656 l 262 713 m 404 742 l 467 1034 l 306 1034 l 268 863 l 383 863 l 368 790 l 298 790 l 289 742 l 404 742 z "},"“":{"ha":644,"x_min":208,"x_max":770,"o":"m 481 925 l 500 895 l 538 1063 l 708 1063 l 705 1054 l 750 997 l 733 925 l 770 876 l 724 656 l 513 656 l 479 701 l 469 656 l 258 656 l 216 713 l 208 713 l 283 1063 l 454 1063 l 452 1054 l 496 997 l 481 925 m 659 742 l 694 911 l 578 911 l 595 985 l 664 985 l 675 1034 l 558 1034 l 497 742 l 659 742 m 404 742 l 440 911 l 325 911 l 340 985 l 410 985 l 421 1034 l 306 1034 l 243 742 l 404 742 z "},"”":{"ha":644,"x_min":235,"x_max":796,"o":"m 262 713 l 256 713 l 272 791 l 241 833 l 235 833 l 283 1063 l 500 1063 l 498 1054 l 528 1015 l 538 1063 l 754 1063 l 753 1054 l 796 997 l 724 656 l 558 656 l 517 713 l 510 713 l 526 791 l 504 822 l 469 656 l 306 656 l 262 713 m 659 742 l 721 1034 l 558 1034 l 522 863 l 637 863 l 623 790 l 553 790 l 543 742 l 659 742 m 404 742 l 467 1034 l 306 1034 l 268 863 l 383 863 l 368 790 l 298 790 l 289 742 l 404 742 z "},"•":{"ha":633,"x_min":151,"x_max":645,"o":"m 196 214 q 161 267 171 233 q 160 340 151 300 l 195 510 q 219 569 201 542 q 260 617 236 597 q 312 649 283 637 q 371 661 341 661 l 486 661 q 552 643 525 661 q 591 593 579 625 l 619 554 q 640 508 634 534 q 639 450 645 481 l 603 279 q 579 221 596 248 q 540 175 563 195 q 489 143 517 155 q 432 132 461 132 l 315 132 q 263 144 286 132 q 227 175 241 155 l 196 214 m 533 340 l 568 510 q 570 557 574 535 q 554 596 566 580 q 523 623 542 613 q 481 632 504 632 l 364 632 q 317 623 340 632 q 275 596 294 613 q 242 557 256 580 q 222 510 228 535 l 187 340 q 186 293 182 315 q 202 254 190 271 q 233 228 214 237 q 277 218 252 218 l 392 218 q 439 228 416 218 q 481 253 463 237 q 514 292 500 269 q 533 340 528 314 z "},"–":{"ha":575,"x_min":131,"x_max":607,"o":"m 139 347 l 131 347 l 164 503 l 567 503 l 566 496 l 607 439 l 576 290 l 180 290 l 139 347 m 511 376 l 532 473 l 186 473 l 165 376 l 511 376 z "},"—":{"ha":806,"x_min":131,"x_max":839,"o":"m 139 347 l 131 347 l 164 503 l 798 503 l 796 496 l 839 439 l 807 290 l 180 290 l 139 347 m 743 376 l 762 473 l 186 473 l 165 376 l 743 376 z "},"˜":{"ha":575,"x_min":218,"x_max":721,"o":"m 225 762 l 218 755 l 257 936 q 334 985 295 968 q 412 1002 374 1002 q 446 995 429 1002 q 481 974 463 987 q 519 953 505 953 q 586 974 547 953 q 681 1042 626 996 l 677 1029 l 721 972 l 686 814 l 675 796 q 605 754 642 768 q 530 741 569 741 q 499 748 515 741 q 467 768 484 755 q 445 784 455 779 q 427 789 434 789 q 268 704 368 789 l 225 762 m 616 875 l 637 972 q 578 935 608 947 q 513 924 547 924 q 461 947 491 924 q 407 972 431 972 q 342 961 374 972 q 282 924 311 949 l 261 827 q 321 863 290 852 q 386 875 353 875 q 440 850 412 875 q 492 827 471 827 q 557 838 526 827 q 616 875 587 850 z "},"™":{"ha":1406,"x_min":218,"x_max":1510,"o":"m 227 761 l 218 761 l 269 1002 l 758 1002 l 757 994 l 770 977 q 818 995 793 989 q 869 1002 842 1002 l 921 1002 q 1009 977 970 1002 q 1067 909 1048 952 q 1152 977 1105 952 q 1250 1002 1200 1002 l 1303 1002 q 1432 939 1385 1002 q 1441 923 1437 931 q 1450 908 1446 916 l 1472 876 q 1502 809 1495 846 q 1501 729 1510 772 l 1404 278 l 1270 278 l 1227 335 l 1219 335 l 1297 699 l 1297 704 l 1210 704 q 1184 699 1197 704 q 1162 685 1172 694 q 1144 664 1152 675 q 1135 637 1137 652 l 1059 278 l 924 278 l 880 335 l 873 335 l 950 699 l 951 704 l 864 704 q 839 699 852 704 q 817 685 827 694 q 799 664 806 675 q 789 637 791 652 l 713 278 l 578 278 l 534 335 l 528 335 l 606 704 l 576 704 l 486 278 l 351 278 l 310 335 l 302 335 l 380 704 l 268 704 l 227 761 m 1340 364 l 1430 790 q 1433 860 1439 828 q 1409 918 1428 892 q 1297 972 1369 972 l 1244 972 q 1188 963 1216 972 q 1136 938 1160 954 q 1090 899 1111 922 q 1054 848 1069 876 q 1039 899 1050 876 q 1010 938 1028 922 q 967 963 991 954 q 916 972 943 972 l 864 972 q 710 899 777 972 l 725 972 l 292 972 l 253 790 l 427 790 l 336 364 l 422 364 l 513 790 l 652 790 l 561 364 l 647 364 l 718 699 q 733 734 722 718 q 758 763 743 751 q 790 783 772 776 q 825 790 808 790 l 911 790 q 967 764 949 790 q 978 699 986 739 l 908 364 l 994 364 l 1064 699 q 1079 735 1068 718 q 1103 764 1089 752 q 1135 783 1118 777 q 1171 790 1152 790 l 1258 790 q 1290 783 1276 790 q 1313 763 1304 776 q 1326 734 1322 751 q 1325 699 1329 718 l 1254 364 l 1340 364 z "},"š":{"ha":806,"x_min":52,"x_max":918,"o":"m 793 1117 l 838 1059 l 701 879 l 878 879 l 876 872 l 918 815 l 856 521 l 485 521 q 464 515 471 521 l 541 515 q 705 435 648 515 q 718 417 712 425 q 728 399 724 408 l 749 372 q 787 286 778 332 q 783 182 796 239 q 668 -7 761 72 q 471 -86 576 -86 l 102 -86 l 58 -29 l 52 -29 l 115 272 l 490 272 q 499 274 494 272 q 510 278 503 276 l 433 278 q 339 298 381 278 q 269 357 298 318 l 249 383 q 235 398 241 391 q 222 415 229 406 q 186 607 162 496 q 227 712 197 665 q 304 800 257 760 q 503 879 397 879 l 519 879 l 507 895 l 500 895 l 427 1122 l 557 1122 l 566 1105 l 600 1059 l 604 1050 l 667 1122 l 799 1122 l 793 1117 m 745 1093 l 675 1093 l 585 991 l 538 1093 l 468 1093 l 525 924 l 616 924 l 745 1093 m 714 243 q 682 414 734 343 q 620 468 656 450 q 534 486 583 486 l 419 486 q 398 491 408 486 q 383 504 389 496 q 375 524 377 513 q 375 547 372 535 q 385 570 378 559 q 400 589 391 581 q 421 602 410 597 q 444 607 432 607 l 791 607 l 843 850 l 497 850 q 318 779 401 850 q 251 701 277 743 q 214 607 224 658 q 245 436 193 508 q 393 364 299 364 l 510 364 q 546 346 533 364 q 554 304 559 328 q 529 260 549 278 q 484 243 509 243 l 138 243 l 85 0 l 432 0 q 610 72 527 0 q 714 243 692 142 z "},"›":{"ha":568,"x_min":115,"x_max":611,"o":"m 199 629 l 180 643 l 292 774 l 571 551 l 568 546 l 611 489 l 585 363 l 216 143 l 172 200 l 170 199 l 115 329 l 366 478 l 232 583 l 199 629 m 519 437 l 541 534 l 292 733 l 224 652 l 432 486 l 153 321 l 187 239 l 519 437 z "},"œ":{"ha":1152,"x_min":82,"x_max":1265,"o":"m 624 486 q 626 503 626 494 q 625 518 627 511 q 612 520 618 519 q 600 521 606 521 l 485 521 q 448 513 466 521 q 415 493 430 506 q 389 463 399 480 q 374 425 378 445 l 347 304 q 345 291 345 297 q 345 278 345 284 q 359 274 352 276 q 374 272 366 272 l 490 272 q 526 279 509 272 q 558 299 544 286 q 583 328 573 311 q 597 364 593 345 l 624 486 m 808 278 q 821 273 814 275 q 836 272 829 272 l 1095 272 l 1093 265 l 1135 208 l 1074 -86 l 864 -86 q 788 -73 823 -86 q 725 -35 753 -60 q 711 -21 718 -28 q 700 -5 705 -14 l 675 25 q 669 31 671 28 q 665 35 667 33 q 615 -15 642 7 q 556 -53 587 -37 q 492 -77 526 -68 q 425 -86 459 -86 l 355 -86 q 261 -67 303 -86 q 192 -8 219 -48 l 170 21 q 143 50 155 34 q 110 243 82 130 l 186 607 q 227 712 197 665 q 302 800 256 760 q 503 879 395 879 l 572 879 q 720 821 657 879 l 718 821 q 742 792 732 806 q 760 762 752 778 l 766 753 q 800 789 781 772 q 839 821 818 805 l 838 821 q 925 865 882 850 q 1011 879 969 879 l 1223 879 l 1222 872 l 1265 815 l 1202 521 l 947 521 q 930 520 938 521 q 913 515 922 519 l 1031 515 l 1029 509 l 1072 452 l 1035 278 l 808 278 m 1008 0 l 1061 243 l 831 243 q 787 252 806 243 q 755 278 768 262 q 739 317 743 295 q 741 364 734 339 l 971 364 l 996 486 l 765 486 q 785 533 771 511 q 818 572 799 555 q 860 597 837 588 q 907 607 883 607 l 1137 607 l 1190 850 l 1006 850 q 931 838 968 850 q 860 803 895 827 q 797 750 824 780 q 750 684 769 721 q 690 803 742 758 q 567 850 642 850 l 497 850 q 317 779 401 850 q 214 607 235 707 l 138 243 q 167 71 114 143 q 231 18 193 35 q 315 0 269 0 l 385 0 q 460 12 423 0 q 531 45 498 24 q 592 98 564 67 q 640 167 621 129 q 659 99 644 129 q 699 46 673 69 q 823 0 751 0 l 1008 0 m 625 364 q 606 316 619 338 q 573 278 592 294 q 531 252 554 262 q 484 243 508 243 l 368 243 q 326 252 345 243 q 294 278 307 262 q 277 317 282 295 q 278 364 273 339 l 304 486 q 323 533 309 511 q 356 572 337 555 q 398 597 375 588 q 444 607 420 607 l 559 607 q 603 597 584 607 q 635 572 623 588 q 651 533 647 555 q 650 486 656 511 l 625 364 z "},"ž":{"ha":806,"x_min":52,"x_max":918,"o":"m 793 1117 l 838 1059 l 701 879 l 878 879 l 876 872 l 918 815 l 860 538 l 533 272 l 749 272 l 746 265 l 789 208 l 726 -86 l 102 -86 l 58 -29 l 52 -29 l 111 254 l 439 521 l 229 521 l 187 578 l 179 578 l 244 879 l 519 879 l 507 895 l 500 895 l 427 1122 l 557 1122 l 566 1105 l 600 1059 l 604 1050 l 667 1122 l 799 1122 l 793 1117 m 745 1093 l 675 1093 l 585 991 l 538 1093 l 468 1093 l 525 924 l 616 924 l 745 1093 m 663 0 l 714 243 l 345 243 l 791 607 l 843 850 l 267 850 l 214 607 l 583 607 l 138 243 l 85 0 l 663 0 z "},"Ÿ":{"ha":806,"x_min":146,"x_max":945,"o":"m 627 1015 l 619 1015 l 657 1196 l 829 1196 l 828 1189 l 869 1132 l 842 1002 l 903 1002 l 901 994 l 945 937 l 846 473 q 805 370 834 417 q 732 283 777 322 q 647 230 690 249 q 558 207 604 210 l 496 -86 l 332 -86 l 289 -29 l 283 -29 l 335 218 q 291 244 311 229 q 256 283 271 260 l 233 311 q 219 325 226 317 q 207 342 213 332 q 171 534 146 422 l 269 1002 l 407 1002 l 396 1015 l 389 1015 l 427 1196 l 597 1196 l 597 1189 l 639 1132 l 603 958 l 467 958 l 482 937 l 410 596 q 407 582 408 589 q 407 570 406 576 q 421 566 413 568 q 436 564 429 564 l 551 564 q 588 571 570 564 q 620 590 606 578 q 645 620 635 603 q 660 656 656 636 l 724 958 l 669 958 l 627 1015 m 770 1044 l 794 1166 l 679 1166 l 654 1044 l 770 1044 m 539 1044 l 564 1166 l 449 1166 l 422 1044 l 539 1044 m 777 534 l 869 972 l 753 972 l 686 656 q 667 608 681 630 q 635 570 654 586 q 593 544 616 553 q 546 534 570 534 l 431 534 q 388 544 407 534 q 356 570 368 553 q 339 609 343 587 q 340 656 334 631 l 407 972 l 292 972 l 199 534 q 196 441 188 484 q 229 363 204 398 q 378 292 283 292 l 315 0 l 432 0 l 493 292 q 586 309 542 292 q 672 363 630 327 q 777 534 755 433 z "},"¡":{"ha":390,"x_min":24,"x_max":503,"o":"m 203 652 l 196 652 l 244 879 l 461 879 l 461 872 l 503 815 l 456 595 l 245 595 l 203 652 m 31 -151 l 24 -151 l 229 587 l 353 587 l 350 579 l 393 524 l 288 -208 l 72 -208 l 31 -151 m 392 681 l 428 850 l 267 850 l 229 681 l 392 681 m 221 -122 l 319 558 l 250 558 l 60 -122 l 221 -122 z "},"¢":{"ha":806,"x_min":112,"x_max":945,"o":"m 374 425 q 371 412 372 418 q 371 400 370 406 q 400 393 385 393 l 774 393 l 772 386 l 815 329 l 753 35 l 578 35 l 553 -86 l 389 -86 l 347 -29 l 340 -29 l 354 36 q 277 60 310 40 q 218 114 243 80 l 199 140 q 183 155 190 148 q 170 172 177 163 q 135 364 112 253 l 212 729 q 329 921 235 842 q 529 1002 422 1002 l 558 1002 l 585 1122 l 755 1122 l 754 1116 l 796 1059 l 783 1002 l 903 1002 l 901 994 l 945 937 l 880 643 l 510 643 q 474 635 492 643 q 441 614 456 627 q 415 584 426 602 q 400 547 404 566 l 374 425 m 688 121 l 741 364 l 393 364 q 351 374 370 364 q 319 400 332 383 q 303 439 307 416 q 304 486 298 461 l 329 607 q 349 654 335 632 q 382 693 363 677 q 424 720 401 710 q 471 729 447 729 l 818 729 l 869 972 l 696 972 l 722 1093 l 607 1093 l 581 972 l 522 972 q 345 900 429 972 q 240 729 261 829 l 163 364 q 160 271 152 313 q 195 193 169 229 q 342 121 248 121 l 400 121 l 374 0 l 490 0 l 515 121 l 688 121 z "},"£":{"ha":806,"x_min":52,"x_max":842,"o":"m 342 272 l 749 272 l 746 265 l 789 208 l 726 -86 l 102 -86 l 58 -29 l 52 -29 l 225 790 q 266 895 237 848 q 342 983 295 943 q 542 1063 433 1063 l 802 1063 l 799 1054 l 842 997 l 779 704 l 524 704 q 486 696 504 704 q 452 676 467 689 q 427 646 437 663 q 412 607 416 628 l 406 576 l 582 576 l 579 568 l 623 511 l 586 339 l 354 339 l 342 272 m 663 0 l 714 243 l 253 243 l 290 425 l 521 425 l 549 547 l 317 547 l 343 668 q 361 716 348 694 q 394 755 375 739 q 436 781 412 771 q 484 790 459 790 l 714 790 l 766 1034 l 536 1034 q 443 1016 487 1034 q 355 962 398 998 q 253 790 273 891 l 85 0 l 663 0 z "},"¤":{"ha":806,"x_min":96,"x_max":945,"o":"m 346 278 q 359 273 352 275 q 374 272 366 272 l 749 272 l 746 265 l 789 208 l 726 -86 l 355 -86 q 262 -66 303 -86 q 193 -7 222 -47 l 171 20 q 157 35 163 27 q 144 52 151 42 q 105 139 114 92 q 110 243 96 186 l 212 729 q 329 921 235 842 q 529 1002 422 1002 l 903 1002 l 901 994 l 945 937 l 880 643 l 510 643 q 493 641 501 643 q 476 636 486 640 l 710 636 l 708 629 l 751 572 l 722 436 l 701 436 l 717 414 l 689 278 l 346 278 m 663 0 l 714 243 l 368 243 q 326 252 345 243 q 294 278 307 262 q 277 317 282 295 q 278 364 273 339 l 625 364 l 643 450 l 296 450 l 311 522 l 657 522 l 675 607 l 329 607 q 349 654 335 632 q 382 693 363 677 q 424 720 401 710 q 471 729 447 729 l 818 729 l 869 972 l 522 972 q 345 900 429 972 q 240 729 261 829 l 138 243 q 170 72 115 144 q 232 18 195 35 q 315 0 269 0 l 663 0 z "},"¥":{"ha":806,"x_min":77,"x_max":945,"o":"m 572 272 l 749 272 l 746 265 l 789 208 l 753 35 l 521 35 l 496 -86 l 332 -86 l 289 -29 l 283 -29 l 296 35 l 126 35 l 83 92 l 77 92 l 115 272 l 347 272 l 349 278 l 179 278 l 136 335 l 129 335 l 167 515 l 265 515 q 256 525 260 519 q 248 536 252 531 q 212 729 188 616 l 269 1002 l 441 1002 l 440 994 l 482 937 l 435 717 q 433 703 433 709 q 432 692 432 697 q 461 685 448 685 l 578 685 q 614 692 596 685 q 646 712 631 699 q 671 741 661 724 q 685 778 681 758 l 733 1002 l 903 1002 l 901 994 l 945 937 l 888 668 q 800 504 867 575 l 840 452 l 804 278 l 574 278 l 572 272 m 688 121 l 714 243 l 484 243 l 510 364 l 741 364 l 765 486 l 534 486 q 628 504 584 486 q 714 557 672 522 q 781 635 756 593 q 818 729 806 678 l 869 972 l 753 972 l 713 778 q 693 729 707 751 q 661 690 680 707 q 618 665 642 674 q 571 656 595 656 l 456 656 q 413 666 432 656 q 382 692 394 675 q 365 731 370 709 q 366 778 360 753 l 407 972 l 292 972 l 240 729 q 271 557 220 629 q 419 486 323 486 l 189 486 l 163 364 l 393 364 l 368 243 l 138 243 l 111 121 l 342 121 l 315 0 l 432 0 l 457 121 l 688 121 z "},"¦":{"ha":345,"x_min":25,"x_max":509,"o":"m 33 -151 l 25 -151 l 149 431 l 319 431 l 318 422 l 361 366 l 239 -208 l 75 -208 l 33 -151 m 179 542 l 172 542 l 296 1122 l 467 1122 l 465 1116 l 509 1059 l 386 485 l 222 485 l 179 542 m 322 571 l 432 1093 l 317 1093 l 207 571 l 322 571 m 175 -122 l 286 401 l 170 401 l 60 -122 l 175 -122 z "},"§":{"ha":806,"x_min":-1,"x_max":945,"o":"m 296 476 q 306 467 300 470 l 296 476 m 700 125 q 694 133 696 130 q 688 140 692 137 l 700 125 m 539 364 q 539 396 543 380 q 528 399 534 397 q 517 400 522 400 q 479 392 498 400 q 446 371 461 385 q 419 341 431 358 q 404 304 408 323 q 402 291 403 297 q 403 278 401 284 q 417 274 410 276 q 432 272 425 272 q 468 279 450 272 q 500 300 486 287 q 525 329 515 313 q 539 364 535 346 m 510 643 q 490 636 497 643 l 567 636 q 662 616 620 636 q 732 557 703 597 q 744 538 739 547 q 753 519 749 529 l 774 493 q 812 407 803 454 q 810 304 821 359 q 703 121 787 197 q 735 37 728 83 q 732 -61 743 -8 q 616 -250 707 -172 q 419 -329 524 -329 l 49 -329 l 5 -272 l -1 -272 l 62 29 l 437 29 q 447 31 441 29 q 457 35 453 33 l 382 35 q 288 55 329 35 q 218 114 248 75 l 199 140 q 183 155 190 148 q 170 172 177 163 q 135 364 112 253 q 241 547 157 467 q 209 631 216 585 q 212 729 201 677 q 329 921 235 842 q 529 1002 422 1002 l 903 1002 l 901 994 l 945 937 l 880 643 l 510 643 m 663 0 q 624 182 685 109 q 741 364 715 254 q 742 458 750 415 q 708 536 734 500 q 646 589 682 572 q 559 607 609 607 l 444 607 q 424 612 433 607 q 408 626 414 617 q 400 645 402 634 q 401 668 398 656 q 411 691 404 680 q 428 711 418 703 q 449 724 437 720 q 471 729 460 729 l 818 729 l 869 972 l 522 972 q 345 900 429 972 q 240 729 261 829 q 238 629 229 674 q 281 547 248 584 q 163 364 187 474 q 160 271 152 313 q 195 193 169 229 q 342 121 248 121 l 457 121 q 479 116 469 121 q 494 103 488 111 q 503 84 500 95 q 503 61 505 73 q 493 38 500 49 q 476 18 486 26 q 455 5 467 9 q 432 0 444 0 l 85 0 l 33 -243 l 379 -243 q 558 -171 476 -243 q 663 0 639 -100 m 568 364 q 548 317 562 339 q 515 278 534 295 q 473 252 496 262 q 427 243 450 243 q 384 252 403 243 q 353 278 365 262 q 336 317 340 295 q 336 364 331 339 q 355 412 341 389 q 388 451 369 434 q 431 477 408 467 q 478 486 454 486 q 520 477 501 486 q 551 451 539 467 q 568 412 564 434 q 568 364 573 389 z "},"¨":{"ha":575,"x_min":232,"x_max":714,"o":"m 239 821 l 232 821 l 269 1002 l 441 1002 l 440 994 l 482 937 l 446 764 l 282 764 l 239 821 m 471 821 l 464 821 l 501 1002 l 672 1002 l 671 994 l 714 937 l 676 764 l 513 764 l 471 821 m 612 850 l 637 972 l 522 972 l 497 850 l 612 850 m 382 850 l 407 972 l 292 972 l 267 850 l 382 850 z "},"©":{"ha":921,"x_min":82,"x_max":984,"o":"m 346 517 q 366 566 352 542 q 355 544 360 555 q 347 522 351 534 l 346 517 m 332 140 q 296 191 307 160 q 293 261 286 222 l 265 134 q 262 120 264 126 q 262 109 261 114 q 292 102 276 102 l 359 102 l 332 140 m 804 583 q 807 615 809 602 q 794 617 801 616 q 782 618 787 618 l 745 618 l 761 597 l 724 424 l 528 424 q 502 414 514 424 q 486 389 490 404 l 467 296 l 644 296 l 643 289 l 685 232 l 659 111 q 699 145 682 123 q 722 195 716 167 l 804 583 m 170 21 q 143 50 155 34 q 110 243 82 130 l 171 534 q 286 726 195 648 q 488 807 379 807 l 718 807 q 884 726 825 807 q 895 708 890 717 q 905 690 900 700 l 926 664 q 961 473 984 585 l 899 182 q 859 78 887 125 q 785 -8 831 31 q 587 -86 694 -86 l 355 -86 q 261 -67 303 -86 q 192 -8 219 -48 l 170 21 m 831 243 l 892 534 q 860 705 912 635 q 713 778 807 778 l 481 778 q 301 705 386 778 q 235 628 260 670 q 199 534 209 585 l 138 243 q 167 71 114 143 q 231 18 193 35 q 315 0 269 0 l 547 0 q 640 18 596 0 q 725 71 684 35 q 793 149 768 106 q 831 243 819 192 m 750 195 q 730 146 744 168 q 698 107 717 123 q 656 81 680 91 q 608 72 633 72 l 286 72 q 243 82 262 72 q 211 108 224 92 q 194 147 199 125 q 196 195 190 170 l 278 583 q 297 630 283 608 q 330 669 311 652 q 372 694 349 685 q 419 704 395 704 l 743 704 q 786 694 767 704 q 817 669 805 685 q 833 630 829 652 q 832 583 838 608 l 750 195 m 585 146 l 610 267 l 437 267 q 416 272 425 267 q 400 285 406 277 q 392 304 394 294 q 392 328 389 315 l 418 450 q 427 473 420 463 q 444 492 434 484 q 465 505 454 500 q 489 510 477 510 l 661 510 l 688 632 l 515 632 q 468 623 492 632 q 426 596 445 613 q 392 557 406 580 q 374 510 378 535 l 322 267 q 321 219 317 241 q 337 181 325 197 q 369 155 349 165 q 412 146 388 146 l 585 146 z "},"ª":{"ha":661,"x_min":157,"x_max":765,"o":"m 551 699 l 553 704 l 465 704 q 440 699 453 704 q 418 685 428 694 q 400 664 408 675 q 390 637 393 652 l 370 546 l 374 546 l 461 546 q 485 551 473 546 q 506 564 496 555 q 522 584 515 572 q 532 607 529 595 l 551 699 m 218 340 q 205 353 211 346 q 195 367 200 359 q 164 435 172 398 q 167 517 157 473 l 225 790 q 315 939 243 878 q 471 1002 389 1002 l 558 1002 q 686 939 642 1002 q 697 923 692 930 q 705 907 702 916 l 729 876 q 758 809 751 846 q 755 729 765 773 l 653 248 l 518 248 l 510 257 q 483 250 496 252 q 456 248 469 248 l 368 248 q 296 263 328 248 q 241 309 264 278 l 218 340 m 589 335 l 686 790 q 664 918 703 865 q 615 959 643 945 q 551 972 588 972 l 465 972 q 332 918 395 972 q 281 860 301 892 q 253 790 261 828 l 195 517 q 193 446 187 479 q 218 387 199 414 q 329 335 259 335 l 415 335 q 475 349 448 335 q 515 395 507 364 l 501 335 l 589 335 m 559 607 q 546 572 556 589 q 521 544 535 556 q 489 524 507 531 q 454 517 472 517 l 368 517 q 336 524 351 517 q 313 544 322 531 q 301 572 304 556 q 301 607 298 589 l 321 699 q 335 734 325 718 q 360 763 346 751 q 392 783 374 776 q 427 790 409 790 l 513 790 q 569 764 550 790 q 579 699 587 739 l 559 607 z "},"«":{"ha":916,"x_min":96,"x_max":937,"o":"m 481 85 l 525 28 l 421 -96 l 144 122 l 111 170 l 96 180 l 123 313 l 498 534 l 507 513 l 541 468 l 578 375 l 844 534 l 852 513 l 888 468 l 937 345 l 694 199 l 832 90 l 828 85 l 871 28 l 766 -96 l 490 122 l 457 170 l 441 180 l 461 267 l 347 199 l 486 90 l 481 85 m 790 82 l 582 248 l 860 412 l 827 493 l 494 296 l 473 199 l 722 0 l 790 82 m 443 82 l 236 248 l 514 412 l 481 493 l 149 296 l 127 199 l 375 0 l 443 82 z "},"¬":{"ha":690,"x_min":131,"x_max":724,"o":"m 139 347 l 131 347 l 164 503 l 682 503 l 681 496 l 724 439 l 665 170 l 525 170 l 482 227 l 475 227 l 489 290 l 180 290 l 139 347 m 602 256 l 647 473 l 186 473 l 165 376 l 534 376 l 510 256 l 602 256 z "},"®":{"ha":921,"x_min":82,"x_max":984,"o":"m 265 134 q 262 120 264 126 q 262 109 261 114 q 292 102 276 102 l 302 102 l 290 117 l 285 117 l 383 585 q 347 522 355 559 l 265 134 m 449 102 l 533 102 l 521 117 l 515 117 l 549 272 l 485 272 l 449 102 m 804 583 q 807 615 809 602 q 794 617 801 616 q 782 618 787 618 l 693 618 q 700 606 696 612 q 707 593 703 600 l 734 554 q 755 508 749 534 q 753 450 760 481 q 726 379 745 410 q 679 329 707 349 l 686 318 q 685 321 685 319 l 689 315 q 703 212 718 278 l 685 131 q 722 195 714 155 l 804 583 m 170 21 q 143 50 155 34 q 110 243 82 130 l 171 534 q 286 726 195 648 q 488 807 379 807 l 718 807 q 884 726 825 807 q 895 708 890 717 q 905 690 900 700 l 922 665 l 922 667 l 926 664 q 961 473 984 585 l 899 182 q 859 78 887 125 q 785 -8 831 31 q 587 -86 694 -86 l 355 -86 q 261 -67 303 -86 q 192 -8 219 -48 l 170 21 m 831 243 l 892 534 q 860 705 912 635 q 713 778 807 778 l 481 778 q 301 705 386 778 q 235 628 260 670 q 199 534 209 585 l 138 243 q 167 71 114 143 q 231 18 193 35 q 315 0 269 0 l 547 0 q 640 18 596 0 q 725 71 684 35 q 793 149 768 106 q 831 243 819 192 m 750 195 q 730 146 744 168 q 698 107 717 123 q 656 81 680 91 q 608 72 633 72 l 286 72 q 243 82 262 72 q 211 108 224 92 q 194 147 199 125 q 196 195 190 170 l 278 583 q 297 630 283 608 q 330 669 311 652 q 372 694 349 685 q 419 704 395 704 l 743 704 q 786 694 767 704 q 817 669 805 685 q 833 630 829 652 q 832 583 838 608 l 750 195 m 607 146 l 635 273 q 629 346 643 317 q 579 389 616 375 q 648 433 622 402 q 685 510 674 464 q 685 557 690 535 q 669 596 681 580 q 638 623 657 613 q 596 632 619 632 l 422 632 l 319 146 l 376 146 l 422 358 l 524 358 q 571 334 556 358 q 578 273 585 309 l 550 146 l 607 146 m 587 465 q 581 448 586 456 q 569 433 576 439 q 553 423 562 427 q 536 419 545 419 l 433 419 l 453 510 l 555 510 q 583 497 572 510 q 587 465 593 484 z "},"°":{"ha":505,"x_min":231,"x_max":628,"o":"m 478 888 q 479 892 479 890 q 479 899 479 895 l 472 899 q 444 893 458 899 q 419 877 431 887 q 400 854 408 867 q 390 827 393 841 l 387 819 l 397 819 q 424 825 410 819 q 448 839 437 830 q 467 861 459 848 q 478 888 475 873 m 289 739 q 279 750 285 745 q 267 762 273 755 q 245 888 231 814 q 321 1011 262 959 q 383 1049 351 1036 q 450 1063 414 1063 q 511 1049 485 1063 q 557 1011 538 1036 q 565 997 561 1004 q 572 982 569 990 l 599 947 q 622 893 616 924 q 621 827 628 862 q 547 704 604 755 q 487 668 519 680 q 422 656 456 656 q 315 704 353 656 l 289 739 m 550 888 q 532 990 562 949 q 494 1022 516 1011 q 443 1034 473 1034 q 387 1022 414 1034 q 336 990 360 1011 q 296 944 313 969 q 273 888 280 918 q 293 783 261 826 q 331 752 308 762 q 382 742 353 742 q 489 783 439 742 q 550 888 538 826 m 504 888 q 489 849 500 867 q 462 818 477 831 q 429 798 447 805 q 392 790 410 790 q 357 798 372 790 q 332 818 342 805 q 319 849 323 831 q 319 888 315 867 q 335 925 324 907 q 361 956 346 943 q 395 977 376 969 q 432 985 413 985 q 467 977 451 985 q 492 956 482 969 q 505 925 502 943 q 504 888 509 907 z "},"±":{"ha":690,"x_min":52,"x_max":734,"o":"m 58 -29 l 52 -29 l 83 126 l 602 126 l 600 119 l 643 62 l 611 -86 l 102 -86 l 58 -29 m 566 564 l 694 564 l 693 557 l 734 500 l 704 351 l 519 351 l 478 157 l 336 157 l 294 214 l 286 214 l 315 351 l 193 351 l 150 408 l 143 408 l 178 564 l 363 564 l 403 758 l 551 758 l 549 751 l 591 694 l 566 564 m 640 437 l 661 534 l 476 534 l 518 729 l 425 729 l 383 534 l 199 534 l 179 437 l 364 437 l 322 243 l 414 243 l 456 437 l 640 437 m 547 0 l 568 97 l 106 97 l 85 0 l 547 0 z "},"²":{"ha":518,"x_min":179,"x_max":655,"o":"m 643 880 q 611 810 635 843 q 554 758 587 777 l 564 758 l 561 751 l 603 694 l 567 521 l 229 521 l 187 578 l 179 578 l 218 760 q 252 833 227 800 q 311 886 277 867 l 307 886 l 265 943 l 257 943 l 296 1122 l 497 1122 q 564 1104 536 1122 q 603 1054 591 1086 l 632 1015 q 651 968 647 996 q 648 911 655 941 l 643 880 m 503 607 l 529 729 l 298 729 l 309 775 q 328 807 313 794 q 361 821 343 821 l 432 821 q 479 830 456 821 q 522 856 503 840 q 555 895 541 873 q 575 942 569 917 l 581 972 q 582 1020 587 998 q 565 1058 578 1042 q 533 1084 553 1074 q 490 1093 514 1093 l 317 1093 l 292 972 l 452 972 q 478 959 468 972 q 485 928 489 945 q 461 891 481 904 q 410 880 442 879 l 387 880 q 341 871 363 880 q 299 845 318 861 q 266 807 280 829 q 248 760 252 785 l 214 607 l 503 607 z "},"³":{"ha":518,"x_min":179,"x_max":654,"o":"m 187 578 l 179 578 l 218 758 l 315 758 l 290 791 l 283 791 l 306 889 l 265 943 l 257 943 l 296 1122 l 497 1122 q 564 1104 536 1122 q 603 1054 591 1086 l 631 1017 q 650 967 646 996 q 647 905 654 939 q 620 842 640 871 q 574 791 601 812 l 585 778 q 597 668 612 739 q 575 611 591 637 q 535 564 558 584 q 484 532 511 544 q 427 521 456 521 l 229 521 l 187 578 m 529 729 q 475 850 549 824 q 511 868 494 856 q 542 895 528 880 q 565 928 555 910 q 579 966 575 947 q 582 1016 585 993 q 567 1057 578 1040 q 535 1083 555 1074 q 490 1093 515 1093 l 317 1093 l 292 972 l 452 972 q 478 959 468 972 q 485 928 489 945 q 478 910 484 918 q 465 895 473 901 q 449 884 458 888 q 432 880 440 880 l 330 880 l 317 821 l 418 821 q 446 807 435 821 q 453 775 457 794 q 433 743 448 758 q 400 729 417 729 l 240 729 l 214 607 l 387 607 q 435 617 412 607 q 477 643 458 627 q 510 682 496 660 q 529 729 524 704 z "},"´":{"ha":390,"x_min":250,"x_max":492,"o":"m 332 772 l 325 772 l 250 1002 l 408 1002 l 410 990 l 450 937 l 492 715 l 374 715 l 332 772 m 416 802 l 383 972 l 292 972 l 347 802 l 416 802 z "},"µ":{"ha":806,"x_min":-1,"x_max":918,"o":"m 347 304 q 345 291 345 297 q 345 278 345 284 q 359 274 352 276 q 374 272 366 272 l 578 272 l 707 879 l 878 879 l 876 872 l 918 815 l 726 -86 l 355 -86 q 312 -81 332 -86 q 275 -64 291 -75 l 273 -62 q 271 -60 271 -62 l 212 -329 l 49 -329 l 5 -272 l -1 -272 l 244 879 l 415 879 l 414 872 l 457 815 l 347 304 m 663 0 l 843 850 l 728 850 l 599 243 l 368 243 q 326 252 345 243 q 294 278 307 262 q 277 317 282 295 q 278 364 273 339 l 382 850 l 267 850 l 33 -243 l 149 -243 l 218 82 q 222 47 215 62 q 245 20 229 31 q 278 4 261 9 q 315 0 296 0 l 663 0 z "},"μ":{"ha":806,"x_min":-1,"x_max":918,"o":"m 347 304 q 345 291 345 297 q 345 278 345 284 q 359 274 352 276 q 374 272 366 272 l 578 272 l 707 879 l 878 879 l 876 872 l 918 815 l 726 -86 l 355 -86 q 312 -81 332 -86 q 275 -64 291 -75 l 273 -62 q 271 -60 271 -62 l 212 -329 l 49 -329 l 5 -272 l -1 -272 l 244 879 l 415 879 l 414 872 l 457 815 l 347 304 m 663 0 l 843 850 l 728 850 l 599 243 l 368 243 q 326 252 345 243 q 294 278 307 262 q 277 317 282 295 q 278 364 273 339 l 382 850 l 267 850 l 33 -243 l 149 -243 l 218 82 q 222 47 215 62 q 245 20 229 31 q 278 4 261 9 q 315 0 296 0 l 663 0 z "},"¶":{"ha":921,"x_min":176,"x_max":1060,"o":"m 262 446 q 235 476 246 458 q 199 668 176 557 l 212 729 q 329 921 235 842 q 529 1002 422 1002 l 1018 1002 l 1017 994 l 1060 937 l 1023 764 l 908 764 l 675 -329 l 510 -329 l 468 -272 l 461 -272 l 684 764 l 676 764 l 443 -329 l 279 -329 l 237 -272 l 231 -272 l 364 354 q 319 379 338 363 q 283 418 299 395 l 262 446 m 958 850 l 985 972 l 522 972 q 345 900 429 972 q 240 729 261 829 l 228 668 q 224 575 216 618 q 258 497 233 533 q 322 444 286 462 q 406 425 359 425 l 264 -243 l 379 -243 l 612 850 l 728 850 l 494 -243 l 610 -243 l 843 850 l 958 850 z "},"·":{"ha":390,"x_min":122,"x_max":431,"o":"m 131 311 l 122 311 l 171 539 l 389 539 l 387 532 l 431 475 l 383 254 l 172 254 l 131 311 m 319 340 l 354 510 l 193 510 l 158 340 l 319 340 z "},"¸":{"ha":412,"x_min":-11,"x_max":314,"o":"m 69 -114 l 61 -114 l 132 53 l 257 53 l 254 46 l 297 -11 l 267 -85 l 292 -121 q 309 -160 304 -138 q 309 -207 314 -182 q 289 -255 303 -233 q 256 -294 275 -277 q 213 -319 236 -310 q 165 -329 189 -329 l 39 -329 l -3 -272 l -11 -272 l 40 -178 l 140 -178 q 149 -176 144 -178 q 160 -171 153 -174 l 111 -171 l 69 -114 m 237 -146 q 231 -86 245 -113 q 184 -52 216 -59 l 218 24 l 149 24 l 102 -85 l 160 -85 q 196 -103 183 -85 q 204 -146 209 -121 q 195 -169 202 -158 q 179 -189 189 -180 q 157 -202 169 -197 q 134 -207 146 -207 l 53 -207 l 33 -243 l 125 -243 q 163 -235 144 -243 q 197 -215 182 -228 q 223 -184 212 -201 q 237 -146 234 -166 z "},"¹":{"ha":345,"x_min":179,"x_max":479,"o":"m 187 578 l 179 578 l 218 758 l 248 758 l 282 920 l 265 943 l 257 943 l 296 1122 l 437 1122 l 436 1116 l 479 1059 l 408 724 l 431 694 l 393 521 l 229 521 l 187 578 m 329 607 l 355 729 l 328 729 l 404 1093 l 317 1093 l 292 972 l 321 972 l 269 729 l 240 729 l 214 607 l 329 607 z "},"º":{"ha":661,"x_min":157,"x_max":765,"o":"m 551 699 l 553 704 l 465 704 q 440 699 453 704 q 418 685 428 694 q 400 664 408 675 q 390 637 393 652 l 370 546 l 374 546 l 461 546 q 506 564 486 546 q 532 607 526 581 l 551 699 m 218 340 q 205 353 211 346 q 195 367 200 359 q 164 435 172 398 q 167 517 157 473 l 225 790 q 315 939 243 878 q 471 1002 389 1002 l 558 1002 q 686 939 642 1002 q 696 923 692 931 q 704 908 701 916 l 729 876 q 758 809 751 846 q 755 729 765 772 l 697 456 q 666 375 688 412 q 608 307 644 338 q 456 248 538 248 l 368 248 q 296 263 328 248 q 241 309 264 278 l 218 340 m 628 517 l 686 790 q 664 918 703 865 q 551 972 622 972 l 465 972 q 332 918 395 972 q 281 860 301 892 q 253 790 261 828 l 195 517 q 193 446 187 479 q 218 387 199 414 q 329 335 259 335 l 415 335 q 550 386 489 335 q 600 446 581 414 q 628 517 619 478 m 559 607 q 546 571 555 587 q 522 543 536 555 q 490 524 507 530 q 454 517 473 517 l 368 517 q 336 524 351 517 q 313 544 322 531 q 301 572 304 556 q 301 607 298 589 l 321 699 q 335 734 325 718 q 360 763 346 751 q 392 783 374 776 q 427 790 409 790 l 513 790 q 544 783 530 790 q 567 763 558 776 q 580 734 576 751 q 579 699 583 718 l 559 607 z "},"»":{"ha":916,"x_min":64,"x_max":908,"o":"m 493 390 l 478 403 l 587 534 l 867 313 l 865 306 l 908 249 l 879 122 l 511 -96 l 468 -37 l 464 -41 l 422 57 l 165 -96 l 121 -37 l 119 -41 l 64 90 l 315 237 l 180 345 l 147 390 l 131 403 l 241 534 l 519 313 l 519 306 l 561 249 l 545 170 l 661 237 l 528 345 l 493 390 m 815 199 l 836 296 l 587 493 l 519 412 l 726 248 l 449 82 l 482 0 l 815 199 m 469 199 l 490 296 l 240 493 l 172 412 l 380 248 l 102 82 l 136 0 l 469 199 z "},"¼":{"ha":690,"x_min":147,"x_max":733,"o":"m 154 421 l 147 421 l 175 551 l 370 551 l 367 554 l 359 554 l 393 710 l 416 710 l 441 829 l 429 846 l 422 846 l 454 1002 l 579 1002 l 578 994 l 621 937 l 564 669 l 582 646 l 562 551 l 693 551 l 690 545 l 733 488 l 707 364 l 582 364 l 589 354 l 496 -86 l 401 -86 l 358 -29 l 351 -29 l 354 -18 l 231 -18 l 189 39 l 180 39 l 240 321 l 343 321 l 342 314 l 383 257 l 371 195 l 399 195 l 435 364 l 197 364 l 154 421 m 486 583 l 507 681 l 484 681 l 546 972 l 476 972 l 456 875 l 479 875 l 437 681 l 414 681 l 393 583 l 486 583 m 643 450 l 657 522 l 196 522 l 180 450 l 643 450 m 432 0 l 514 389 l 468 389 l 421 165 l 282 165 l 309 292 l 262 292 l 215 68 l 400 68 l 385 0 l 432 0 z "},"½":{"ha":690,"x_min":147,"x_max":733,"o":"m 154 421 l 147 421 l 175 551 l 370 551 l 367 554 l 359 554 l 393 710 l 416 710 l 441 829 l 429 846 l 422 846 l 454 1002 l 579 1002 l 578 994 l 621 937 l 564 669 l 582 646 l 562 551 l 693 551 l 690 545 l 733 488 l 707 364 l 517 364 q 517 358 517 361 q 519 354 518 356 l 546 317 q 563 279 558 301 q 562 231 568 256 l 558 207 q 534 151 551 176 q 492 110 517 125 l 528 62 l 496 -86 l 216 -86 l 174 -29 l 167 -29 l 199 121 q 223 178 205 151 q 267 221 241 204 l 236 262 l 228 262 l 250 364 l 197 364 l 154 421 m 486 583 l 507 681 l 484 681 l 546 972 l 476 972 l 456 875 l 479 875 l 437 681 l 414 681 l 393 583 l 486 583 m 643 450 l 657 522 l 196 522 l 180 450 l 643 450 m 432 0 l 452 97 l 267 97 l 275 134 q 318 170 283 170 l 375 170 q 413 177 394 170 q 447 198 431 185 q 473 229 462 212 q 489 267 484 247 l 493 292 q 494 329 497 311 q 480 360 490 347 q 456 381 471 373 q 422 389 441 389 l 283 389 l 262 292 l 390 292 q 414 282 407 292 q 416 256 421 273 q 374 218 408 218 l 339 218 q 301 211 319 218 q 268 190 283 203 q 241 159 252 176 q 227 121 231 141 l 200 0 l 432 0 z "},"¾":{"ha":690,"x_min":147,"x_max":733,"o":"m 154 421 l 147 421 l 175 551 l 300 551 l 297 554 l 290 554 l 323 710 l 392 710 l 380 724 l 374 724 l 390 804 l 359 846 l 353 846 l 385 1002 l 551 1002 q 610 984 586 1002 q 643 937 633 967 l 671 900 q 687 862 682 884 q 686 814 692 840 l 686 810 q 628 717 673 748 l 633 711 q 646 619 659 677 q 633 583 642 601 q 612 551 624 565 l 693 551 l 690 545 l 733 488 l 707 364 l 582 364 l 589 354 l 496 -86 l 401 -86 l 358 -29 l 351 -29 l 354 -18 l 231 -18 l 189 39 l 180 39 l 240 321 l 343 321 l 342 314 l 383 257 l 371 195 l 399 195 l 435 364 l 197 364 l 154 421 m 576 681 q 533 778 593 754 q 616 869 602 798 l 616 875 q 617 912 621 895 q 605 944 614 930 q 580 965 595 957 q 546 972 565 972 l 407 972 l 386 875 l 514 875 q 541 839 549 875 q 498 802 532 802 l 416 802 l 407 753 l 489 753 q 514 717 522 753 q 472 681 508 681 l 345 681 l 325 583 l 463 583 q 500 591 481 583 q 535 611 519 598 q 561 643 550 625 q 576 681 572 661 m 643 450 l 657 522 l 196 522 l 180 450 l 643 450 m 432 0 l 514 389 l 468 389 l 421 165 l 282 165 l 309 292 l 262 292 l 215 68 l 400 68 l 385 0 l 432 0 z "},"¿":{"ha":736,"x_min":59,"x_max":791,"o":"m 492 652 l 485 652 l 533 879 l 751 879 l 750 872 l 791 815 l 743 595 l 533 595 l 492 652 m 407 157 q 386 150 396 157 l 653 150 l 652 143 l 694 86 l 632 -208 l 330 -208 q 236 -188 277 -208 q 167 -129 195 -168 l 146 -102 q 132 -87 138 -95 q 119 -71 125 -79 q 82 121 59 10 q 124 226 94 178 q 200 314 153 273 q 296 374 247 354 q 400 393 345 393 l 465 393 l 519 587 l 642 587 l 639 579 l 682 524 l 628 157 l 407 157 m 681 681 l 717 850 l 555 850 l 519 681 l 681 681 m 568 -122 l 618 121 l 342 121 q 321 126 330 121 q 305 139 311 131 q 297 159 299 148 q 297 182 294 170 q 308 205 300 194 q 325 225 315 216 q 346 238 334 233 q 368 243 357 243 l 564 243 l 608 558 l 539 558 l 485 364 l 393 364 q 215 293 298 364 q 148 215 174 257 q 111 121 121 172 q 109 28 100 71 q 142 -50 117 -14 q 206 -104 169 -85 q 290 -122 243 -122 l 568 -122 z "},"À":{"ha":806,"x_min":52,"x_max":899,"o":"m 367 393 l 604 393 l 648 607 q 652 639 654 625 q 639 642 645 640 q 627 643 633 643 l 510 643 q 474 635 492 643 q 441 614 456 627 q 415 584 426 602 q 400 547 404 566 l 367 393 m 58 -29 l 52 -29 l 212 729 q 329 921 235 842 q 529 1002 422 1002 l 555 1002 l 546 1015 l 539 1015 l 464 1244 l 623 1244 l 624 1234 l 663 1181 l 697 996 q 762 970 734 988 q 811 922 789 951 q 822 905 817 913 q 831 889 827 897 l 852 860 q 891 772 882 820 q 888 668 899 725 l 726 -86 l 562 -86 l 519 -29 l 514 -29 l 553 157 l 315 157 l 265 -86 l 102 -86 l 58 -29 m 631 1044 l 597 1215 l 505 1215 l 561 1044 l 631 1044 m 663 0 l 818 729 q 787 901 837 831 q 725 955 762 937 q 637 972 688 972 l 522 972 q 345 900 429 972 q 240 729 261 829 l 85 0 l 200 0 l 253 243 l 599 243 l 547 0 l 663 0 m 625 364 l 278 364 l 329 607 q 349 654 335 632 q 382 693 363 677 q 424 720 401 710 q 471 729 447 729 l 587 729 q 631 720 612 729 q 662 694 650 710 q 677 655 673 677 q 675 607 681 633 l 625 364 z "},"Á":{"ha":806,"x_min":52,"x_max":899,"o":"m 367 393 l 604 393 l 648 607 q 652 639 654 625 q 639 642 645 640 q 627 643 633 643 l 510 643 q 474 635 492 643 q 441 614 456 627 q 415 584 426 602 q 400 547 404 566 l 367 393 m 808 1239 l 850 1181 l 710 993 q 766 966 743 985 q 811 922 790 948 q 822 905 817 913 q 831 889 827 897 l 852 860 q 891 772 882 820 q 888 668 899 725 l 726 -86 l 562 -86 l 519 -29 l 514 -29 l 553 157 l 315 157 l 265 -86 l 102 -86 l 58 -29 l 52 -29 l 212 729 q 329 921 235 842 q 529 1002 422 1002 l 533 1002 l 524 1015 l 514 1015 l 656 1244 l 812 1244 l 808 1239 m 760 1215 l 667 1215 l 561 1044 l 631 1044 l 760 1215 m 663 0 l 818 729 q 787 901 837 831 q 725 955 762 937 q 637 972 688 972 l 522 972 q 345 900 429 972 q 240 729 261 829 l 85 0 l 200 0 l 253 243 l 599 243 l 547 0 l 663 0 m 625 364 l 278 364 l 329 607 q 349 654 335 632 q 382 693 363 677 q 424 720 401 710 q 471 729 447 729 l 587 729 q 631 720 612 729 q 662 694 650 710 q 677 655 673 677 q 675 607 681 633 l 625 364 z "},"Â":{"ha":806,"x_min":52,"x_max":899,"o":"m 660 1002 l 650 1015 l 646 1015 l 639 1028 l 616 1002 l 644 1002 l 660 1002 m 367 393 l 604 393 l 648 607 q 652 639 654 625 q 639 642 645 640 q 627 643 633 643 l 510 643 q 474 635 492 643 q 441 614 456 627 q 415 584 426 602 q 400 547 404 566 l 367 393 m 58 -29 l 52 -29 l 212 729 q 329 921 235 842 q 382 959 355 943 q 435 985 409 975 l 412 1015 l 404 1015 l 576 1244 l 701 1244 l 704 1229 l 743 1181 l 817 958 l 777 958 q 795 941 787 950 q 811 922 804 932 q 822 905 817 913 q 831 889 827 897 l 852 860 q 891 772 882 820 q 888 668 899 725 l 726 -86 l 562 -86 l 519 -29 l 514 -29 l 553 157 l 315 157 l 265 -86 l 102 -86 l 58 -29 m 734 1044 l 679 1215 l 587 1215 l 458 1044 l 528 1044 l 618 1147 l 665 1044 l 734 1044 m 663 0 l 818 729 q 787 901 837 831 q 725 955 762 937 q 637 972 688 972 l 522 972 q 345 900 429 972 q 240 729 261 829 l 85 0 l 200 0 l 253 243 l 599 243 l 547 0 l 663 0 m 625 364 l 278 364 l 329 607 q 349 654 335 632 q 382 693 363 677 q 424 720 401 710 q 471 729 447 729 l 587 729 q 631 720 612 729 q 662 694 650 710 q 677 655 673 677 q 675 607 681 633 l 625 364 z "},"Ã":{"ha":806,"x_min":52,"x_max":899,"o":"m 587 1007 q 572 1006 580 1007 q 553 1002 564 1005 l 607 1002 q 596 1006 602 1005 q 587 1007 591 1007 m 367 393 l 604 393 l 648 607 q 652 639 654 625 q 639 642 645 640 q 627 643 633 643 l 510 643 q 474 635 492 643 q 441 614 456 627 q 415 584 426 602 q 400 547 404 566 l 367 393 m 58 -29 l 52 -29 l 212 729 q 329 921 235 842 q 362 946 345 935 q 396 966 379 958 l 387 981 l 379 975 l 418 1154 q 575 1219 496 1219 q 643 1192 607 1219 q 664 1176 654 1182 q 681 1171 674 1171 q 748 1193 708 1171 q 842 1260 789 1215 l 840 1249 l 882 1190 l 850 1034 l 838 1015 q 762 970 801 984 q 788 949 776 960 q 811 922 801 937 q 822 905 817 913 q 831 889 827 897 l 852 860 q 891 772 882 820 q 888 668 899 725 l 726 -86 l 562 -86 l 519 -29 l 514 -29 l 553 157 l 315 157 l 265 -86 l 102 -86 l 58 -29 m 779 1093 l 800 1190 q 675 1141 742 1141 q 650 1148 663 1141 q 623 1166 637 1155 q 568 1190 593 1190 q 504 1179 534 1190 q 443 1141 473 1167 l 422 1044 q 549 1093 479 1093 q 573 1087 560 1093 q 602 1069 587 1081 q 629 1051 616 1058 q 654 1044 643 1044 q 779 1093 722 1044 m 663 0 l 818 729 q 787 901 837 831 q 725 955 762 937 q 637 972 688 972 l 522 972 q 345 900 429 972 q 240 729 261 829 l 85 0 l 200 0 l 253 243 l 599 243 l 547 0 l 663 0 m 625 364 l 278 364 l 329 607 q 349 654 335 632 q 382 693 363 677 q 424 720 401 710 q 471 729 447 729 l 587 729 q 631 720 612 729 q 662 694 650 710 q 677 655 673 677 q 675 607 681 633 l 625 364 z "},"Ä":{"ha":806,"x_min":52,"x_max":899,"o":"m 367 393 l 604 393 l 648 607 q 652 639 654 625 q 639 642 645 640 q 627 643 633 643 l 510 643 q 474 635 492 643 q 441 614 456 627 q 415 584 426 602 q 400 547 404 566 l 367 393 m 611 1002 l 637 1002 l 627 1015 l 619 1015 l 657 1196 l 829 1196 l 828 1189 l 869 1132 l 833 958 l 777 958 q 795 941 787 950 q 811 922 804 932 q 822 905 817 913 q 831 889 827 897 l 852 860 q 891 772 882 820 q 888 668 899 725 l 726 -86 l 562 -86 l 519 -29 l 514 -29 l 553 157 l 315 157 l 265 -86 l 102 -86 l 58 -29 l 52 -29 l 212 729 q 329 921 235 842 q 422 979 374 960 l 396 1015 l 389 1015 l 427 1196 l 597 1196 l 597 1189 l 639 1132 l 611 1002 m 770 1044 l 794 1166 l 679 1166 l 654 1044 l 770 1044 m 539 1044 l 564 1166 l 449 1166 l 422 1044 l 539 1044 m 663 0 l 818 729 q 787 901 837 831 q 725 955 762 937 q 637 972 688 972 l 522 972 q 345 900 429 972 q 240 729 261 829 l 85 0 l 200 0 l 253 243 l 599 243 l 547 0 l 663 0 m 625 364 l 278 364 l 329 607 q 349 654 335 632 q 382 693 363 677 q 424 720 401 710 q 471 729 447 729 l 587 729 q 631 720 612 729 q 662 694 650 710 q 677 655 673 677 q 675 607 681 633 l 625 364 z "},"Å":{"ha":806,"x_min":52,"x_max":897,"o":"m 665 1069 q 667 1075 667 1073 q 667 1080 667 1077 l 661 1080 q 634 1075 648 1080 q 609 1059 621 1069 q 589 1036 597 1049 q 578 1008 581 1023 l 576 1002 l 587 1002 q 612 1007 600 1002 q 636 1022 625 1013 q 655 1044 647 1031 q 665 1069 663 1056 m 367 393 l 604 393 l 648 607 q 652 639 654 625 q 639 642 645 640 q 627 643 633 643 l 510 643 q 474 635 492 643 q 441 614 456 627 q 415 584 426 602 q 400 547 404 566 l 367 393 m 808 1008 q 800 977 805 991 q 787 947 794 962 q 806 927 798 939 q 822 903 814 916 q 825 897 825 899 q 829 890 826 894 l 848 864 q 857 852 853 859 q 864 840 861 846 q 891 760 886 802 q 888 668 897 717 l 726 -86 l 562 -86 l 519 -29 l 514 -29 l 553 157 l 315 157 l 265 -86 l 102 -86 l 58 -29 l 52 -29 l 212 729 q 247 821 223 777 q 310 903 271 864 q 371 951 339 931 q 437 985 403 971 q 435 1069 427 1025 q 510 1193 451 1143 q 639 1244 570 1244 q 746 1193 709 1244 q 754 1179 750 1185 q 762 1164 759 1173 l 787 1131 q 811 1075 805 1105 q 808 1008 817 1044 m 663 0 l 818 729 q 822 812 827 774 q 799 885 817 851 q 679 968 759 951 q 741 1069 727 1009 q 742 1126 747 1100 q 722 1173 737 1152 q 684 1204 707 1193 q 633 1215 662 1215 q 577 1204 604 1215 q 525 1173 550 1193 q 463 1069 475 1131 q 461 1015 456 1040 q 481 968 465 989 q 399 939 437 960 q 326 885 361 918 q 240 729 260 817 l 85 0 l 200 0 l 253 243 l 599 243 l 547 0 l 663 0 m 694 1069 q 679 1031 690 1049 q 653 1001 668 1014 q 618 980 637 987 q 581 972 600 972 q 546 980 561 972 q 522 1001 531 987 q 509 1031 512 1014 q 510 1069 506 1049 q 524 1107 513 1089 q 550 1138 535 1124 q 584 1159 566 1151 q 623 1166 603 1166 q 656 1159 642 1166 q 681 1138 671 1151 q 694 1107 691 1124 q 694 1069 698 1089 m 625 364 l 278 364 l 329 607 q 349 654 335 632 q 382 693 363 677 q 424 720 401 710 q 471 729 447 729 l 587 729 q 631 720 612 729 q 662 694 650 710 q 677 655 673 677 q 675 607 681 633 l 625 364 z "},"Æ":{"ha":1095,"x_min":52,"x_max":1232,"o":"m 367 393 l 604 393 l 648 607 q 652 639 654 625 q 639 642 645 640 q 627 643 633 643 l 510 643 q 474 635 492 643 q 441 614 456 627 q 415 584 426 602 q 400 547 404 566 l 367 393 m 810 304 q 807 291 808 297 q 806 277 806 284 q 836 272 819 272 l 1038 272 l 1035 265 l 1076 208 l 1015 -86 l 818 -86 q 723 -67 764 -86 q 654 -8 682 -48 l 631 21 q 617 34 623 27 q 606 50 612 41 q 566 157 570 96 l 315 157 l 265 -86 l 102 -86 l 58 -29 l 52 -29 l 212 729 q 329 921 235 842 q 529 1002 422 1002 l 597 1002 q 724 961 671 1002 l 733 1002 l 1192 1002 l 1190 994 l 1232 937 l 1169 643 l 880 643 l 868 576 l 986 576 l 985 568 l 1025 511 l 989 339 l 817 339 l 810 304 m 951 0 l 1004 243 l 831 243 q 786 252 806 243 q 755 278 767 262 q 739 316 743 294 q 741 364 734 338 l 753 425 l 926 425 l 953 547 l 779 547 l 818 729 l 1107 729 l 1158 972 l 753 972 l 739 904 q 676 955 713 938 q 591 972 640 972 l 522 972 q 345 900 429 972 q 240 729 261 829 l 85 0 l 200 0 l 253 243 l 599 243 q 628 71 578 142 q 778 0 682 0 l 951 0 m 625 364 l 278 364 l 329 607 q 349 654 335 632 q 382 693 363 677 q 424 720 401 710 q 471 729 447 729 l 587 729 q 631 720 612 729 q 662 694 650 710 q 677 655 673 677 q 675 607 681 633 l 625 364 z "},"Ç":{"ha":806,"x_min":96,"x_max":945,"o":"m 347 304 q 345 291 345 297 q 345 278 345 284 q 359 274 352 276 q 374 272 366 272 l 749 272 l 746 265 l 789 208 l 726 -86 l 510 -86 l 534 -121 q 552 -160 547 -138 q 550 -207 556 -182 q 531 -255 545 -233 q 498 -294 517 -277 q 455 -319 478 -310 q 407 -329 431 -329 l 282 -329 l 239 -272 l 231 -272 l 282 -178 l 383 -178 q 391 -176 387 -178 q 401 -171 395 -174 l 354 -171 l 311 -114 l 304 -114 l 317 -83 q 247 -57 278 -76 q 193 -7 215 -39 l 171 20 q 157 35 163 27 q 144 52 151 42 q 105 139 114 92 q 110 243 96 186 l 212 729 q 329 921 235 842 q 529 1002 422 1002 l 903 1002 l 901 994 l 945 937 l 880 643 l 510 643 q 474 635 492 643 q 441 614 456 627 q 415 584 426 602 q 400 547 404 566 l 347 304 m 663 0 l 714 243 l 368 243 q 326 252 345 243 q 294 278 307 262 q 277 317 282 295 q 278 364 273 339 l 329 607 q 349 654 335 632 q 382 693 363 677 q 424 720 401 710 q 471 729 447 729 l 818 729 l 869 972 l 522 972 q 345 900 429 972 q 240 729 261 829 l 138 243 q 170 72 115 144 q 232 18 195 35 q 315 0 269 0 l 380 0 l 345 -85 l 403 -85 q 423 -90 414 -85 q 438 -103 432 -94 q 446 -122 444 -111 q 446 -146 448 -134 q 437 -169 444 -158 q 420 -189 430 -180 q 399 -202 411 -197 q 376 -207 388 -207 l 296 -207 l 277 -243 l 368 -243 q 406 -235 387 -243 q 440 -215 425 -228 q 466 -184 455 -201 q 481 -146 477 -166 q 473 -86 488 -113 q 428 -52 458 -59 l 450 0 l 663 0 z "},"È":{"ha":690,"x_min":83,"x_max":829,"o":"m 170 21 q 143 50 155 34 q 110 243 83 130 l 269 1002 l 498 1002 l 488 1015 l 482 1015 l 407 1244 l 564 1244 l 567 1234 l 606 1181 l 639 1002 l 787 1002 l 786 994 l 829 937 l 765 643 l 419 643 l 406 576 l 582 576 l 579 568 l 623 511 l 586 339 l 354 339 l 347 304 q 345 291 345 297 q 345 277 345 284 q 374 272 358 272 l 633 272 l 631 265 l 673 208 l 611 -86 l 355 -86 q 261 -67 302 -86 q 192 -8 219 -48 l 170 21 m 574 1044 l 541 1215 l 449 1215 l 504 1044 l 574 1044 m 547 0 l 599 243 l 368 243 q 325 252 344 243 q 293 278 305 262 q 277 316 281 294 q 278 364 273 338 l 290 425 l 521 425 l 549 547 l 317 547 l 355 729 l 703 729 l 753 972 l 292 972 l 138 243 q 167 71 115 142 q 315 0 219 0 l 547 0 z "},"É":{"ha":690,"x_min":83,"x_max":829,"o":"m 751 1239 l 793 1181 l 657 1002 l 787 1002 l 786 994 l 829 937 l 765 643 l 419 643 l 406 576 l 582 576 l 579 568 l 623 511 l 586 339 l 354 339 l 347 304 q 345 291 345 297 q 345 277 345 284 q 374 272 358 272 l 633 272 l 631 265 l 673 208 l 611 -86 l 355 -86 q 261 -67 302 -86 q 192 -8 219 -48 l 170 21 q 143 50 155 34 q 110 243 83 130 l 269 1002 l 476 1002 l 465 1015 l 457 1015 l 599 1244 l 755 1244 l 751 1239 m 703 1215 l 610 1215 l 504 1044 l 574 1044 l 703 1215 m 547 0 l 599 243 l 368 243 q 325 252 344 243 q 293 278 305 262 q 277 316 281 294 q 278 364 273 338 l 290 425 l 521 425 l 549 547 l 317 547 l 355 729 l 703 729 l 753 972 l 292 972 l 138 243 q 167 71 115 142 q 315 0 219 0 l 547 0 z "},"Ê":{"ha":690,"x_min":83,"x_max":829,"o":"m 581 1028 l 558 1002 l 603 1002 l 593 1015 l 587 1015 l 581 1028 m 170 21 q 143 50 155 34 q 110 243 83 130 l 269 1002 l 366 1002 l 355 1015 l 346 1015 l 519 1244 l 644 1244 l 646 1229 l 685 1181 l 743 1002 l 787 1002 l 786 994 l 829 937 l 765 643 l 419 643 l 406 576 l 582 576 l 579 568 l 623 511 l 586 339 l 354 339 l 347 304 q 345 291 345 297 q 345 277 345 284 q 374 272 358 272 l 633 272 l 631 265 l 673 208 l 611 -86 l 355 -86 q 261 -67 302 -86 q 192 -8 219 -48 l 170 21 m 676 1044 l 621 1215 l 529 1215 l 400 1044 l 469 1044 l 559 1147 l 607 1044 l 676 1044 m 547 0 l 599 243 l 368 243 q 325 252 344 243 q 293 278 305 262 q 277 316 281 294 q 278 364 273 338 l 290 425 l 521 425 l 549 547 l 317 547 l 355 729 l 703 729 l 753 972 l 292 972 l 138 243 q 167 71 115 142 q 315 0 219 0 l 547 0 z "},"Ë":{"ha":690,"x_min":83,"x_max":829,"o":"m 553 1002 l 579 1002 l 570 1015 l 562 1015 l 600 1196 l 772 1196 l 771 1189 l 811 1132 l 783 1002 l 787 1002 l 786 994 l 829 937 l 765 643 l 419 643 l 406 576 l 582 576 l 579 568 l 623 511 l 586 339 l 354 339 l 347 304 q 345 291 345 297 q 345 277 345 284 q 374 272 358 272 l 633 272 l 631 265 l 673 208 l 611 -86 l 355 -86 q 261 -67 302 -86 q 192 -8 219 -48 l 170 21 q 143 50 155 34 q 110 243 83 130 l 269 1002 l 349 1002 l 339 1015 l 332 1015 l 370 1196 l 541 1196 l 539 1189 l 581 1132 l 553 1002 m 713 1044 l 737 1166 l 623 1166 l 597 1044 l 713 1044 m 481 1044 l 507 1166 l 392 1166 l 366 1044 l 481 1044 m 547 0 l 599 243 l 368 243 q 325 252 344 243 q 293 278 305 262 q 277 316 281 294 q 278 364 273 338 l 290 425 l 521 425 l 549 547 l 317 547 l 355 729 l 703 729 l 753 972 l 292 972 l 138 243 q 167 71 115 142 q 315 0 219 0 l 547 0 z "},"Ì":{"ha":460,"x_min":52,"x_max":597,"o":"m 58 -29 l 52 -29 l 115 272 l 174 272 l 253 646 l 212 700 l 205 700 l 269 1002 l 383 1002 l 372 1015 l 367 1015 l 292 1244 l 449 1244 l 452 1234 l 490 1181 l 524 1002 l 557 1002 l 555 994 l 597 937 l 534 643 l 476 643 l 399 272 l 403 272 l 400 265 l 441 208 l 380 -86 l 102 -86 l 58 -29 m 458 1044 l 425 1215 l 334 1215 l 389 1044 l 458 1044 m 315 0 l 368 243 l 311 243 l 414 729 l 471 729 l 522 972 l 292 972 l 240 729 l 298 729 l 196 243 l 138 243 l 85 0 l 315 0 z "},"Í":{"ha":460,"x_min":52,"x_max":676,"o":"m 636 1239 l 676 1181 l 542 1002 l 557 1002 l 555 994 l 597 937 l 534 643 l 476 643 l 399 272 l 403 272 l 400 265 l 441 208 l 380 -86 l 102 -86 l 58 -29 l 52 -29 l 115 272 l 174 272 l 253 646 l 212 700 l 205 700 l 269 1002 l 361 1002 l 350 1015 l 342 1015 l 484 1244 l 640 1244 l 636 1239 m 587 1215 l 494 1215 l 389 1044 l 458 1044 l 587 1215 m 315 0 l 368 243 l 311 243 l 414 729 l 471 729 l 522 972 l 292 972 l 240 729 l 298 729 l 196 243 l 138 243 l 85 0 l 315 0 z "},"Î":{"ha":460,"x_min":52,"x_max":643,"o":"m 465 1028 l 441 1002 l 488 1002 l 478 1015 l 472 1015 l 465 1028 m 58 -29 l 52 -29 l 115 272 l 174 272 l 253 646 l 212 700 l 205 700 l 267 981 l 240 1015 l 231 1015 l 403 1244 l 529 1244 l 530 1229 l 568 1181 l 643 958 l 582 958 l 597 937 l 534 643 l 476 643 l 399 272 l 403 272 l 400 265 l 441 208 l 380 -86 l 102 -86 l 58 -29 m 561 1044 l 505 1215 l 412 1215 l 285 1044 l 354 1044 l 444 1147 l 492 1044 l 561 1044 m 315 0 l 368 243 l 311 243 l 414 729 l 471 729 l 522 972 l 292 972 l 240 729 l 298 729 l 196 243 l 138 243 l 85 0 l 315 0 z "},"Ï":{"ha":460,"x_min":52,"x_max":696,"o":"m 437 1002 l 464 1002 l 454 1015 l 447 1015 l 485 1196 l 656 1196 l 656 1189 l 696 1132 l 660 958 l 582 958 l 597 937 l 534 643 l 476 643 l 399 272 l 403 272 l 400 265 l 441 208 l 380 -86 l 102 -86 l 58 -29 l 52 -29 l 115 272 l 174 272 l 253 646 l 212 700 l 205 700 l 261 962 l 224 1015 l 216 1015 l 254 1196 l 425 1196 l 424 1189 l 465 1132 l 437 1002 m 597 1044 l 623 1166 l 507 1166 l 481 1044 l 597 1044 m 366 1044 l 392 1166 l 277 1166 l 250 1044 l 366 1044 m 315 0 l 368 243 l 311 243 l 414 729 l 471 729 l 522 972 l 292 972 l 240 729 l 298 729 l 196 243 l 138 243 l 85 0 l 315 0 z "},"Ð":{"ha":892,"x_min":113,"x_max":996,"o":"m 734 607 q 737 623 736 615 q 736 639 737 631 q 724 642 730 640 q 713 643 718 643 l 505 643 l 492 576 l 668 576 l 665 568 l 708 511 l 672 339 l 441 339 l 428 272 l 578 272 q 613 279 596 272 q 645 299 631 286 q 670 328 660 311 q 685 364 681 345 l 734 607 m 119 396 l 113 396 l 151 576 l 267 576 l 357 1002 l 732 1002 q 897 921 838 1002 q 908 903 903 911 q 918 885 913 895 l 937 859 q 974 668 996 780 l 869 182 q 830 78 858 125 q 755 -8 802 31 q 558 -86 665 -86 l 187 -86 l 144 -29 l 139 -29 l 216 339 l 161 339 l 119 396 m 802 243 l 905 729 q 872 900 925 830 q 725 972 819 972 l 379 972 l 289 547 l 174 547 l 147 425 l 262 425 l 172 0 l 519 0 q 696 71 614 0 q 802 243 780 141 m 713 364 q 693 316 707 338 q 661 278 680 294 q 618 252 642 262 q 571 243 595 243 l 340 243 l 378 425 l 608 425 l 636 547 l 404 547 l 443 729 l 675 729 q 717 720 698 729 q 748 693 736 710 q 764 654 760 677 q 762 607 768 632 l 713 364 z "},"Ñ":{"ha":806,"x_min":52,"x_max":899,"o":"m 587 1007 q 572 1006 580 1007 q 553 1002 564 1005 l 607 1002 q 596 1006 602 1005 q 587 1007 591 1007 m 58 -29 l 52 -29 l 212 729 q 328 921 235 841 q 362 946 345 935 q 396 966 379 958 l 387 981 l 379 975 l 418 1154 q 575 1219 496 1219 q 643 1192 607 1219 q 664 1176 654 1182 q 681 1171 674 1171 q 748 1193 708 1171 q 842 1260 789 1215 l 840 1249 l 882 1190 l 850 1034 l 838 1015 q 762 970 801 984 q 788 949 776 960 q 811 922 801 937 q 822 905 817 913 q 831 889 827 897 l 850 861 l 850 863 l 852 860 q 891 772 882 820 q 888 668 899 725 l 726 -86 l 562 -86 l 519 -29 l 514 -29 l 648 607 q 652 639 654 625 q 639 642 645 640 q 627 643 633 643 l 510 643 q 474 635 492 643 q 441 614 456 627 q 415 584 426 602 q 400 547 404 566 l 265 -86 l 102 -86 l 58 -29 m 779 1093 l 800 1190 q 675 1141 742 1141 q 650 1148 663 1141 q 623 1166 637 1155 q 568 1190 593 1190 q 504 1179 534 1190 q 443 1141 473 1167 l 422 1044 q 549 1093 479 1093 q 573 1087 560 1093 q 602 1069 587 1081 q 629 1051 616 1058 q 654 1044 643 1044 q 779 1093 722 1044 m 663 0 l 818 729 q 787 901 837 831 q 725 955 762 937 q 637 972 688 972 l 522 972 q 345 900 427 972 q 276 822 302 864 q 240 729 251 780 l 85 0 l 200 0 l 329 607 q 349 654 335 632 q 382 693 363 677 q 424 720 401 710 q 471 729 447 729 l 587 729 q 631 720 612 729 q 662 694 650 710 q 677 655 673 677 q 675 607 681 633 l 547 0 l 663 0 z "},"Ò":{"ha":806,"x_min":82,"x_max":910,"o":"m 648 607 q 651 623 651 615 q 650 639 651 631 q 638 642 644 640 q 627 643 632 643 l 510 643 q 474 635 492 643 q 441 614 456 627 q 415 584 426 602 q 400 547 404 566 l 347 304 q 345 291 345 297 q 345 278 345 284 q 359 274 352 276 q 374 272 366 272 l 490 272 q 526 279 509 272 q 558 299 544 286 q 583 328 573 311 q 597 364 593 345 l 648 607 m 170 21 q 143 50 155 34 q 110 243 82 130 l 212 729 q 328 921 235 841 q 529 1002 420 1002 l 555 1002 l 546 1015 l 539 1015 l 464 1244 l 623 1244 l 624 1234 l 663 1181 l 697 996 q 760 969 732 988 q 810 921 788 950 q 821 903 816 911 q 831 885 827 895 l 851 859 q 888 668 910 780 l 783 182 q 744 78 772 125 q 669 -8 715 31 q 574 -67 623 -48 q 471 -86 526 -86 l 355 -86 q 261 -67 303 -86 q 192 -8 219 -48 l 170 21 m 631 1044 l 597 1215 l 505 1215 l 561 1044 l 631 1044 m 714 243 l 818 729 q 786 900 837 829 q 723 954 760 936 q 637 972 686 972 l 522 972 q 345 900 427 972 q 276 822 302 864 q 240 729 251 780 l 138 243 q 167 71 114 143 q 231 18 193 35 q 315 0 269 0 l 432 0 q 525 18 481 0 q 610 71 569 35 q 714 243 693 142 m 625 364 q 606 316 619 338 q 573 278 592 294 q 531 252 554 262 q 484 243 508 243 l 368 243 q 326 252 345 243 q 294 278 307 262 q 277 317 282 295 q 278 364 273 339 l 329 607 q 349 654 335 632 q 382 693 363 677 q 424 720 401 710 q 471 729 447 729 l 587 729 q 630 720 612 729 q 661 693 649 710 q 677 654 673 677 q 675 607 681 632 l 625 364 z "},"Ó":{"ha":806,"x_min":82,"x_max":910,"o":"m 648 607 q 651 623 651 615 q 650 639 651 631 q 638 642 644 640 q 627 643 632 643 l 510 643 q 474 635 492 643 q 441 614 456 627 q 415 584 426 602 q 400 547 404 566 l 347 304 q 345 291 345 297 q 345 278 345 284 q 359 274 352 276 q 374 272 366 272 l 490 272 q 526 279 509 272 q 558 299 544 286 q 583 328 573 311 q 597 364 593 345 l 648 607 m 808 1239 l 850 1181 l 708 993 q 765 966 741 983 q 810 921 789 948 q 821 903 816 911 q 831 885 827 895 l 851 859 q 888 668 910 780 l 783 182 q 744 78 772 125 q 669 -8 715 31 q 574 -67 623 -48 q 471 -86 526 -86 l 355 -86 q 261 -67 303 -86 q 192 -8 219 -48 l 170 21 q 143 50 155 34 q 110 243 82 130 l 212 729 q 328 921 235 841 q 529 1002 420 1002 l 533 1002 l 524 1015 l 514 1015 l 656 1244 l 812 1244 l 808 1239 m 760 1215 l 667 1215 l 561 1044 l 631 1044 l 760 1215 m 714 243 l 818 729 q 786 900 837 829 q 723 954 760 936 q 637 972 686 972 l 522 972 q 345 900 427 972 q 276 822 302 864 q 240 729 251 780 l 138 243 q 167 71 114 143 q 231 18 193 35 q 315 0 269 0 l 432 0 q 525 18 481 0 q 610 71 569 35 q 714 243 693 142 m 625 364 q 606 316 619 338 q 573 278 592 294 q 531 252 554 262 q 484 243 508 243 l 368 243 q 326 252 345 243 q 294 278 307 262 q 277 317 282 295 q 278 364 273 339 l 329 607 q 349 654 335 632 q 382 693 363 677 q 424 720 401 710 q 471 729 447 729 l 587 729 q 630 720 612 729 q 661 693 649 710 q 677 654 673 677 q 675 607 681 632 l 625 364 z "},"Ô":{"ha":806,"x_min":82,"x_max":910,"o":"m 660 1002 l 650 1015 l 646 1015 l 639 1028 l 616 1002 l 644 1002 l 660 1002 m 648 607 q 651 623 651 615 q 650 639 651 631 q 638 642 644 640 q 627 643 632 643 l 510 643 q 474 635 492 643 q 441 614 456 627 q 415 584 426 602 q 400 547 404 566 l 347 304 q 345 291 345 297 q 345 278 345 284 q 359 274 352 276 q 374 272 366 272 l 490 272 q 526 279 509 272 q 558 299 544 286 q 583 328 573 311 q 597 364 593 345 l 648 607 m 170 21 q 143 50 155 34 q 110 243 82 130 l 212 729 q 328 921 235 841 q 381 959 354 943 q 433 985 408 975 l 412 1015 l 404 1015 l 576 1244 l 701 1244 l 704 1229 l 743 1181 l 817 958 l 774 958 q 793 941 784 950 q 810 921 802 932 q 821 903 816 911 q 831 885 827 895 l 848 860 l 848 861 l 851 859 q 888 668 910 780 l 783 182 q 744 78 772 125 q 669 -8 715 31 q 574 -67 623 -48 q 471 -86 526 -86 l 355 -86 q 261 -67 303 -86 q 192 -8 219 -48 l 170 21 m 734 1044 l 679 1215 l 587 1215 l 458 1044 l 528 1044 l 618 1147 l 665 1044 l 734 1044 m 714 243 l 818 729 q 786 900 837 829 q 723 954 760 936 q 637 972 686 972 l 522 972 q 345 900 427 972 q 276 822 302 864 q 240 729 251 780 l 138 243 q 167 71 114 143 q 231 18 193 35 q 315 0 269 0 l 432 0 q 525 18 481 0 q 610 71 569 35 q 714 243 693 142 m 625 364 q 606 316 619 338 q 573 278 592 294 q 531 252 554 262 q 484 243 508 243 l 368 243 q 326 252 345 243 q 294 278 307 262 q 277 317 282 295 q 278 364 273 339 l 329 607 q 349 654 335 632 q 382 693 363 677 q 424 720 401 710 q 471 729 447 729 l 587 729 q 630 720 612 729 q 661 693 649 710 q 677 654 673 677 q 675 607 681 632 l 625 364 z "},"Õ":{"ha":806,"x_min":82,"x_max":910,"o":"m 587 1007 q 572 1006 580 1007 q 553 1002 564 1005 l 607 1002 q 596 1006 602 1005 q 587 1007 591 1007 m 648 607 q 651 623 651 615 q 650 639 651 631 q 638 642 644 640 q 627 643 632 643 l 510 643 q 474 635 492 643 q 441 614 456 627 q 415 584 426 602 q 400 547 404 566 l 347 304 q 345 291 345 297 q 345 278 345 284 q 359 274 352 276 q 374 272 366 272 l 490 272 q 526 279 509 272 q 558 299 544 286 q 583 328 573 311 q 597 364 593 345 l 648 607 m 170 21 q 143 50 155 34 q 110 243 82 130 l 212 729 q 328 921 235 841 q 362 946 345 935 q 396 966 379 958 l 387 981 l 379 975 l 418 1154 q 575 1219 496 1219 q 643 1192 607 1219 q 664 1176 654 1182 q 681 1171 674 1171 q 748 1193 708 1171 q 842 1260 789 1215 l 840 1249 l 882 1190 l 850 1034 l 838 1015 q 799 987 818 1000 q 760 968 779 975 q 787 947 774 960 q 810 921 800 935 q 821 903 816 911 q 831 885 827 895 l 851 859 q 888 668 910 780 l 783 182 q 744 78 772 125 q 669 -8 715 31 q 574 -67 623 -48 q 471 -86 526 -86 l 355 -86 q 261 -67 303 -86 q 192 -8 219 -48 l 170 21 m 779 1093 l 800 1190 q 675 1141 742 1141 q 650 1148 663 1141 q 623 1166 637 1155 q 568 1190 593 1190 q 504 1179 534 1190 q 443 1141 473 1167 l 422 1044 q 549 1093 479 1093 q 573 1087 560 1093 q 602 1069 587 1081 q 629 1051 616 1058 q 654 1044 643 1044 q 779 1093 722 1044 m 714 243 l 818 729 q 786 900 837 829 q 723 954 760 936 q 637 972 686 972 l 522 972 q 345 900 427 972 q 276 822 302 864 q 240 729 251 780 l 138 243 q 167 71 114 143 q 231 18 193 35 q 315 0 269 0 l 432 0 q 525 18 481 0 q 610 71 569 35 q 714 243 693 142 m 625 364 q 606 316 619 338 q 573 278 592 294 q 531 252 554 262 q 484 243 508 243 l 368 243 q 326 252 345 243 q 294 278 307 262 q 277 317 282 295 q 278 364 273 339 l 329 607 q 349 654 335 632 q 382 693 363 677 q 424 720 401 710 q 471 729 447 729 l 587 729 q 630 720 612 729 q 661 693 649 710 q 677 654 673 677 q 675 607 681 632 l 625 364 z "},"Ö":{"ha":806,"x_min":82,"x_max":910,"o":"m 648 607 q 651 623 651 615 q 650 639 651 631 q 638 642 644 640 q 627 643 632 643 l 510 643 q 474 635 492 643 q 441 614 456 627 q 415 584 426 602 q 400 547 404 566 l 347 304 q 345 291 345 297 q 345 278 345 284 q 359 274 352 276 q 374 272 366 272 l 490 272 q 526 279 509 272 q 558 299 544 286 q 583 328 573 311 q 597 364 593 345 l 648 607 m 611 1002 l 637 1002 l 627 1015 l 619 1015 l 657 1196 l 829 1196 l 828 1189 l 869 1132 l 833 958 l 774 958 q 793 941 784 950 q 810 921 802 932 q 821 903 816 911 q 831 885 827 895 l 851 859 q 888 668 910 780 l 783 182 q 744 78 772 125 q 669 -8 715 31 q 574 -67 623 -48 q 471 -86 526 -86 l 355 -86 q 261 -67 303 -86 q 192 -8 219 -48 l 170 21 q 143 50 155 34 q 110 243 82 130 l 212 729 q 328 921 235 841 q 374 955 351 941 q 422 979 398 970 l 396 1015 l 389 1015 l 427 1196 l 597 1196 l 597 1189 l 639 1132 l 611 1002 m 770 1044 l 794 1166 l 679 1166 l 654 1044 l 770 1044 m 539 1044 l 564 1166 l 449 1166 l 422 1044 l 539 1044 m 714 243 l 818 729 q 786 900 837 829 q 723 954 760 936 q 637 972 686 972 l 522 972 q 345 900 427 972 q 276 822 302 864 q 240 729 251 780 l 138 243 q 167 71 114 143 q 231 18 193 35 q 315 0 269 0 l 432 0 q 525 18 481 0 q 610 71 569 35 q 714 243 693 142 m 625 364 q 606 316 619 338 q 573 278 592 294 q 531 252 554 262 q 484 243 508 243 l 368 243 q 326 252 345 243 q 294 278 307 262 q 277 317 282 295 q 278 364 273 339 l 329 607 q 349 654 335 632 q 382 693 363 677 q 424 720 401 710 q 471 729 447 729 l 587 729 q 630 720 612 729 q 661 693 649 710 q 677 654 673 677 q 675 607 681 632 l 625 364 z "},"×":{"ha":654,"x_min":103,"x_max":714,"o":"m 604 268 l 647 210 l 524 104 l 481 163 l 479 160 l 408 257 l 231 104 l 187 163 l 184 160 l 103 271 l 283 425 l 170 579 l 297 690 l 412 536 l 591 690 l 672 579 l 669 578 l 714 519 l 536 367 l 607 271 l 604 268 m 568 271 l 453 425 l 633 579 l 583 648 l 403 494 l 289 648 l 208 579 l 322 425 l 142 271 l 193 201 l 374 355 l 488 201 l 568 271 z "},"Ø":{"ha":806,"x_min":-5,"x_max":999,"o":"m 193 -9 q 193 -10 193 -9 q 195 -11 193 -11 l 193 -9 m 183 4 q 189 -3 186 0 q 193 -9 191 -6 l 183 4 m 616 457 l 450 272 l 490 272 q 526 279 509 272 q 558 299 544 286 q 583 328 573 311 q 597 364 593 345 l 616 457 m 379 453 l 549 643 l 510 643 q 474 635 492 643 q 441 614 456 627 q 415 584 426 602 q 400 547 404 566 l 379 453 m 115 -97 l 46 -31 l 14 11 l -5 29 l 104 150 q 103 196 102 173 q 110 243 104 219 l 212 729 q 328 921 235 841 q 529 1002 420 1002 l 644 1002 q 806 926 747 1002 l 884 1014 l 958 943 l 956 939 l 999 880 l 889 761 q 892 715 893 738 q 888 668 892 692 l 783 182 q 744 78 772 125 q 669 -8 715 31 q 574 -67 623 -48 q 471 -86 526 -86 l 355 -86 q 263 -68 303 -86 q 195 -11 223 -50 l 193 -9 l 115 -97 m 920 936 l 880 972 l 800 880 q 637 972 747 972 l 522 972 q 345 900 427 972 q 276 822 302 864 q 240 729 251 780 l 138 243 q 131 194 132 217 q 135 147 130 170 l 35 36 l 74 0 l 155 92 q 315 0 206 0 l 432 0 q 525 18 481 0 q 610 71 569 35 q 714 243 693 142 l 818 729 q 823 778 822 754 q 819 825 825 802 l 920 936 m 644 710 l 281 307 q 276 335 277 321 q 278 364 275 349 l 329 607 q 349 654 335 632 q 382 693 363 677 q 424 720 401 710 q 471 729 447 729 l 587 729 q 617 725 603 729 q 644 710 631 720 m 625 364 q 606 316 619 338 q 573 278 592 294 q 531 252 554 262 q 484 243 508 243 l 368 243 q 311 262 335 243 l 675 665 q 675 607 684 637 l 625 364 z "},"Ù":{"ha":806,"x_min":82,"x_max":945,"o":"m 546 1015 l 539 1015 l 464 1244 l 623 1244 l 624 1234 l 663 1181 l 705 958 l 587 958 l 546 1015 m 347 304 q 345 291 345 297 q 345 278 345 284 q 359 274 352 276 q 374 272 366 272 l 490 272 q 526 279 509 272 q 558 299 544 286 q 583 328 573 311 q 597 364 593 345 l 733 1002 l 903 1002 l 901 994 l 945 937 l 783 182 q 744 78 772 125 q 669 -8 715 31 q 574 -67 623 -48 q 471 -86 526 -86 l 355 -86 q 261 -67 303 -86 q 192 -8 219 -48 l 170 21 q 143 50 155 34 q 110 243 82 130 l 269 1002 l 441 1002 l 440 994 l 482 937 l 347 304 m 631 1044 l 597 1215 l 505 1215 l 561 1044 l 631 1044 m 714 243 l 869 972 l 753 972 l 625 364 q 606 316 619 338 q 573 278 592 294 q 531 252 554 262 q 484 243 508 243 l 368 243 q 326 252 345 243 q 294 278 307 262 q 277 317 282 295 q 278 364 273 339 l 407 972 l 292 972 l 138 243 q 167 71 114 143 q 231 18 193 35 q 315 0 269 0 l 432 0 q 525 18 481 0 q 610 71 569 35 q 714 243 693 142 z "},"Ú":{"ha":806,"x_min":82,"x_max":945,"o":"m 808 1239 l 850 1181 l 685 958 l 566 958 l 524 1015 l 514 1015 l 656 1244 l 812 1244 l 808 1239 m 347 304 q 345 291 345 297 q 345 278 345 284 q 359 274 352 276 q 374 272 366 272 l 490 272 q 526 279 509 272 q 558 299 544 286 q 583 328 573 311 q 597 364 593 345 l 733 1002 l 903 1002 l 901 994 l 945 937 l 783 182 q 744 78 772 125 q 669 -8 715 31 q 574 -67 623 -48 q 471 -86 526 -86 l 355 -86 q 261 -67 303 -86 q 192 -8 219 -48 l 170 21 q 143 50 155 34 q 110 243 82 130 l 269 1002 l 441 1002 l 440 994 l 482 937 l 347 304 m 760 1215 l 667 1215 l 561 1044 l 631 1044 l 760 1215 m 714 243 l 869 972 l 753 972 l 625 364 q 606 316 619 338 q 573 278 592 294 q 531 252 554 262 q 484 243 508 243 l 368 243 q 326 252 345 243 q 294 278 307 262 q 277 317 282 295 q 278 364 273 339 l 407 972 l 292 972 l 138 243 q 167 71 114 143 q 231 18 193 35 q 315 0 269 0 l 432 0 q 525 18 481 0 q 610 71 569 35 q 714 243 693 142 z "},"Û":{"ha":806,"x_min":82,"x_max":945,"o":"m 347 304 q 345 291 345 297 q 345 278 345 284 q 359 274 352 276 q 374 272 366 272 l 490 272 q 526 279 509 272 q 558 299 544 286 q 583 328 573 311 q 597 364 593 345 l 724 958 l 693 958 l 650 1015 l 646 1015 l 639 1028 l 579 958 l 467 958 l 482 937 l 347 304 m 170 21 q 143 50 155 34 q 110 243 82 130 l 269 1002 l 424 1002 l 412 1015 l 404 1015 l 576 1244 l 701 1244 l 704 1229 l 743 1181 l 802 1002 l 903 1002 l 901 994 l 945 937 l 783 182 q 744 78 772 125 q 669 -8 715 31 q 574 -67 623 -48 q 471 -86 526 -86 l 355 -86 q 261 -67 303 -86 q 192 -8 219 -48 l 170 21 m 734 1044 l 679 1215 l 587 1215 l 458 1044 l 528 1044 l 618 1147 l 665 1044 l 734 1044 m 714 243 l 869 972 l 753 972 l 625 364 q 606 316 619 338 q 573 278 592 294 q 531 252 554 262 q 484 243 508 243 l 368 243 q 326 252 345 243 q 294 278 307 262 q 277 317 282 295 q 278 364 273 339 l 407 972 l 292 972 l 138 243 q 167 71 114 143 q 231 18 193 35 q 315 0 269 0 l 432 0 q 525 18 481 0 q 610 71 569 35 q 714 243 693 142 z "},"Ü":{"ha":806,"x_min":82,"x_max":945,"o":"m 627 1015 l 619 1015 l 657 1196 l 829 1196 l 828 1189 l 869 1132 l 842 1002 l 903 1002 l 901 994 l 945 937 l 783 182 q 744 78 772 125 q 669 -8 715 31 q 574 -67 623 -48 q 471 -86 526 -86 l 355 -86 q 261 -67 303 -86 q 192 -8 219 -48 l 170 21 q 143 50 155 34 q 110 243 82 130 l 269 1002 l 407 1002 l 396 1015 l 389 1015 l 427 1196 l 597 1196 l 597 1189 l 639 1132 l 603 958 l 467 958 l 482 937 l 347 304 q 345 291 345 297 q 345 278 345 284 q 359 274 352 276 q 374 272 366 272 l 490 272 q 526 279 509 272 q 558 299 544 286 q 583 328 573 311 q 597 364 593 345 l 724 958 l 669 958 l 627 1015 m 770 1044 l 794 1166 l 679 1166 l 654 1044 l 770 1044 m 539 1044 l 564 1166 l 449 1166 l 422 1044 l 539 1044 m 714 243 l 869 972 l 753 972 l 625 364 q 606 316 619 338 q 573 278 592 294 q 531 252 554 262 q 484 243 508 243 l 368 243 q 326 252 345 243 q 294 278 307 262 q 277 317 282 295 q 278 364 273 339 l 407 972 l 292 972 l 138 243 q 167 71 114 143 q 231 18 193 35 q 315 0 269 0 l 432 0 q 525 18 481 0 q 610 71 569 35 q 714 243 693 142 z "},"Ý":{"ha":806,"x_min":146,"x_max":945,"o":"m 808 1239 l 850 1181 l 685 958 l 566 958 l 524 1015 l 514 1015 l 656 1244 l 812 1244 l 808 1239 m 410 596 q 407 582 408 589 q 407 570 406 576 q 421 566 413 568 q 436 564 429 564 l 551 564 q 588 571 570 564 q 620 590 606 578 q 645 620 635 603 q 660 656 656 636 l 733 1002 l 903 1002 l 901 994 l 945 937 l 846 473 q 805 370 834 417 q 732 283 777 322 q 647 230 690 249 q 558 207 604 210 l 496 -86 l 332 -86 l 289 -29 l 283 -29 l 335 218 q 291 244 311 229 q 256 283 271 260 l 233 311 q 219 325 226 317 q 207 342 213 332 q 171 534 146 422 l 269 1002 l 441 1002 l 440 994 l 482 937 l 410 596 m 760 1215 l 667 1215 l 561 1044 l 631 1044 l 760 1215 m 777 534 l 869 972 l 753 972 l 686 656 q 667 608 681 630 q 635 570 654 586 q 593 544 616 553 q 546 534 570 534 l 431 534 q 388 544 407 534 q 356 570 368 553 q 339 609 343 587 q 340 656 334 631 l 407 972 l 292 972 l 199 534 q 196 441 188 484 q 229 363 204 398 q 378 292 283 292 l 315 0 l 432 0 l 493 292 q 586 309 542 292 q 672 363 630 327 q 777 534 755 433 z "},"Þ":{"ha":806,"x_min":52,"x_max":854,"o":"m 553 431 l 374 431 l 361 364 l 481 364 q 505 369 493 364 q 526 382 516 374 q 542 402 535 391 q 551 425 549 413 l 553 431 m 452 789 l 599 789 q 764 708 706 789 q 776 690 770 699 q 786 672 782 682 l 807 646 q 845 558 836 606 q 842 456 854 511 l 829 395 q 714 205 804 283 q 517 126 623 126 l 310 126 l 265 -86 l 102 -86 l 58 -29 l 52 -29 l 269 1002 l 441 1002 l 440 994 l 482 937 l 452 789 m 760 456 l 772 517 q 741 688 793 616 q 678 741 714 723 q 593 760 642 760 l 363 760 l 407 972 l 292 972 l 85 0 l 200 0 l 245 212 l 476 212 q 569 231 525 212 q 656 285 613 249 q 760 456 737 355 m 579 425 q 565 390 576 406 q 540 361 555 374 q 508 342 526 349 q 473 335 490 335 l 271 335 l 310 517 l 513 517 q 544 509 530 517 q 567 489 558 502 q 580 460 576 477 q 579 425 583 444 z "},"ß":{"ha":806,"x_min":25,"x_max":910,"o":"m 33 -151 l 25 -151 l 212 729 q 328 922 235 842 q 425 982 376 963 q 529 1002 474 1002 l 644 1002 q 810 921 752 1002 q 821 903 816 911 q 831 885 827 895 l 848 860 l 848 861 l 851 859 q 888 668 910 780 l 885 656 q 854 573 876 612 q 802 498 833 534 l 800 498 q 761 461 781 477 q 720 431 741 444 q 723 422 722 427 q 726 412 724 418 l 728 412 l 750 385 q 788 295 779 347 q 783 182 797 243 q 668 -7 761 72 q 471 -86 576 -86 l 332 -86 l 289 -29 l 283 -29 l 347 272 l 461 272 q 485 277 473 272 q 506 290 496 281 q 523 310 516 299 q 532 335 530 321 l 533 339 l 422 339 l 379 396 l 374 396 l 412 576 l 526 576 q 550 581 538 576 q 571 594 562 586 q 588 614 581 603 q 597 637 595 625 l 597 643 l 481 643 q 456 638 468 643 q 433 624 444 633 q 415 603 422 615 q 406 578 408 591 l 239 -208 l 75 -208 l 33 -151 m 714 243 q 720 323 723 285 q 704 394 718 362 q 666 450 690 426 q 607 486 642 473 q 679 520 645 498 q 741 575 712 543 q 788 642 770 606 q 814 717 806 678 l 818 729 q 786 900 837 829 q 723 954 760 936 q 637 972 686 972 l 522 972 q 345 901 426 972 q 276 823 302 866 q 240 729 251 781 l 60 -122 l 175 -122 l 336 637 q 350 673 340 656 q 376 702 361 690 q 408 722 391 715 q 443 729 425 729 l 558 729 q 590 722 576 729 q 614 702 604 715 q 627 673 623 690 q 627 637 630 656 q 612 602 623 618 q 586 574 601 586 q 554 554 572 562 q 519 547 537 547 l 432 547 l 406 425 l 493 425 q 524 418 510 425 q 548 398 538 410 q 560 370 557 386 q 559 335 564 353 q 546 299 556 316 q 521 270 535 283 q 490 250 507 258 q 456 243 473 243 l 368 243 l 315 0 l 432 0 q 610 72 527 0 q 714 243 692 142 z "},"à":{"ha":806,"x_min":96,"x_max":886,"o":"m 624 486 q 626 503 626 494 q 627 518 627 511 q 613 520 619 519 q 600 521 606 521 l 485 521 q 448 513 466 521 q 415 493 430 506 q 389 463 399 480 q 374 425 378 445 l 347 304 q 345 291 345 297 q 345 278 345 284 q 359 274 352 276 q 374 272 366 272 l 490 272 q 526 279 508 272 q 558 300 543 287 q 583 329 572 313 q 597 364 593 346 l 624 486 m 171 20 q 157 35 163 27 q 144 52 151 42 q 105 139 114 92 q 110 243 96 186 l 186 607 q 227 712 197 665 q 304 800 257 760 q 503 879 397 879 l 529 879 l 519 895 l 513 895 l 437 1122 l 596 1122 l 597 1112 l 636 1059 l 672 875 q 735 849 708 867 q 785 802 763 831 q 796 784 791 793 q 804 766 801 776 l 823 741 l 823 742 l 828 737 q 861 547 886 659 l 726 -86 l 562 -86 l 550 -69 q 511 -82 531 -79 q 471 -86 492 -86 l 355 -86 q 262 -66 303 -86 q 193 -7 222 -47 l 171 20 m 606 924 l 571 1093 l 479 1093 l 536 924 l 606 924 m 663 0 l 791 607 q 761 781 813 710 q 698 833 735 817 q 612 850 661 850 l 497 850 q 318 779 401 850 q 251 701 277 743 q 214 607 224 658 l 138 243 q 170 72 115 144 q 232 18 195 35 q 315 0 269 0 l 432 0 q 471 4 452 0 q 510 20 491 9 q 564 82 555 43 l 547 0 l 663 0 m 625 364 q 606 317 619 339 q 573 278 592 295 q 531 252 554 262 q 484 243 508 243 l 368 243 q 326 252 345 243 q 294 278 307 262 q 277 317 282 295 q 278 364 273 339 l 304 486 q 323 533 309 511 q 356 572 337 555 q 398 597 375 588 q 444 607 420 607 l 559 607 q 604 598 585 607 q 635 572 623 589 q 652 534 648 556 q 650 486 656 512 l 625 364 z "},"á":{"ha":806,"x_min":96,"x_max":886,"o":"m 624 486 q 626 503 626 494 q 627 518 627 511 q 613 520 619 519 q 600 521 606 521 l 485 521 q 448 513 466 521 q 415 493 430 506 q 389 463 399 480 q 374 425 378 445 l 347 304 q 345 291 345 297 q 345 278 345 284 q 359 274 352 276 q 374 272 366 272 l 490 272 q 526 279 508 272 q 558 300 543 287 q 583 329 572 313 q 597 364 593 346 l 624 486 m 782 1117 l 825 1059 l 684 871 q 740 845 715 863 q 785 802 765 827 q 796 784 791 793 q 804 766 801 776 l 828 737 q 861 547 886 659 l 726 -86 l 562 -86 l 550 -69 q 511 -82 531 -79 q 471 -86 492 -86 l 355 -86 q 262 -66 303 -86 q 193 -7 222 -47 l 171 20 q 157 35 163 27 q 144 52 151 42 q 105 139 114 92 q 110 243 96 186 l 186 607 q 227 712 197 665 q 304 800 257 760 q 503 879 397 879 l 509 879 l 497 895 l 488 895 l 629 1122 l 786 1122 l 782 1117 m 733 1093 l 640 1093 l 536 924 l 606 924 l 733 1093 m 663 0 l 791 607 q 761 781 813 710 q 698 833 735 817 q 612 850 661 850 l 497 850 q 318 779 401 850 q 251 701 277 743 q 214 607 224 658 l 138 243 q 170 72 115 144 q 232 18 195 35 q 315 0 269 0 l 432 0 q 471 4 452 0 q 510 20 491 9 q 564 82 555 43 l 547 0 l 663 0 m 625 364 q 606 317 619 339 q 573 278 592 295 q 531 252 554 262 q 484 243 508 243 l 368 243 q 326 252 345 243 q 294 278 307 262 q 277 317 282 295 q 278 364 273 339 l 304 486 q 323 533 309 511 q 356 572 337 555 q 398 597 375 588 q 444 607 420 607 l 559 607 q 604 598 585 607 q 635 572 623 589 q 652 534 648 556 q 650 486 656 512 l 625 364 z "},"â":{"ha":806,"x_min":96,"x_max":886,"o":"m 635 879 l 624 895 l 618 895 l 614 907 l 590 879 l 618 879 l 635 879 m 624 486 q 626 503 626 494 q 627 518 627 511 q 613 520 619 519 q 600 521 606 521 l 485 521 q 448 513 466 521 q 415 493 430 506 q 389 463 399 480 q 374 425 378 445 l 347 304 q 345 291 345 297 q 345 278 345 284 q 359 274 352 276 q 374 272 366 272 l 490 272 q 526 279 508 272 q 558 300 543 287 q 583 329 572 313 q 597 364 593 346 l 624 486 m 171 20 q 157 35 163 27 q 144 52 151 42 q 105 139 114 92 q 110 243 96 186 l 186 607 q 227 712 197 665 q 304 800 257 760 q 356 838 330 822 q 410 863 382 853 l 386 895 l 378 895 l 549 1122 l 675 1122 l 679 1108 l 717 1059 l 790 838 l 750 838 q 768 820 760 829 q 785 802 777 811 q 796 784 791 793 q 804 766 801 776 l 823 741 l 823 742 l 828 737 q 861 547 886 659 l 726 -86 l 562 -86 l 550 -69 q 511 -82 531 -79 q 471 -86 492 -86 l 355 -86 q 262 -66 303 -86 q 193 -7 222 -47 l 171 20 m 710 924 l 653 1093 l 559 1093 l 432 924 l 501 924 l 591 1025 l 640 924 l 710 924 m 663 0 l 791 607 q 761 781 813 710 q 698 833 735 817 q 612 850 661 850 l 497 850 q 318 779 401 850 q 251 701 277 743 q 214 607 224 658 l 138 243 q 170 72 115 144 q 232 18 195 35 q 315 0 269 0 l 432 0 q 471 4 452 0 q 510 20 491 9 q 564 82 555 43 l 547 0 l 663 0 m 625 364 q 606 317 619 339 q 573 278 592 295 q 531 252 554 262 q 484 243 508 243 l 368 243 q 326 252 345 243 q 294 278 307 262 q 277 317 282 295 q 278 364 273 339 l 304 486 q 323 533 309 511 q 356 572 337 555 q 398 597 375 588 q 444 607 420 607 l 559 607 q 604 598 585 607 q 635 572 623 589 q 652 534 648 556 q 650 486 656 512 l 625 364 z "},"ã":{"ha":806,"x_min":96,"x_max":886,"o":"m 562 886 q 546 884 554 886 q 528 879 537 882 l 582 879 q 562 886 571 886 m 624 486 q 626 503 626 494 q 627 518 627 511 q 613 520 619 519 q 600 521 606 521 l 485 521 q 448 513 466 521 q 415 493 430 506 q 389 463 399 480 q 374 425 378 445 l 347 304 q 345 291 345 297 q 345 278 345 284 q 359 274 352 276 q 374 272 366 272 l 490 272 q 526 279 508 272 q 558 300 543 287 q 583 329 572 313 q 597 364 593 346 l 624 486 m 171 20 q 157 35 163 27 q 144 52 151 42 q 105 139 114 92 q 110 243 96 186 l 186 607 q 227 712 197 665 q 304 800 257 760 q 337 825 320 814 q 371 846 354 836 l 361 860 l 354 852 l 393 1034 q 470 1082 431 1066 q 549 1099 510 1099 q 616 1071 581 1099 q 639 1055 629 1061 q 656 1050 648 1050 q 723 1071 683 1050 q 817 1139 762 1093 l 814 1126 l 857 1069 l 822 911 l 811 893 q 774 867 793 878 q 734 848 755 856 q 785 802 764 829 q 796 784 791 793 q 804 766 801 776 l 823 741 l 823 742 l 828 737 q 861 547 886 659 l 726 -86 l 562 -86 l 550 -69 q 511 -82 531 -79 q 471 -86 492 -86 l 355 -86 q 262 -66 303 -86 q 193 -7 222 -47 l 171 20 m 753 972 l 774 1069 q 648 1021 716 1021 q 625 1027 638 1021 q 597 1044 612 1033 q 569 1063 583 1057 q 543 1069 555 1069 q 478 1058 509 1069 q 418 1021 446 1046 l 397 924 q 457 961 426 949 q 522 972 489 972 q 576 947 546 972 q 628 924 606 924 q 693 935 663 924 q 753 972 724 947 m 663 0 l 791 607 q 761 781 813 710 q 698 833 735 817 q 612 850 661 850 l 497 850 q 318 779 401 850 q 251 701 277 743 q 214 607 224 658 l 138 243 q 170 72 115 144 q 232 18 195 35 q 315 0 269 0 l 432 0 q 471 4 452 0 q 510 20 491 9 q 564 82 555 43 l 547 0 l 663 0 m 625 364 q 606 317 619 339 q 573 278 592 295 q 531 252 554 262 q 484 243 508 243 l 368 243 q 326 252 345 243 q 294 278 307 262 q 277 317 282 295 q 278 364 273 339 l 304 486 q 323 533 309 511 q 356 572 337 555 q 398 597 375 588 q 444 607 420 607 l 559 607 q 604 598 585 607 q 635 572 623 589 q 652 534 648 556 q 650 486 656 512 l 625 364 z "},"ä":{"ha":806,"x_min":96,"x_max":886,"o":"m 624 486 q 626 503 626 494 q 627 518 627 511 q 613 520 619 519 q 600 521 606 521 l 485 521 q 448 513 466 521 q 415 493 430 506 q 389 463 399 480 q 374 425 378 445 l 347 304 q 345 291 345 297 q 345 278 345 284 q 359 274 352 276 q 374 272 366 272 l 490 272 q 526 279 508 272 q 558 300 543 287 q 583 329 572 313 q 597 364 593 346 l 624 486 m 586 879 l 612 879 l 600 895 l 593 895 l 632 1074 l 803 1074 l 802 1067 l 844 1010 l 807 838 l 750 838 q 768 820 760 829 q 785 802 777 811 q 796 784 791 793 q 804 766 801 776 l 823 741 l 823 742 l 828 737 q 861 547 886 659 l 726 -86 l 562 -86 l 550 -69 q 511 -82 531 -79 q 471 -86 492 -86 l 355 -86 q 262 -66 303 -86 q 193 -7 222 -47 l 171 20 q 157 35 163 27 q 144 52 151 42 q 105 139 114 92 q 110 243 96 186 l 186 607 q 227 712 197 665 q 304 800 257 760 q 349 833 326 819 q 396 859 372 848 l 370 895 l 363 895 l 401 1074 l 572 1074 l 571 1067 l 614 1010 l 586 879 m 743 924 l 770 1044 l 654 1044 l 628 924 l 743 924 m 513 924 l 539 1044 l 422 1044 l 397 924 l 513 924 m 663 0 l 791 607 q 761 781 813 710 q 698 833 735 817 q 612 850 661 850 l 497 850 q 318 779 401 850 q 251 701 277 743 q 214 607 224 658 l 138 243 q 170 72 115 144 q 232 18 195 35 q 315 0 269 0 l 432 0 q 471 4 452 0 q 510 20 491 9 q 564 82 555 43 l 547 0 l 663 0 m 625 364 q 606 317 619 339 q 573 278 592 295 q 531 252 554 262 q 484 243 508 243 l 368 243 q 326 252 345 243 q 294 278 307 262 q 277 317 282 295 q 278 364 273 339 l 304 486 q 323 533 309 511 q 356 572 337 555 q 398 597 375 588 q 444 607 420 607 l 559 607 q 604 598 585 607 q 635 572 623 589 q 652 534 648 556 q 650 486 656 512 l 625 364 z "},"å":{"ha":806,"x_min":96,"x_max":886,"o":"m 665 1069 q 667 1075 667 1073 q 667 1080 667 1077 l 661 1080 q 634 1075 648 1080 q 609 1059 621 1069 q 589 1036 597 1049 q 578 1008 581 1023 l 576 1002 l 587 1002 q 612 1007 600 1002 q 636 1022 625 1013 q 655 1044 647 1031 q 665 1069 663 1056 m 624 486 q 626 503 626 494 q 627 518 627 511 q 613 520 619 519 q 600 521 606 521 l 485 521 q 448 513 466 521 q 415 493 430 506 q 389 463 399 480 q 374 425 378 445 l 347 304 q 345 291 345 297 q 345 278 345 284 q 359 274 352 276 q 374 272 366 272 l 490 272 q 526 279 508 272 q 558 300 543 287 q 583 329 572 313 q 597 364 593 346 l 624 486 m 479 921 q 468 932 473 926 q 457 946 463 939 q 435 1069 420 995 q 510 1193 451 1143 q 639 1244 570 1244 q 746 1193 709 1244 q 754 1179 750 1185 q 762 1164 759 1173 l 787 1131 q 811 1075 805 1105 q 808 1008 817 1044 q 734 888 794 936 q 720 874 728 881 q 704 864 711 868 q 748 838 728 853 q 785 802 768 823 q 796 784 791 793 q 804 766 801 776 l 823 741 l 823 742 l 828 737 q 861 547 886 659 l 726 -86 l 562 -86 l 550 -69 q 511 -82 531 -79 q 471 -86 492 -86 l 355 -86 q 262 -66 303 -86 q 193 -7 222 -47 l 171 20 q 157 35 163 27 q 144 52 151 42 q 105 139 114 92 q 110 243 96 186 l 186 607 q 227 712 197 665 q 304 800 257 760 q 503 879 397 879 l 510 879 l 479 921 m 741 1069 q 742 1126 747 1100 q 722 1173 737 1152 q 684 1204 707 1193 q 633 1215 662 1215 q 577 1204 604 1215 q 525 1173 550 1193 q 463 1069 475 1131 q 461 1013 456 1039 q 481 966 466 987 q 571 924 511 924 q 627 934 600 924 q 677 966 654 945 q 741 1069 727 1009 m 663 0 l 791 607 q 761 781 813 710 q 698 833 735 817 q 612 850 661 850 l 497 850 q 318 779 401 850 q 251 701 277 743 q 214 607 224 658 l 138 243 q 170 72 115 144 q 232 18 195 35 q 315 0 269 0 l 432 0 q 471 4 452 0 q 510 20 491 9 q 564 82 555 43 l 547 0 l 663 0 m 694 1069 q 679 1031 690 1049 q 653 1001 668 1014 q 618 980 637 987 q 581 972 600 972 q 546 980 561 972 q 522 1001 531 987 q 509 1031 512 1014 q 510 1069 506 1049 q 524 1107 513 1089 q 550 1138 535 1124 q 584 1159 566 1151 q 623 1166 603 1166 q 656 1159 642 1166 q 681 1138 671 1151 q 694 1107 691 1124 q 694 1069 698 1089 m 625 364 q 606 317 619 339 q 573 278 592 295 q 531 252 554 262 q 484 243 508 243 l 368 243 q 326 252 345 243 q 294 278 307 262 q 277 317 282 295 q 278 364 273 339 l 304 486 q 323 533 309 511 q 356 572 337 555 q 398 597 375 588 q 444 607 420 607 l 559 607 q 604 598 585 607 q 635 572 623 589 q 652 534 648 556 q 650 486 656 512 l 625 364 z "},"æ":{"ha":1152,"x_min":96,"x_max":1265,"o":"m 624 486 q 626 503 626 494 q 627 518 627 511 q 613 520 619 519 q 600 521 606 521 l 485 521 q 448 513 466 521 q 415 493 430 506 q 389 463 399 480 q 374 425 378 445 l 347 304 q 345 291 345 297 q 345 278 345 284 q 359 274 352 276 q 374 272 366 272 l 490 272 q 526 279 508 272 q 558 300 543 287 q 583 329 572 313 q 597 364 593 346 l 624 486 m 808 278 q 821 273 814 275 q 836 272 829 272 l 1095 272 l 1093 265 l 1135 208 l 1074 -86 l 864 -86 q 734 -45 788 -86 l 726 -86 l 562 -86 l 550 -69 q 511 -82 531 -79 q 471 -86 492 -86 l 355 -86 q 262 -66 303 -86 q 193 -7 222 -47 l 171 20 q 157 35 163 27 q 144 52 151 42 q 105 139 114 92 q 110 243 96 186 l 186 607 q 227 712 197 665 q 304 800 257 760 q 503 879 397 879 l 572 879 q 686 848 638 879 q 758 762 734 818 l 766 754 q 804 793 784 775 q 850 828 825 811 q 930 866 890 854 q 1011 879 970 879 l 1223 879 l 1222 872 l 1265 815 l 1202 521 l 947 521 q 930 520 938 521 q 913 515 922 519 l 1031 515 l 1029 509 l 1072 452 l 1035 278 l 808 278 m 1008 0 l 1061 243 l 831 243 q 787 252 806 243 q 755 278 768 262 q 739 317 743 295 q 741 364 734 339 l 971 364 l 996 486 l 765 486 q 785 533 771 511 q 818 572 799 555 q 860 597 837 588 q 907 607 883 607 l 1137 607 l 1190 850 l 1006 850 q 860 804 930 850 q 751 685 787 758 q 732 753 747 722 q 693 805 717 783 q 637 838 669 826 q 567 850 605 850 l 497 850 q 318 779 401 850 q 251 701 277 743 q 214 607 224 658 l 138 243 q 170 72 115 144 q 232 18 195 35 q 315 0 269 0 l 432 0 q 471 4 452 0 q 510 20 491 9 q 564 82 555 43 l 547 0 l 663 0 l 676 71 q 823 0 731 0 l 1008 0 m 625 364 q 606 317 619 339 q 573 278 592 295 q 531 252 554 262 q 484 243 508 243 l 368 243 q 326 252 345 243 q 294 278 307 262 q 277 317 282 295 q 278 364 273 339 l 304 486 q 323 533 309 511 q 356 572 337 555 q 398 597 375 588 q 444 607 420 607 l 559 607 q 604 598 585 607 q 635 572 623 589 q 652 534 648 556 q 650 486 656 512 l 625 364 z "},"ç":{"ha":806,"x_min":96,"x_max":918,"o":"m 347 304 q 345 291 345 297 q 345 278 345 284 q 359 274 352 276 q 374 272 366 272 l 749 272 l 746 265 l 789 208 l 726 -86 l 510 -86 l 534 -121 q 552 -160 547 -138 q 550 -207 556 -182 q 531 -255 545 -233 q 498 -294 517 -277 q 455 -319 478 -310 q 407 -329 431 -329 l 282 -329 l 239 -272 l 231 -272 l 282 -178 l 383 -178 q 391 -176 387 -178 q 401 -171 395 -174 l 354 -171 l 311 -114 l 304 -114 l 317 -83 q 247 -57 278 -76 q 193 -7 215 -39 l 171 20 q 157 35 163 27 q 144 52 151 42 q 105 139 114 92 q 110 243 96 186 l 186 607 q 227 712 197 665 q 304 800 257 760 q 503 879 397 879 l 878 879 l 876 872 l 918 815 l 856 521 l 485 521 q 448 513 466 521 q 415 493 430 506 q 389 463 399 480 q 374 425 378 445 l 347 304 m 663 0 l 714 243 l 368 243 q 326 252 345 243 q 294 278 307 262 q 277 317 282 295 q 278 364 273 339 l 304 486 q 323 533 309 511 q 356 572 337 555 q 398 597 375 588 q 444 607 420 607 l 791 607 l 843 850 l 497 850 q 318 779 401 850 q 251 701 277 743 q 214 607 224 658 l 138 243 q 170 72 115 144 q 232 18 195 35 q 315 0 269 0 l 380 0 l 345 -85 l 403 -85 q 423 -90 414 -85 q 438 -103 432 -94 q 446 -122 444 -111 q 446 -146 448 -134 q 437 -169 444 -158 q 420 -189 430 -180 q 399 -202 411 -197 q 376 -207 388 -207 l 296 -207 l 277 -243 l 368 -243 q 406 -235 387 -243 q 440 -215 425 -228 q 466 -184 455 -201 q 481 -146 477 -166 q 473 -86 488 -113 q 428 -52 458 -59 l 450 0 l 663 0 z "},"è":{"ha":806,"x_min":96,"x_max":918,"o":"m 171 20 q 157 35 163 27 q 144 52 151 42 q 105 139 114 92 q 110 243 96 186 l 186 607 q 227 712 197 665 q 304 800 257 760 q 503 879 397 879 l 529 879 l 519 895 l 513 895 l 437 1122 l 596 1122 l 597 1112 l 636 1059 l 671 879 l 878 879 l 876 872 l 918 815 l 856 521 l 485 521 q 468 520 475 521 q 452 515 460 519 l 685 515 l 684 509 l 725 452 l 689 278 l 346 278 q 359 273 352 275 q 374 272 366 272 l 749 272 l 746 265 l 789 208 l 726 -86 l 355 -86 q 262 -66 303 -86 q 193 -7 222 -47 l 171 20 m 606 924 l 571 1093 l 479 1093 l 536 924 l 606 924 m 663 0 l 714 243 l 368 243 q 326 252 345 243 q 294 278 307 262 q 277 317 282 295 q 278 364 273 339 l 625 364 l 650 486 l 304 486 q 323 533 309 511 q 356 572 337 555 q 398 597 375 588 q 444 607 420 607 l 791 607 l 843 850 l 497 850 q 318 779 401 850 q 251 701 277 743 q 214 607 224 658 l 138 243 q 170 72 115 144 q 232 18 195 35 q 315 0 269 0 l 663 0 z "},"é":{"ha":806,"x_min":96,"x_max":918,"o":"m 782 1117 l 825 1059 l 689 879 l 878 879 l 876 872 l 918 815 l 856 521 l 485 521 q 468 520 475 521 q 452 515 460 519 l 685 515 l 684 509 l 725 452 l 689 278 l 346 278 q 359 273 352 275 q 374 272 366 272 l 749 272 l 746 265 l 789 208 l 726 -86 l 355 -86 q 262 -66 303 -86 q 193 -7 222 -47 l 171 20 q 157 35 163 27 q 144 52 151 42 q 105 139 114 92 q 110 243 96 186 l 186 607 q 227 712 197 665 q 304 800 257 760 q 503 879 397 879 l 509 879 l 497 895 l 488 895 l 629 1122 l 786 1122 l 782 1117 m 733 1093 l 640 1093 l 536 924 l 606 924 l 733 1093 m 663 0 l 714 243 l 368 243 q 326 252 345 243 q 294 278 307 262 q 277 317 282 295 q 278 364 273 339 l 625 364 l 650 486 l 304 486 q 323 533 309 511 q 356 572 337 555 q 398 597 375 588 q 444 607 420 607 l 791 607 l 843 850 l 497 850 q 318 779 401 850 q 251 701 277 743 q 214 607 224 658 l 138 243 q 170 72 115 144 q 232 18 195 35 q 315 0 269 0 l 663 0 z "},"ê":{"ha":806,"x_min":96,"x_max":918,"o":"m 614 907 l 590 879 l 636 879 l 624 895 l 618 895 l 614 907 m 171 20 q 157 35 163 27 q 144 52 151 42 q 105 139 114 92 q 110 243 96 186 l 186 607 q 227 712 197 665 q 304 800 257 760 q 356 838 330 822 q 410 863 382 853 l 386 895 l 378 895 l 549 1122 l 675 1122 l 679 1108 l 717 1059 l 775 879 l 878 879 l 876 872 l 918 815 l 856 521 l 485 521 q 468 520 475 521 q 452 515 460 519 l 685 515 l 684 509 l 725 452 l 689 278 l 346 278 q 359 273 352 275 q 374 272 366 272 l 749 272 l 746 265 l 789 208 l 726 -86 l 355 -86 q 262 -66 303 -86 q 193 -7 222 -47 l 171 20 m 710 924 l 653 1093 l 559 1093 l 432 924 l 501 924 l 591 1025 l 640 924 l 710 924 m 663 0 l 714 243 l 368 243 q 326 252 345 243 q 294 278 307 262 q 277 317 282 295 q 278 364 273 339 l 625 364 l 650 486 l 304 486 q 323 533 309 511 q 356 572 337 555 q 398 597 375 588 q 444 607 420 607 l 791 607 l 843 850 l 497 850 q 318 779 401 850 q 251 701 277 743 q 214 607 224 658 l 138 243 q 170 72 115 144 q 232 18 195 35 q 315 0 269 0 l 663 0 z "},"ë":{"ha":806,"x_min":96,"x_max":918,"o":"m 586 879 l 612 879 l 600 895 l 593 895 l 632 1074 l 803 1074 l 802 1067 l 844 1010 l 817 879 l 878 879 l 876 872 l 918 815 l 856 521 l 485 521 q 468 520 475 521 q 452 515 460 519 l 685 515 l 684 509 l 725 452 l 689 278 l 346 278 q 359 273 352 275 q 374 272 366 272 l 749 272 l 746 265 l 789 208 l 726 -86 l 355 -86 q 262 -66 303 -86 q 193 -7 222 -47 l 171 20 q 157 35 163 27 q 144 52 151 42 q 105 139 114 92 q 110 243 96 186 l 186 607 q 227 712 197 665 q 304 800 257 760 q 349 833 326 819 q 396 859 372 848 l 370 895 l 363 895 l 401 1074 l 572 1074 l 571 1067 l 614 1010 l 586 879 m 743 924 l 770 1044 l 654 1044 l 628 924 l 743 924 m 513 924 l 539 1044 l 422 1044 l 397 924 l 513 924 m 663 0 l 714 243 l 368 243 q 326 252 345 243 q 294 278 307 262 q 277 317 282 295 q 278 364 273 339 l 625 364 l 650 486 l 304 486 q 323 533 309 511 q 356 572 337 555 q 398 597 375 588 q 444 607 420 607 l 791 607 l 843 850 l 497 850 q 318 779 401 850 q 251 701 277 743 q 214 607 224 658 l 138 243 q 170 72 115 144 q 232 18 195 35 q 315 0 269 0 l 663 0 z "},"ì":{"ha":345,"x_min":52,"x_max":457,"o":"m 58 -29 l 52 -29 l 244 879 l 298 879 l 288 895 l 282 895 l 207 1122 l 364 1122 l 366 1112 l 406 1059 l 449 838 l 440 838 l 457 815 l 265 -86 l 102 -86 l 58 -29 m 374 924 l 340 1093 l 248 1093 l 306 924 l 374 924 m 200 0 l 382 850 l 267 850 l 85 0 l 200 0 z "},"í":{"ha":345,"x_min":52,"x_max":595,"o":"m 550 1117 l 595 1059 l 433 846 l 457 815 l 265 -86 l 102 -86 l 58 -29 l 52 -29 l 244 879 l 277 879 l 267 895 l 257 895 l 399 1122 l 555 1122 l 550 1117 m 501 1093 l 410 1093 l 306 924 l 374 924 l 501 1093 m 200 0 l 382 850 l 267 850 l 85 0 l 200 0 z "},"î":{"ha":345,"x_min":52,"x_max":558,"o":"m 383 907 l 359 879 l 404 879 l 393 895 l 387 895 l 383 907 m 155 895 l 147 895 l 318 1122 l 443 1122 l 449 1108 l 486 1059 l 558 838 l 440 838 l 457 815 l 265 -86 l 102 -86 l 58 -29 l 52 -29 l 235 838 l 199 838 l 155 895 m 479 924 l 422 1093 l 329 1093 l 201 924 l 271 924 l 361 1025 l 410 924 l 479 924 m 200 0 l 382 850 l 267 850 l 85 0 l 200 0 z "},"ï":{"ha":345,"x_min":52,"x_max":614,"o":"m 354 879 l 382 879 l 370 895 l 363 895 l 401 1074 l 572 1074 l 571 1067 l 614 1010 l 576 838 l 440 838 l 457 815 l 265 -86 l 102 -86 l 58 -29 l 52 -29 l 235 838 l 180 838 l 139 895 l 131 895 l 170 1074 l 342 1074 l 340 1067 l 383 1010 l 354 879 m 513 924 l 539 1044 l 422 1044 l 397 924 l 513 924 m 282 924 l 307 1044 l 192 1044 l 167 924 l 282 924 m 200 0 l 382 850 l 267 850 l 85 0 l 200 0 z "},"ð":{"ha":806,"x_min":96,"x_max":1074,"o":"m 624 486 q 626 503 626 494 q 625 518 627 511 q 612 520 618 519 q 600 521 606 521 l 485 521 q 448 513 466 521 q 415 493 430 506 q 389 463 399 480 q 374 425 378 445 l 347 304 q 345 291 345 297 q 345 278 345 284 q 359 274 352 276 q 374 272 366 272 l 490 272 q 526 279 509 272 q 558 299 544 286 q 583 328 573 311 q 597 364 593 345 l 624 486 m 171 20 q 157 35 163 27 q 144 52 151 42 q 105 139 114 92 q 110 243 96 186 l 186 607 q 227 712 197 665 q 304 800 257 760 q 503 879 397 879 l 600 879 l 597 882 l 590 882 l 629 1063 l 1032 1063 l 1029 1054 l 1074 997 l 1035 825 l 920 825 l 783 182 q 744 78 772 125 q 669 -8 715 31 q 574 -67 623 -48 q 471 -86 526 -86 l 355 -86 q 262 -66 303 -86 q 193 -7 222 -47 l 171 20 m 971 911 l 997 1034 l 652 1034 l 625 911 l 741 911 l 711 770 q 707 804 713 788 q 682 831 700 819 q 650 845 669 841 q 612 850 632 850 l 497 850 q 318 779 401 850 q 251 701 277 743 q 214 607 224 658 l 138 243 q 170 72 115 144 q 232 18 195 35 q 315 0 269 0 l 432 0 q 525 18 481 0 q 610 71 569 35 q 714 243 693 142 l 856 911 l 971 911 m 625 364 q 606 316 619 338 q 573 278 592 294 q 531 252 554 262 q 484 243 508 243 l 368 243 q 326 252 345 243 q 294 278 307 262 q 277 317 282 295 q 278 364 273 339 l 304 486 q 323 533 309 511 q 356 572 337 555 q 398 597 375 588 q 444 607 420 607 l 559 607 q 603 597 584 607 q 635 572 623 588 q 651 533 647 555 q 650 486 656 511 l 625 364 z "},"ñ":{"ha":806,"x_min":52,"x_max":886,"o":"m 562 886 q 546 884 554 886 q 528 879 537 882 l 582 879 q 562 886 571 886 m 58 -29 l 52 -29 l 186 607 q 227 712 197 665 q 302 800 256 760 q 336 825 319 814 q 371 846 353 836 l 361 860 l 354 852 l 393 1034 q 470 1082 431 1066 q 549 1099 510 1099 q 616 1071 581 1099 q 639 1055 629 1061 q 656 1050 648 1050 q 723 1071 683 1050 q 817 1139 762 1093 l 814 1126 l 857 1069 l 822 911 l 811 893 q 774 867 793 878 q 734 848 755 856 q 785 802 764 829 q 796 784 791 793 q 804 766 801 776 l 823 741 l 823 742 l 828 737 q 861 547 886 659 l 726 -86 l 562 -86 l 519 -29 l 514 -29 l 624 486 q 626 503 626 494 q 627 518 627 511 q 613 520 619 519 q 600 521 606 521 l 485 521 q 448 513 466 521 q 415 493 430 506 q 389 463 399 480 q 374 425 378 445 l 265 -86 l 102 -86 l 58 -29 m 753 972 l 774 1069 q 648 1021 716 1021 q 625 1027 638 1021 q 597 1044 612 1033 q 569 1063 583 1057 q 543 1069 555 1069 q 478 1058 509 1069 q 418 1021 446 1046 l 397 924 q 457 961 426 949 q 522 972 489 972 q 576 947 546 972 q 628 924 606 924 q 693 935 663 924 q 753 972 724 947 m 663 0 l 791 607 q 761 781 813 710 q 698 833 735 817 q 612 850 661 850 l 497 850 q 317 779 401 850 q 214 607 235 707 l 85 0 l 200 0 l 304 486 q 323 533 309 511 q 356 572 337 555 q 398 597 375 588 q 444 607 420 607 l 559 607 q 604 598 585 607 q 635 572 623 589 q 652 534 648 556 q 650 486 656 512 l 547 0 l 663 0 z "},"ò":{"ha":806,"x_min":82,"x_max":873,"o":"m 624 486 q 626 503 626 494 q 625 518 627 511 q 612 520 618 519 q 600 521 606 521 l 485 521 q 448 513 466 521 q 415 493 430 506 q 389 463 399 480 q 374 425 378 445 l 347 304 q 345 291 345 297 q 345 278 345 284 q 359 274 352 276 q 374 272 366 272 l 490 272 q 526 279 509 272 q 558 299 544 286 q 583 328 573 311 q 597 364 593 345 l 624 486 m 170 21 q 143 50 155 34 q 110 243 82 130 l 186 607 q 227 712 197 665 q 302 800 256 760 q 503 879 395 879 l 529 879 l 519 895 l 513 895 l 437 1122 l 596 1122 l 597 1112 l 636 1059 l 672 873 q 734 848 707 866 q 783 800 762 829 q 795 781 789 791 q 804 762 801 772 l 827 736 q 865 650 856 697 q 861 547 873 602 l 783 182 q 744 78 772 125 q 669 -8 715 31 q 574 -67 623 -48 q 471 -86 526 -86 l 355 -86 q 261 -67 303 -86 q 192 -8 219 -48 l 170 21 m 606 924 l 571 1093 l 479 1093 l 536 924 l 606 924 m 714 243 l 791 607 q 794 701 802 658 q 760 779 785 743 q 612 850 708 850 l 497 850 q 317 779 401 850 q 214 607 235 707 l 138 243 q 167 71 114 143 q 231 18 193 35 q 315 0 269 0 l 432 0 q 525 18 481 0 q 610 71 569 35 q 714 243 693 142 m 625 364 q 606 316 619 338 q 573 278 592 294 q 531 252 554 262 q 484 243 508 243 l 368 243 q 326 252 345 243 q 294 278 307 262 q 277 317 282 295 q 278 364 273 339 l 304 486 q 323 533 309 511 q 356 572 337 555 q 398 597 375 588 q 444 607 420 607 l 559 607 q 603 597 584 607 q 635 572 623 588 q 651 533 647 555 q 650 486 656 511 l 625 364 z "},"ó":{"ha":806,"x_min":82,"x_max":873,"o":"m 624 486 q 626 503 626 494 q 625 518 627 511 q 612 520 618 519 q 600 521 606 521 l 485 521 q 448 513 466 521 q 415 493 430 506 q 389 463 399 480 q 374 425 378 445 l 347 304 q 345 291 345 297 q 345 278 345 284 q 359 274 352 276 q 374 272 366 272 l 490 272 q 526 279 509 272 q 558 299 544 286 q 583 328 573 311 q 597 364 593 345 l 624 486 m 782 1117 l 825 1059 l 682 871 q 739 844 713 863 q 783 800 764 826 q 795 781 789 791 q 804 762 801 772 l 827 736 q 865 650 856 697 q 861 547 873 602 l 783 182 q 744 78 772 125 q 669 -8 715 31 q 574 -67 623 -48 q 471 -86 526 -86 l 355 -86 q 261 -67 303 -86 q 192 -8 219 -48 l 170 21 q 143 50 155 34 q 110 243 82 130 l 186 607 q 227 712 197 665 q 302 800 256 760 q 503 879 395 879 l 509 879 l 497 895 l 488 895 l 629 1122 l 786 1122 l 782 1117 m 733 1093 l 640 1093 l 536 924 l 606 924 l 733 1093 m 714 243 l 791 607 q 794 701 802 658 q 760 779 785 743 q 612 850 708 850 l 497 850 q 317 779 401 850 q 214 607 235 707 l 138 243 q 167 71 114 143 q 231 18 193 35 q 315 0 269 0 l 432 0 q 525 18 481 0 q 610 71 569 35 q 714 243 693 142 m 625 364 q 606 316 619 338 q 573 278 592 294 q 531 252 554 262 q 484 243 508 243 l 368 243 q 326 252 345 243 q 294 278 307 262 q 277 317 282 295 q 278 364 273 339 l 304 486 q 323 533 309 511 q 356 572 337 555 q 398 597 375 588 q 444 607 420 607 l 559 607 q 603 597 584 607 q 635 572 623 588 q 651 533 647 555 q 650 486 656 511 l 625 364 z "},"ô":{"ha":806,"x_min":82,"x_max":873,"o":"m 635 879 l 624 895 l 618 895 l 614 907 l 590 879 l 618 879 l 635 879 m 624 486 q 626 503 626 494 q 625 518 627 511 q 612 520 618 519 q 600 521 606 521 l 485 521 q 448 513 466 521 q 415 493 430 506 q 389 463 399 480 q 374 425 378 445 l 347 304 q 345 291 345 297 q 345 278 345 284 q 359 274 352 276 q 374 272 366 272 l 490 272 q 526 279 509 272 q 558 299 544 286 q 583 328 573 311 q 597 364 593 345 l 624 486 m 170 21 q 143 50 155 34 q 110 243 82 130 l 186 607 q 227 712 197 665 q 302 800 256 760 q 355 838 328 822 q 408 863 382 853 l 386 895 l 378 895 l 549 1122 l 675 1122 l 679 1108 l 717 1059 l 790 838 l 747 838 q 767 820 759 829 q 783 800 775 810 q 795 781 789 791 q 804 762 801 772 l 822 739 l 821 741 l 827 736 q 865 650 856 697 q 861 547 873 602 l 783 182 q 744 78 772 125 q 669 -8 715 31 q 574 -67 623 -48 q 471 -86 526 -86 l 355 -86 q 261 -67 303 -86 q 192 -8 219 -48 l 170 21 m 710 924 l 653 1093 l 559 1093 l 432 924 l 501 924 l 591 1025 l 640 924 l 710 924 m 714 243 l 791 607 q 794 701 802 658 q 760 779 785 743 q 612 850 708 850 l 497 850 q 317 779 401 850 q 214 607 235 707 l 138 243 q 167 71 114 143 q 231 18 193 35 q 315 0 269 0 l 432 0 q 525 18 481 0 q 610 71 569 35 q 714 243 693 142 m 625 364 q 606 316 619 338 q 573 278 592 294 q 531 252 554 262 q 484 243 508 243 l 368 243 q 326 252 345 243 q 294 278 307 262 q 277 317 282 295 q 278 364 273 339 l 304 486 q 323 533 309 511 q 356 572 337 555 q 398 597 375 588 q 444 607 420 607 l 559 607 q 603 597 584 607 q 635 572 623 588 q 651 533 647 555 q 650 486 656 511 l 625 364 z "},"õ":{"ha":806,"x_min":82,"x_max":873,"o":"m 562 886 q 546 884 554 886 q 528 879 537 882 l 582 879 q 562 886 571 886 m 624 486 q 626 503 626 494 q 625 518 627 511 q 612 520 618 519 q 600 521 606 521 l 485 521 q 448 513 466 521 q 415 493 430 506 q 389 463 399 480 q 374 425 378 445 l 347 304 q 345 291 345 297 q 345 278 345 284 q 359 274 352 276 q 374 272 366 272 l 490 272 q 526 279 509 272 q 558 299 544 286 q 583 328 573 311 q 597 364 593 345 l 624 486 m 170 21 q 143 50 155 34 q 110 243 82 130 l 186 607 q 227 712 197 665 q 302 800 256 760 q 336 825 319 814 q 371 846 353 836 l 361 860 l 354 852 l 393 1034 q 470 1082 431 1066 q 549 1099 510 1099 q 616 1071 581 1099 q 639 1055 629 1061 q 656 1050 648 1050 q 723 1071 683 1050 q 817 1139 762 1093 l 814 1126 l 857 1069 l 822 911 l 811 893 q 733 847 774 862 q 783 800 763 828 q 795 781 789 791 q 804 762 801 772 l 827 736 q 865 650 856 697 q 861 547 873 602 l 783 182 q 744 78 772 125 q 669 -8 715 31 q 574 -67 623 -48 q 471 -86 526 -86 l 355 -86 q 261 -67 303 -86 q 192 -8 219 -48 l 170 21 m 753 972 l 774 1069 q 648 1021 716 1021 q 625 1027 638 1021 q 597 1044 612 1033 q 569 1063 583 1057 q 543 1069 555 1069 q 478 1058 509 1069 q 418 1021 446 1046 l 397 924 q 457 961 426 949 q 522 972 489 972 q 576 947 546 972 q 628 924 606 924 q 693 935 663 924 q 753 972 724 947 m 714 243 l 791 607 q 794 701 802 658 q 760 779 785 743 q 612 850 708 850 l 497 850 q 317 779 401 850 q 214 607 235 707 l 138 243 q 167 71 114 143 q 231 18 193 35 q 315 0 269 0 l 432 0 q 525 18 481 0 q 610 71 569 35 q 714 243 693 142 m 625 364 q 606 316 619 338 q 573 278 592 294 q 531 252 554 262 q 484 243 508 243 l 368 243 q 326 252 345 243 q 294 278 307 262 q 277 317 282 295 q 278 364 273 339 l 304 486 q 323 533 309 511 q 356 572 337 555 q 398 597 375 588 q 444 607 420 607 l 559 607 q 603 597 584 607 q 635 572 623 588 q 651 533 647 555 q 650 486 656 511 l 625 364 z "},"ö":{"ha":806,"x_min":82,"x_max":873,"o":"m 624 486 q 626 503 626 494 q 625 518 627 511 q 612 520 618 519 q 600 521 606 521 l 485 521 q 448 513 466 521 q 415 493 430 506 q 389 463 399 480 q 374 425 378 445 l 347 304 q 345 291 345 297 q 345 278 345 284 q 359 274 352 276 q 374 272 366 272 l 490 272 q 526 279 509 272 q 558 299 544 286 q 583 328 573 311 q 597 364 593 345 l 624 486 m 586 879 l 612 879 l 600 895 l 593 895 l 632 1074 l 803 1074 l 802 1067 l 844 1010 l 807 838 l 747 838 q 767 820 759 829 q 783 800 775 810 q 795 781 789 791 q 804 762 801 772 l 827 736 q 865 650 856 697 q 861 547 873 602 l 783 182 q 744 78 772 125 q 669 -8 715 31 q 574 -67 623 -48 q 471 -86 526 -86 l 355 -86 q 261 -67 303 -86 q 192 -8 219 -48 l 170 21 q 143 50 155 34 q 110 243 82 130 l 186 607 q 227 712 197 665 q 302 800 256 760 q 348 833 324 819 q 396 859 372 848 l 370 895 l 363 895 l 401 1074 l 572 1074 l 571 1067 l 614 1010 l 586 879 m 743 924 l 770 1044 l 654 1044 l 628 924 l 743 924 m 513 924 l 539 1044 l 422 1044 l 397 924 l 513 924 m 714 243 l 791 607 q 794 701 802 658 q 760 779 785 743 q 612 850 708 850 l 497 850 q 317 779 401 850 q 214 607 235 707 l 138 243 q 167 71 114 143 q 231 18 193 35 q 315 0 269 0 l 432 0 q 525 18 481 0 q 610 71 569 35 q 714 243 693 142 m 625 364 q 606 316 619 338 q 573 278 592 294 q 531 252 554 262 q 484 243 508 243 l 368 243 q 326 252 345 243 q 294 278 307 262 q 277 317 282 295 q 278 364 273 339 l 304 486 q 323 533 309 511 q 356 572 337 555 q 398 597 375 588 q 444 607 420 607 l 559 607 q 603 597 584 607 q 635 572 623 588 q 651 533 647 555 q 650 486 656 511 l 625 364 z "},"÷":{"ha":690,"x_min":131,"x_max":724,"o":"m 335 567 l 328 567 l 376 794 l 595 794 l 593 787 l 635 730 l 587 510 l 376 510 l 335 567 m 228 56 l 220 56 l 268 285 l 486 285 l 484 277 l 525 220 l 479 -1 l 268 -1 l 228 56 m 139 347 l 131 347 l 164 503 l 682 503 l 681 496 l 724 439 l 692 290 l 180 290 l 139 347 m 524 596 l 559 765 l 399 765 l 363 596 l 524 596 m 627 376 l 647 473 l 186 473 l 165 376 l 627 376 m 415 85 l 452 256 l 290 256 l 254 85 l 415 85 z "},"ø":{"ha":806,"x_min":-4,"x_max":972,"o":"m 604 393 l 481 272 l 490 272 q 526 279 509 272 q 558 299 544 286 q 583 328 573 311 q 597 364 593 345 l 604 393 m 368 397 l 492 521 l 485 521 q 448 513 466 521 q 415 493 430 506 q 389 463 399 480 q 374 425 378 445 l 368 397 m 928 812 l 972 754 l 863 647 q 868 598 868 624 q 861 547 867 573 l 783 182 q 744 78 772 125 q 669 -8 715 31 q 574 -67 623 -48 q 471 -86 526 -86 l 355 -86 q 262 -67 303 -86 q 195 -11 222 -49 l 195 -8 l 102 -98 l 57 -40 l 54 -43 l -4 35 l 107 143 q 103 193 103 169 q 110 243 104 218 l 186 607 q 227 712 197 665 q 302 800 256 760 q 503 879 395 879 l 618 879 q 782 802 723 879 l 873 893 l 932 815 l 928 812 m 893 814 l 867 850 l 774 760 q 612 850 725 850 l 497 850 q 317 779 401 850 q 214 607 235 707 l 138 243 q 132 188 131 214 q 138 138 132 161 l 35 36 l 62 0 l 155 92 q 315 0 206 0 l 432 0 q 525 18 481 0 q 610 71 569 35 q 714 243 693 142 l 791 607 q 791 714 804 665 l 893 814 m 625 364 q 606 316 619 338 q 573 278 592 294 q 531 252 554 262 q 484 243 508 243 l 368 243 q 343 246 355 243 q 321 254 332 249 l 640 566 q 653 529 651 548 q 650 486 654 509 l 625 364 m 607 597 l 289 286 q 276 323 279 303 q 278 364 273 342 l 304 486 q 323 533 309 511 q 356 572 337 555 q 398 597 375 588 q 444 607 420 607 l 559 607 q 585 605 573 607 q 607 597 597 603 z "},"ù":{"ha":806,"x_min":82,"x_max":918,"o":"m 519 895 l 513 895 l 437 1122 l 596 1122 l 597 1112 l 636 1059 l 679 838 l 559 838 l 519 895 m 347 304 q 345 291 345 297 q 345 278 345 284 q 359 274 352 276 q 374 272 366 272 l 490 272 q 526 279 509 272 q 558 299 544 286 q 583 328 573 311 q 597 364 593 345 l 707 879 l 878 879 l 876 872 l 918 815 l 783 182 q 744 78 772 125 q 669 -8 715 31 q 574 -67 623 -48 q 471 -86 526 -86 l 355 -86 q 261 -67 303 -86 q 192 -8 219 -48 l 170 21 q 143 50 155 34 q 110 243 82 130 l 244 879 l 415 879 l 414 872 l 457 815 l 347 304 m 606 924 l 571 1093 l 479 1093 l 536 924 l 606 924 m 714 243 l 843 850 l 728 850 l 625 364 q 606 316 619 338 q 573 278 592 294 q 531 252 554 262 q 484 243 508 243 l 368 243 q 326 252 345 243 q 294 278 307 262 q 277 317 282 295 q 278 364 273 339 l 382 850 l 267 850 l 138 243 q 167 71 114 143 q 231 18 193 35 q 315 0 269 0 l 432 0 q 525 18 481 0 q 610 71 569 35 q 714 243 693 142 z "},"ú":{"ha":806,"x_min":82,"x_max":918,"o":"m 782 1117 l 825 1059 l 657 838 l 539 838 l 497 895 l 488 895 l 629 1122 l 786 1122 l 782 1117 m 347 304 q 345 291 345 297 q 345 278 345 284 q 359 274 352 276 q 374 272 366 272 l 490 272 q 526 279 509 272 q 558 299 544 286 q 583 328 573 311 q 597 364 593 345 l 707 879 l 878 879 l 876 872 l 918 815 l 783 182 q 744 78 772 125 q 669 -8 715 31 q 574 -67 623 -48 q 471 -86 526 -86 l 355 -86 q 261 -67 303 -86 q 192 -8 219 -48 l 170 21 q 143 50 155 34 q 110 243 82 130 l 244 879 l 415 879 l 414 872 l 457 815 l 347 304 m 733 1093 l 640 1093 l 536 924 l 606 924 l 733 1093 m 714 243 l 843 850 l 728 850 l 625 364 q 606 316 619 338 q 573 278 592 294 q 531 252 554 262 q 484 243 508 243 l 368 243 q 326 252 345 243 q 294 278 307 262 q 277 317 282 295 q 278 364 273 339 l 382 850 l 267 850 l 138 243 q 167 71 114 143 q 231 18 193 35 q 315 0 269 0 l 432 0 q 525 18 481 0 q 610 71 569 35 q 714 243 693 142 z "},"û":{"ha":806,"x_min":82,"x_max":918,"o":"m 347 304 q 345 291 345 297 q 345 278 345 284 q 359 274 352 276 q 374 272 366 272 l 490 272 q 526 279 509 272 q 558 299 544 286 q 583 328 573 311 q 597 364 593 345 l 697 838 l 665 838 l 624 895 l 618 895 l 614 907 l 553 838 l 440 838 l 457 815 l 347 304 m 170 21 q 143 50 155 34 q 110 243 82 130 l 244 879 l 399 879 l 386 895 l 378 895 l 549 1122 l 675 1122 l 679 1108 l 717 1059 l 775 879 l 878 879 l 876 872 l 918 815 l 783 182 q 744 78 772 125 q 669 -8 715 31 q 574 -67 623 -48 q 471 -86 526 -86 l 355 -86 q 261 -67 303 -86 q 192 -8 219 -48 l 170 21 m 710 924 l 653 1093 l 559 1093 l 432 924 l 501 924 l 591 1025 l 640 924 l 710 924 m 714 243 l 843 850 l 728 850 l 625 364 q 606 316 619 338 q 573 278 592 294 q 531 252 554 262 q 484 243 508 243 l 368 243 q 326 252 345 243 q 294 278 307 262 q 277 317 282 295 q 278 364 273 339 l 382 850 l 267 850 l 138 243 q 167 71 114 143 q 231 18 193 35 q 315 0 269 0 l 432 0 q 525 18 481 0 q 610 71 569 35 q 714 243 693 142 z "},"ü":{"ha":806,"x_min":82,"x_max":918,"o":"m 600 895 l 593 895 l 632 1074 l 803 1074 l 802 1067 l 844 1010 l 817 879 l 878 879 l 876 872 l 918 815 l 783 182 q 744 78 772 125 q 669 -8 715 31 q 574 -67 623 -48 q 471 -86 526 -86 l 355 -86 q 261 -67 303 -86 q 192 -8 219 -48 l 170 21 q 143 50 155 34 q 110 243 82 130 l 244 879 l 382 879 l 370 895 l 363 895 l 401 1074 l 572 1074 l 571 1067 l 614 1010 l 576 838 l 440 838 l 457 815 l 347 304 q 345 291 345 297 q 345 278 345 284 q 359 274 352 276 q 374 272 366 272 l 490 272 q 526 279 509 272 q 558 299 544 286 q 583 328 573 311 q 597 364 593 345 l 697 838 l 643 838 l 600 895 m 743 924 l 770 1044 l 654 1044 l 628 924 l 743 924 m 513 924 l 539 1044 l 422 1044 l 397 924 l 513 924 m 714 243 l 843 850 l 728 850 l 625 364 q 606 316 619 338 q 573 278 592 294 q 531 252 554 262 q 484 243 508 243 l 368 243 q 326 252 345 243 q 294 278 307 262 q 277 317 282 295 q 278 364 273 339 l 382 850 l 267 850 l 138 243 q 167 71 114 143 q 231 18 193 35 q 315 0 269 0 l 432 0 q 525 18 481 0 q 610 71 569 35 q 714 243 693 142 z "},"ý":{"ha":806,"x_min":96,"x_max":918,"o":"m 782 1117 l 825 1059 l 657 838 l 539 838 l 497 895 l 488 895 l 629 1122 l 786 1122 l 782 1117 m 347 304 q 345 291 345 297 q 345 278 345 284 q 359 274 352 276 q 374 272 366 272 l 490 272 q 526 279 509 272 q 558 299 544 286 q 583 328 573 311 q 597 364 593 345 l 707 879 l 878 879 l 876 872 l 918 815 l 705 -182 q 591 -374 684 -295 q 496 -432 545 -412 q 393 -452 448 -452 l 254 -452 l 211 -395 l 205 -395 l 269 -93 l 412 -93 q 428 -91 420 -93 q 444 -86 436 -90 l 355 -86 q 262 -66 303 -86 q 193 -7 222 -47 l 171 20 q 157 35 163 27 q 144 52 151 42 q 105 139 114 92 q 110 243 96 186 l 244 879 l 415 879 l 414 872 l 457 815 l 347 304 m 733 1093 l 640 1093 l 536 924 l 606 924 l 733 1093 m 636 -122 l 843 850 l 728 850 l 625 364 q 606 316 619 338 q 573 278 592 294 q 531 252 554 262 q 484 243 508 243 l 368 243 q 326 252 345 243 q 294 278 307 262 q 277 317 282 295 q 278 364 273 339 l 382 850 l 267 850 l 138 243 q 170 72 115 144 q 232 18 195 35 q 315 0 269 0 l 432 0 q 472 4 453 0 q 510 20 491 9 q 564 82 555 43 l 547 0 q 528 -48 541 -26 q 495 -87 514 -71 q 453 -113 476 -103 q 406 -122 430 -122 l 290 -122 l 237 -366 l 354 -366 q 533 -294 450 -366 q 600 -216 574 -259 q 636 -122 626 -174 z "},"þ":{"ha":806,"x_min":-1,"x_max":857,"o":"m 597 364 q 597 396 602 380 q 586 399 592 397 q 575 400 581 400 l 368 400 l 342 272 l 490 272 q 526 279 508 272 q 558 300 543 287 q 583 329 572 313 q 597 364 593 346 m 444 758 l 593 758 q 758 677 701 758 q 769 660 764 668 q 779 642 774 651 l 798 616 l 796 618 l 802 615 q 835 425 857 536 l 783 182 q 668 -7 761 72 q 471 -86 576 -86 l 265 -86 l 212 -329 l 49 -329 l 5 -272 l -1 -272 l 269 1002 l 441 1002 l 440 994 l 482 937 l 444 758 m 714 243 l 765 486 q 733 657 788 586 q 672 711 707 692 q 587 729 636 729 l 355 729 l 407 972 l 292 972 l 33 -243 l 149 -243 l 200 0 l 432 0 q 610 72 527 0 q 714 243 692 142 m 625 364 q 606 317 619 339 q 573 278 592 295 q 531 252 554 262 q 484 243 508 243 l 253 243 l 304 486 l 534 486 q 577 477 559 486 q 608 451 596 467 q 625 412 621 434 q 625 364 630 389 z "},"ÿ":{"ha":806,"x_min":96,"x_max":918,"o":"m 600 895 l 593 895 l 632 1074 l 803 1074 l 802 1067 l 844 1010 l 817 879 l 878 879 l 876 872 l 918 815 l 705 -182 q 591 -374 684 -295 q 496 -432 545 -412 q 393 -452 448 -452 l 254 -452 l 211 -395 l 205 -395 l 269 -93 l 412 -93 q 428 -91 420 -93 q 444 -86 436 -90 l 355 -86 q 262 -66 303 -86 q 193 -7 222 -47 l 171 20 q 157 35 163 27 q 144 52 151 42 q 105 139 114 92 q 110 243 96 186 l 244 879 l 382 879 l 370 895 l 363 895 l 401 1074 l 572 1074 l 571 1067 l 614 1010 l 576 838 l 440 838 l 457 815 l 347 304 q 345 291 345 297 q 345 278 345 284 q 359 274 352 276 q 374 272 366 272 l 490 272 q 526 279 509 272 q 558 299 544 286 q 583 328 573 311 q 597 364 593 345 l 697 838 l 643 838 l 600 895 m 743 924 l 770 1044 l 654 1044 l 628 924 l 743 924 m 513 924 l 539 1044 l 422 1044 l 397 924 l 513 924 m 636 -122 l 843 850 l 728 850 l 625 364 q 606 316 619 338 q 573 278 592 294 q 531 252 554 262 q 484 243 508 243 l 368 243 q 326 252 345 243 q 294 278 307 262 q 277 317 282 295 q 278 364 273 339 l 382 850 l 267 850 l 138 243 q 170 72 115 144 q 232 18 195 35 q 315 0 269 0 l 432 0 q 471 4 452 0 q 510 20 491 9 q 564 82 555 43 l 547 0 q 528 -48 541 -26 q 495 -87 514 -71 q 453 -113 476 -103 q 406 -122 430 -122 l 290 -122 l 237 -366 l 354 -366 q 533 -294 450 -366 q 600 -216 574 -259 q 636 -122 626 -174 z "},"¯":{"ha":547,"x_min":0,"x_max":547,"o":"m 0 850 l 0 972 l 547 972 l 547 850 l 0 850 z "},"ˉ":{"ha":547,"x_min":0,"x_max":547,"o":"m 0 850 l 0 972 l 547 972 l 547 850 l 0 850 z "},"ı":{"ha":345,"x_min":52,"x_max":457,"o":"m 58 -29 l 52 -29 l 244 879 l 415 879 l 414 872 l 457 815 l 265 -86 l 102 -86 l 58 -29 m 200 0 l 382 850 l 267 850 l 85 0 l 200 0 z "},"ˇ":{"ha":505,"x_min":250,"x_max":661,"o":"m 616 996 l 661 937 l 493 715 l 374 715 l 332 772 l 325 772 l 250 1002 l 382 1002 l 389 985 l 424 937 l 427 928 l 492 1002 l 623 1002 l 616 996 m 568 972 l 500 972 l 408 869 l 361 972 l 292 972 l 347 802 l 440 802 l 568 972 z "},"˘":{"ha":1371,"x_min":61,"x_max":1310,"o":"m 465 293 l 465 518 l 543 518 l 543 293 l 465 293 m 812 160 l 521 160 l 547 220 l 790 220 l 694 456 l 693 456 l 693 517 l 760 517 l 760 693 l 465 693 l 465 911 l 329 911 l 329 456 l 151 456 l 151 61 l 852 61 l 812 160 m 1244 146 q 1092 236 1244 236 l 961 236 l 961 296 l 1104 296 q 1143 301 1125 296 q 1177 317 1161 307 q 1203 344 1194 330 q 1213 378 1213 359 q 1171 440 1213 420 q 1136 452 1155 449 q 1093 456 1116 456 l 757 456 l 921 60 l 1092 60 q 1150 62 1125 60 q 1190 72 1175 64 q 1244 146 1244 92 m 1310 136 q 1251 33 1310 71 q 1132 0 1204 0 l 90 0 l 90 515 l 267 515 l 267 911 l 122 911 l 122 839 l 61 839 l 72 972 l 597 972 l 597 911 l 530 911 l 530 753 l 822 753 l 822 515 l 1197 515 l 1197 633 l 1257 633 l 1257 456 l 1253 456 q 1271 423 1264 441 q 1278 382 1278 405 q 1260 314 1278 342 q 1207 269 1242 287 q 1310 136 1310 237 m 1194 793 l 1185 909 l 940 909 l 940 753 l 1071 753 l 1071 818 l 1131 818 l 1131 627 l 1071 627 l 1071 692 l 878 692 l 878 971 l 1253 971 l 1253 793 l 1194 793 z "}}}
